<?xml version="1.0" encoding="utf-8"?>
<!-- Generator: Adobe Illustrator 15.1.0, SVG Export Plug-In . SVG Version: 6.00 Build 0)  -->
<!DOCTYPE svg PUBLIC "-//W3C//DTD SVG 1.1//EN" "http://www.w3.org/Graphics/SVG/1.1/DTD/svg11.dtd">
<svg version="1.1" id="Layer_1" xmlns="http://www.w3.org/2000/svg" xmlns:xlink="http://www.w3.org/1999/xlink" x="0px" y="0px"
	 width="132px" height="146.578px" viewBox="0 0 132 146.578" enable-background="new 0 0 132 146.578" xml:space="preserve">
<g>
	<path fill="#FDE03B" d="M20.625,125.267c0,0,4.126-8.938,7.563-9.626c3.438-0.687,11.688-3.438,11.688-3.438l9.625-4.813l16.5,2.75
		l16.5-3.438l12.375,8.252c0,0,10.314,2.749,13.063,6.874c2.75,4.125,2.75,4.125,2.75,4.125s-21.999,15.812-31.625,17.188
		C69.438,144.516,30.938,145.894,20.625,125.267z"/>
	<path fill="#507BBE" d="M43.313,63.391l-1.375-17.187l4.813-4.813l4.812-0.688c0,0,0.001-4.124,5.5-4.812
		c5.5-0.688,25.437-1.375,25.437-1.375s4.813,3.437,5.501,6.188c0.687,2.75,0.687,22,0.687,22s-5.501,2.75-6.188-0.688
		c-0.687-3.437-2.063-9.625-2.063-9.625l-3.437-2.063l-6.876,2.75l-17.187-2.063c0,0-3.438,1.375-3.438,5.5
		S46.75,64.765,43.313,63.391z"/>
	<g>
		<rect x="51.563" y="92.953" fill="#374041" width="4.125" height="12.375"/>
	</g>
	<g>
		<rect x="76.313" y="92.953" fill="#374041" width="4.125" height="12.375"/>
	</g>
	<g>
		<path fill="#374041" d="M88.688,66.141h-2.063c-3.412,0-6.188-2.775-6.188-6.188v-4.125c0-1.138-0.925-2.063-2.063-2.063h-2.063
			v-2.85l-5.7,2.85H53.625c-1.138,0-2.063,0.925-2.063,2.063v4.125c0,3.412-2.775,6.188-6.188,6.188v-4.125
			c1.138,0,2.063-0.924,2.063-2.063v-4.125c0-3.412,2.775-6.188,6.188-6.188h16.013l10.8-5.4v5.752
			c2.4,0.852,4.125,3.146,4.125,5.835v4.125c0,1.138,0.925,2.063,2.063,2.063h2.063V66.141z"/>
	</g>
	<g>
		<rect x="43.313" y="62.016" fill="#374041" width="2.063" height="4.125"/>
	</g>
	<g>
		<path fill="#374041" d="M66,99.141c-16.075,0-22.341-15.553-22.673-25.944L41.25,71.12V47.578c0-4.55,3.7-8.25,8.25-8.25h0.262
			c0.917-3.555,4.151-6.188,7.988-6.188h22.688c5.686,0,10.313,4.627,10.313,10.313V71.12l-2.076,2.076
			C88.341,83.588,82.075,99.141,66,99.141z M45.375,69.412l2.063,2.063v0.854c0,8.771,5.04,22.688,18.563,22.688
			c13.523,0,18.563-13.916,18.563-22.688v-0.854l2.063-2.063V43.453c0-3.412-2.775-6.188-6.188-6.188H57.75
			c-2.274,0-4.125,1.851-4.125,4.125v2.063H49.5c-2.274,0-4.125,1.851-4.125,4.125V69.412z"/>
	</g>
	<g>
		<path fill="#374041" d="M58.207,124.288l-22.955-10.202l13.757-11.005l19.054,4.761v6.591L58.207,124.288z M43.123,113.071
			l14.17,6.298l6.645-6.645v-1.66l-13.946-3.488L43.123,113.071z"/>
	</g>
	<g>
		<path fill="#374041" d="M73.793,124.288l-9.855-9.855v-6.591l19.054-4.761l13.757,11.005L73.793,124.288z M68.063,112.725
			l6.645,6.645l14.17-6.298l-6.868-5.495l-13.946,3.488V112.725z"/>
	</g>
	<g>
		<rect x="63.938" y="132.141" fill="#374041" width="4.125" height="4.125"/>
	</g>
	<g>
		<rect x="63.938" y="123.891" fill="#374041" width="4.125" height="4.125"/>
	</g>
	<g>
		<path fill="#FFD27F" d="M10.651,116.772C3.684,106.17,0,93.654,0,80.578c0-36.392,29.608-66,66-66s66,29.608,66,66
			c0,13.074-3.684,25.59-10.65,36.194l-3.449-2.264c6.526-9.932,9.975-21.664,9.975-33.931c0-34.118-27.757-61.875-61.875-61.875
			c-34.118,0-61.875,27.757-61.875,61.875c0,12.269,3.448,24.001,9.974,33.931L10.651,116.772z"/>
	</g>
	<g>
		<path fill="#374041" d="M66,146.578c-17.823,0-34.456-6.806-46.833-19.164l-0.604-0.604v-0.856c0-0.785,0.387-7.803,13.785-12.268
			l6.188-2.063l1.305,3.911l-6.188,2.063c-8.072,2.693-10.211,6.18-10.771,7.68C34.392,136.362,49.657,142.453,66,142.453
			c16.476,0,31.745-6.091,43.129-17.177c-0.544-1.456-2.656-4.971-10.781-7.68l-6.188-2.063l1.305-3.911l6.188,2.063
			c13.398,4.465,13.785,11.482,13.785,12.268v0.849l-0.596,0.602C100.6,139.769,83.964,146.578,66,146.578z"/>
	</g>
	<g>
		<path fill="#FFD27F" d="M12.377,117.703c-0.135,0-0.27-0.012-0.407-0.04l-10.313-2.063l0.81-4.045l8.291,1.658l1.657-8.29
			l4.045,0.81l-2.063,10.313C14.202,117.026,13.34,117.703,12.377,117.703z"/>
	</g>
	<g>
		<path fill="#FFD27F" d="M119.623,117.703c-0.963,0-1.825-0.677-2.021-1.657l-2.063-10.313l4.045-0.81l1.657,8.29l8.29-1.658
			l0.811,4.045l-10.313,2.063C119.893,117.691,119.756,117.703,119.623,117.703z"/>
	</g>
	<path fill="#FDE03B" d="M40.442,3.267c0,0,7.763,7.849,12.151,4.437c4.389-3.41,6.531-4.125,6.531-4.125s-0.25,2.286,8.469,1.809
		s8.719-0.455,8.719-0.455s0.709,0.279,7.573,0.488s6.864,0.387,6.864,0.387l-3.094,19.084h-1.96l-35.508,2.234l-4.32-8.935
		L40.437,3.664"/>
	<g>
		<g>
			<path fill="#374041" d="M87.507,27.156H47.678c-1,0-1.811-0.81-1.811-1.811v-7.242c0-1,0.811-1.81,1.811-1.81h39.829
				c1.001,0,1.812,0.81,1.812,1.81v7.242C89.318,26.346,88.508,27.156,87.507,27.156z M49.488,23.535h36.208v-3.621H49.488V23.535z"
				/>
		</g>
		<g>
			<path fill="#374041" d="M89.101,22.582l-3.188-1.713c0.042-0.078,3.319-6.241,4.656-12.507c-2.316,0.69-5.049,0.69-6.683,0.69
				c-3.668,0-6.153-1.828-7.573-4.098c-2.008,2.308-5.213,4.098-8.72,4.098c-3.507,0-6.713-1.79-8.718-4.098
				c-1.423,2.27-3.907,4.098-7.576,4.098c-1.633,0-4.366,0-6.683-0.69c1.337,6.266,4.615,12.429,4.657,12.507l-3.189,1.713
				c-0.23-0.429-5.646-10.603-5.646-18.961h3.62c0,1.167,2.572,1.811,7.242,1.811c4.104,0,5.431-3.66,5.431-5.431h3.621
				c0,1.859,3.058,5.431,7.242,5.431c4.184,0,7.241-3.572,7.241-5.431h3.619c0,1.771,1.33,5.431,5.433,5.431
				c4.671,0,7.241-0.644,7.241-1.811h3.621C94.748,11.979,89.332,22.152,89.101,22.582z"/>
		</g>
	</g>
</g>
</svg>
