<?xml version="1.0" encoding="utf-8"?>
<!-- Generator: Adobe Illustrator 15.1.0, SVG Export Plug-In . SVG Version: 6.00 Build 0)  -->
<!DOCTYPE svg PUBLIC "-//W3C//DTD SVG 1.1//EN" "http://www.w3.org/Graphics/SVG/1.1/DTD/svg11.dtd">
<svg version="1.1" id="Layer_1" xmlns="http://www.w3.org/2000/svg" xmlns:xlink="http://www.w3.org/1999/xlink" x="0px" y="0px"
	 width="35.763px" height="35.812px" viewBox="0 0 35.763 35.812" enable-background="new 0 0 35.763 35.812" xml:space="preserve">
<path fill="none" stroke="#545860" stroke-width="1.9842" stroke-linecap="round" stroke-linejoin="round" stroke-miterlimit="22.9256" d="
	M23.538,13.319c-0.9,3.125-3.351,5.398-5.68,5.514c-2.336-0.115-4.794-2.404-5.688-5.543l-0.44,0.068
	c-0.498,0.078-0.968-0.266-1.046-0.764l-0.432-2.777c-0.078-0.498,0.267-0.969,0.764-1.045l0.313-0.049
	c-0.14-0.436-0.216-0.898-0.216-1.379V6.321c0-2.5,2.047-4.547,4.548-4.547h0.542c-0.006-0.086,0.005-0.168,0.033-0.244
	c0.279-0.736,2.145-0.715,4.166,0.051c0.43,0.164,0.832,0.348,1.195,0.541c1.645,0.688,2.807,2.314,2.807,4.199v1.023
	c0,0.48-0.075,0.943-0.215,1.379l0.313,0.049c0.498,0.076,0.842,0.547,0.765,1.045l-0.431,2.777
	c-0.078,0.498-0.549,0.842-1.047,0.764L23.538,13.319L23.538,13.319z"/>
<path fill="none" stroke="#545860" stroke-width="1.9842" stroke-linecap="round" stroke-linejoin="round" stroke-miterlimit="22.9256" d="
	M1.809,34.796l-0.816-7.424v-0.779c0-1.734,1.756-2.736,3.221-3.033c1.337-0.27,6.345-1.355,7.964-2.479l0.1-0.014l2.931,13.752
	l1.759-9.072l-1.49-3.844h4.813l-1.49,3.844l1.709,9.072l2.98-13.752l0.1,0.014c1.619,1.123,6.625,2.209,7.963,2.479
	c1.465,0.297,3.221,1.301,3.221,3.033v0.779l-0.816,7.424"/>
</svg>
