<?xml version="1.0" encoding="utf-8"?>
<!-- Generator: Adobe Illustrator 15.1.0, SVG Export Plug-In . SVG Version: 6.00 Build 0)  -->
<!DOCTYPE svg PUBLIC "-//W3C//DTD SVG 1.1//EN" "http://www.w3.org/Graphics/SVG/1.1/DTD/svg11.dtd">
<svg version="1.1" id="Layer_1" xmlns="http://www.w3.org/2000/svg" xmlns:xlink="http://www.w3.org/1999/xlink" x="0px" y="0px"
	 width="36.698px" height="30.897px" viewBox="0 0 36.698 30.897" enable-background="new 0 0 36.698 30.897" xml:space="preserve">
<path fill="none" stroke="#53585f" stroke-width="1.9842" stroke-linecap="round" stroke-linejoin="round" stroke-miterlimit="22.9256" d="
	M1.319,14.869l16.287-13.65c0.207-0.173,0.482-0.245,0.744-0.222c0.262-0.023,0.533,0.049,0.744,0.222l16.287,13.65
	c0.395,0.331,0.438,0.903,0.08,1.272l-1.738,1.797c-0.355,0.369-0.98,0.404-1.383,0.074L18.351,6.241L4.36,18.012
	c-0.396,0.334-1.025,0.297-1.383-0.074l-1.738-1.797C0.88,15.77,0.917,15.198,1.319,14.869L1.319,14.869z M29.483,15.956
	l-0.131,13.949h-5.777v-8.427c0-2.874-2.352-5.225-5.225-5.225l0,0c-2.873,0-5.225,2.353-5.225,5.225v8.427H7.104l0.061-13.949"/>
</svg>
