<?xml version="1.0" encoding="utf-8"?>
<!-- Generator: Adobe Illustrator 15.1.0, SVG Export Plug-In . SVG Version: 6.00 Build 0)  -->
<!DOCTYPE svg PUBLIC "-//W3C//DTD SVG 1.1//EN" "http://www.w3.org/Graphics/SVG/1.1/DTD/svg11.dtd">
<svg version="1.1" id="Layer_1" xmlns="http://www.w3.org/2000/svg" xmlns:xlink="http://www.w3.org/1999/xlink" x="0px" y="0px"
	 width="58px" height="50.003px" viewBox="0 0 58 50.003" enable-background="new 0 0 58 50.003" xml:space="preserve">
<g>
	
		<polygon fill="none" stroke="#545860" stroke-width="3.2971" stroke-linecap="round" stroke-linejoin="round" stroke-miterlimit="22.926" points="
		1.65,12.113 12.597,12.113 16.912,1.648 41.088,1.648 45.403,12.113 56.35,12.113 56.35,48.354 1.65,48.354 	"/>
	<path fill="none" stroke="#545860" stroke-width="3.2971" stroke-miterlimit="22.926" d="M29.002,12.112
		c8.083,0,14.638,6.543,14.638,14.611c0,8.07-6.555,14.611-14.638,14.611c-8.087,0-14.641-6.541-14.641-14.611
		C14.361,18.655,20.915,12.112,29.002,12.112z M29.002,18.138c4.749,0,8.604,3.845,8.604,8.586c0,4.743-3.854,8.59-8.604,8.59
		c-4.753,0-8.607-3.847-8.607-8.59C20.395,21.982,24.249,18.138,29.002,18.138z"/>
	<rect x="0.398" y="0.16" fill="none" width="57.602" height="49.842"/>
	<rect y="0.002" fill="none" width="58" height="50"/>
</g>
</svg>
