<?xml version="1.0" encoding="utf-8"?>
<!-- Generator: Adobe Illustrator 15.1.0, SVG Export Plug-In . SVG Version: 6.00 Build 0)  -->
<!DOCTYPE svg PUBLIC "-//W3C//DTD SVG 1.1//EN" "http://www.w3.org/Graphics/SVG/1.1/DTD/svg11.dtd">
<svg version="1.1" id="Layer_1" xmlns="http://www.w3.org/2000/svg" xmlns:xlink="http://www.w3.org/1999/xlink" x="0px" y="0px"
	 width="28.626px" height="28.625px" viewBox="0 0 28.626 28.625" enable-background="new 0 0 28.626 28.625" xml:space="preserve">
<g>
	<circle fill="#FBD702" cx="14.313" cy="14.312" r="14.313"/>
	<g>
		<g>
			<path fill="#FFFFFF" d="M23.246,20.447H5.932v-3.248h17.314V20.447z M7.035,19.342h15.106v-1.039H7.035V19.342z"/>
		</g>
		<g>
			<path fill="#FFFFFF" d="M23.059,18.303H6.082l-0.117-0.395c-0.023-0.081-0.049-0.233-0.226-1.355
				c-0.219-1.39-0.565-3.595-0.792-4.665c-0.691-0.166-1.127-0.854-0.977-1.547c0.15-0.686,0.861-1.146,1.551-1
				c0.705,0.154,1.152,0.851,1,1.554c-0.006,0.022-0.011,0.045-0.018,0.067c1.091,1.012,2.902,3.264,3.313,3.777
				c0.038,0.012,0.094,0.025,0.158,0.025c0.283,0,0.521-0.266,0.672-0.488c0.245-0.365,0.656-0.947,1.112-1.594
				c0.624-0.885,1.315-1.865,1.793-2.582c-0.241-0.299-0.345-0.697-0.258-1.096c0.149-0.686,0.864-1.145,1.552-0.999
				c0.705,0.157,1.151,0.853,1,1.554c-0.043,0.195-0.129,0.375-0.249,0.527c0.418,0.563,1.028,1.261,1.579,1.893
				c0.611,0.699,1.188,1.359,1.5,1.821c0.15,0.224,0.389,0.489,0.671,0.489c0.063,0,0.12-0.014,0.159-0.026
				c0.367-0.46,1.857-2.306,2.883-3.247c-0.063-0.207-0.072-0.43-0.025-0.647c0.148-0.688,0.861-1.149,1.554-0.999
				c0.34,0.074,0.632,0.276,0.819,0.57c0.189,0.293,0.252,0.643,0.177,0.982c-0.103,0.477-0.467,0.848-0.921,0.978
				c-0.211,1.081-0.486,3.392-0.645,4.706c-0.13,1.09-0.146,1.211-0.172,1.301L23.059,18.303z M6.959,17.199h15.206
				c0.024-0.193,0.054-0.44,0.087-0.723c0.149-1.25,0.377-3.145,0.58-4.354c-0.88,0.881-2.068,2.33-2.54,2.928l-0.135,0.122
				c-0.058,0.037-0.366,0.222-0.811,0.222c-0.424,0-1.044-0.169-1.586-0.977c-0.272-0.404-0.828-1.039-1.415-1.712
				c-0.654-0.747-1.327-1.519-1.771-2.149c-0.488,0.744-1.24,1.809-1.913,2.764c-0.451,0.639-0.856,1.213-1.099,1.573
				c-0.543,0.806-1.163,0.976-1.588,0.976c-0.443,0-0.752-0.185-0.81-0.222l-0.134-0.122c-0.563-0.711-1.952-2.41-2.91-3.395
				c0.225,1.172,0.506,2.959,0.709,4.251C6.881,16.705,6.924,16.986,6.959,17.199z M23.539,10.835l0.072,0.01
				c0.152,0.001,0.203-0.065,0.223-0.156c0.016-0.072-0.01-0.126-0.026-0.152c-0.017-0.025-0.056-0.072-0.126-0.088
				c-0.137-0.01-0.217,0.05-0.238,0.153c-0.014,0.065,0.003,0.13,0.047,0.179L23.539,10.835z M5.275,10.42
				c-0.115,0-0.203,0.055-0.226,0.155c-0.023,0.107,0.046,0.215,0.155,0.238L5.4,10.747c0.014-0.018,0.033-0.046,0.042-0.087
				c0.023-0.107-0.046-0.215-0.153-0.238C5.283,10.42,5.279,10.42,5.275,10.42z M14.599,9.084c-0.115,0-0.204,0.055-0.226,0.155
				c-0.021,0.094,0.031,0.191,0.121,0.228L14.572,9.5l0.072-0.029c0.063-0.025,0.107-0.08,0.123-0.146
				c0.022-0.106-0.048-0.215-0.158-0.239C14.605,9.084,14.602,9.084,14.599,9.084z"/>
		</g>
		<g>
			<path fill="#FFFFFF" d="M10.969,13.968l-1.259-2.58l-0.757,2.214l-1.045-0.357l0.811-2.37c-0.218-0.221-0.348-0.521-0.348-0.845
				c0-0.667,0.543-1.21,1.209-1.21s1.208,0.543,1.208,1.21c0,0.237-0.069,0.463-0.193,0.654l1.366,2.8L10.969,13.968z M9.58,9.924
				c-0.058,0-0.104,0.048-0.104,0.105c0,0.05,0.038,0.086,0.077,0.099l0.041,0.014l0.041-0.027c0.019-0.012,0.049-0.037,0.049-0.085
				C9.684,9.972,9.637,9.924,9.58,9.924z"/>
		</g>
		<g>
			<path fill="#FFFFFF" d="M19.771,13.603l-0.766-2.238l-1.063,2.031l-0.979-0.512l1.158-2.211
				c-0.121-0.189-0.188-0.411-0.188-0.644c0-0.667,0.543-1.21,1.209-1.21c0.667,0,1.209,0.543,1.209,1.21
				c0,0.323-0.129,0.624-0.348,0.845l0.811,2.37L19.771,13.603z M19.143,9.924c-0.057,0-0.105,0.048-0.105,0.105
				c0,0.048,0.036,0.077,0.052,0.087l0.04,0.025l0.042-0.014c0.038-0.014,0.077-0.049,0.077-0.099
				C19.248,9.972,19.201,9.924,19.143,9.924z"/>
		</g>
	</g>
</g>
</svg>
