<?xml version="1.0" encoding="utf-8"?>
<!-- Generator: Adobe Illustrator 15.1.0, SVG Export Plug-In . SVG Version: 6.00 Build 0)  -->
<!DOCTYPE svg PUBLIC "-//W3C//DTD SVG 1.1//EN" "http://www.w3.org/Graphics/SVG/1.1/DTD/svg11.dtd">
<svg version="1.1" id="Layer_1" xmlns="http://www.w3.org/2000/svg" xmlns:xlink="http://www.w3.org/1999/xlink" x="0px" y="0px"
	 width="23.985px" height="20.308px" viewBox="0 0 23.985 20.308" enable-background="new 0 0 23.985 20.308" xml:space="preserve">
<path fill="none" stroke="#364E5F" stroke-width="1.9842" stroke-linecap="round" stroke-linejoin="round" stroke-miterlimit="22.9256" d="
	M1.2,9.787l10.322-8.651c0.131-0.11,0.306-0.156,0.472-0.141c0.166-0.015,0.337,0.032,0.471,0.141l10.321,8.651
	c0.252,0.209,0.279,0.571,0.051,0.805l-1.102,1.14c-0.224,0.233-0.619,0.256-0.876,0.047l-8.865-7.46l-8.867,7.46
	c-0.251,0.211-0.65,0.188-0.876-0.047l-1.102-1.14C0.921,10.357,0.945,9.996,1.2,9.787L1.2,9.787z M19.049,10.476l-0.084,8.84h-3.66
	v-5.34c0-1.822-1.492-3.312-3.312-3.312l0,0c-1.821,0-3.312,1.49-3.312,3.312v5.34H4.866l0.039-8.84"/>
</svg>
