<?xml version="1.0" encoding="utf-8"?>
<!-- Generator: Adobe Illustrator 15.1.0, SVG Export Plug-In . SVG Version: 6.00 Build 0)  -->
<!DOCTYPE svg PUBLIC "-//W3C//DTD SVG 1.1//EN" "http://www.w3.org/Graphics/SVG/1.1/DTD/svg11.dtd">
<svg version="1.1" id="Layer_1" xmlns="http://www.w3.org/2000/svg" xmlns:xlink="http://www.w3.org/1999/xlink" x="0px" y="0px"
	 width="19px" height="19px" viewBox="0 0 19 19" enable-background="new 0 0 19 19" xml:space="preserve">
<path fill="#FFFFFF" d="M18.044,7.528l-1.819-0.365c-0.092-0.264-0.2-0.519-0.319-0.766l1.031-1.545
	c0.314-0.471,0.252-1.098-0.148-1.499l-1.143-1.142c-0.229-0.23-0.533-0.348-0.84-0.348c-0.229,0-0.457,0.065-0.658,0.2l-1.546,1.03
	c-0.248-0.12-0.503-0.227-0.767-0.318l-0.363-1.82C11.361,0.4,10.873,0,10.307,0H8.692C8.126,0,7.639,0.4,7.528,0.956l-0.364,1.82
	C6.9,2.867,6.645,2.974,6.398,3.093l-1.545-1.03c-0.202-0.134-0.431-0.2-0.659-0.2c-0.307,0-0.611,0.118-0.84,0.348L2.211,3.354
	c-0.4,0.4-0.463,1.027-0.148,1.499l1.03,1.545C2.973,6.646,2.867,6.9,2.775,7.164l-1.82,0.364C0.399,7.639,0,8.126,0,8.692v1.616
	c0,0.564,0.399,1.053,0.955,1.164l1.82,0.364c0.092,0.263,0.199,0.519,0.318,0.765l-1.03,1.547
	c-0.314,0.471-0.252,1.098,0.148,1.498l1.142,1.143c0.229,0.229,0.534,0.348,0.84,0.348c0.228,0,0.458-0.066,0.659-0.199
	l1.545-1.031c0.247,0.12,0.502,0.227,0.766,0.318l0.364,1.82C7.639,18.602,8.126,19,8.692,19h1.615c0.565,0,1.054-0.398,1.165-0.955
	l0.365-1.82c0.263-0.092,0.518-0.198,0.765-0.318l1.546,1.031c0.201,0.133,0.43,0.199,0.658,0.199c0.307,0,0.61-0.119,0.84-0.348
	l1.143-1.143c0.4-0.4,0.463-1.027,0.148-1.498l-1.031-1.547c0.121-0.247,0.228-0.503,0.319-0.766l1.819-0.363
	c0.555-0.111,0.955-0.6,0.955-1.164V8.692C19,8.126,18.599,7.639,18.044,7.528 M15.992,10.672c-0.412,0.083-0.75,0.377-0.889,0.773
	c-0.076,0.22-0.166,0.432-0.266,0.639c-0.184,0.379-0.152,0.826,0.08,1.177l1.031,1.546l-1.143,1.143l-1.545-1.031
	c-0.199-0.131-0.428-0.199-0.659-0.199c-0.177,0-0.354,0.039-0.517,0.119c-0.207,0.1-0.419,0.189-0.639,0.266
	c-0.397,0.138-0.691,0.477-0.774,0.889l-0.365,1.82H8.692l-0.364-1.82c-0.082-0.412-0.377-0.751-0.773-0.889
	c-0.219-0.076-0.433-0.164-0.639-0.266c-0.164-0.08-0.341-0.119-0.518-0.119c-0.23,0-0.46,0.068-0.658,0.199l-1.546,1.031
	l-1.143-1.143l1.03-1.546c0.233-0.351,0.264-0.796,0.082-1.176c-0.1-0.206-0.19-0.419-0.266-0.638
	c-0.138-0.398-0.476-0.692-0.889-0.775l-1.82-0.363l0-1.616l1.82-0.364C3.42,8.246,3.759,7.951,3.896,7.554
	c0.076-0.219,0.165-0.432,0.265-0.638C4.346,6.537,4.315,6.09,4.081,5.739l-1.03-1.545l1.143-1.143l1.546,1.03
	c0.198,0.132,0.428,0.199,0.658,0.199c0.176,0,0.353-0.039,0.518-0.118c0.205-0.1,0.418-0.19,0.638-0.266
	c0.397-0.139,0.692-0.476,0.774-0.889l0.364-1.82l1.615,0l0.364,1.821c0.082,0.413,0.377,0.75,0.775,0.889
	c0.219,0.076,0.431,0.165,0.637,0.265c0.165,0.08,0.342,0.119,0.519,0.119c0.231,0,0.46-0.067,0.659-0.199l1.545-1.03l1.143,1.143
	l-1.031,1.545c-0.232,0.351-0.263,0.797-0.08,1.176c0.1,0.207,0.189,0.419,0.266,0.639c0.139,0.397,0.477,0.692,0.889,0.774
	l1.82,0.365v1.616L15.992,10.672z"/>
<path fill="none" stroke="#FFFFFF" stroke-miterlimit="10" d="M9.5,6.531c-1.639,0-2.968,1.33-2.968,2.969
	c0,1.639,1.329,2.969,2.968,2.969s2.968-1.33,2.968-2.969C12.468,7.861,11.139,6.531,9.5,6.531 M9.5,12.098
	c-1.434,0-2.597-1.163-2.597-2.598c0-1.434,1.163-2.598,2.597-2.598s2.597,1.164,2.597,2.598
	C12.097,10.935,10.934,12.098,9.5,12.098"/>
</svg>
