<?xml version="1.0" encoding="utf-8"?>
<!-- Generator: Adobe Illustrator 15.1.0, SVG Export Plug-In . SVG Version: 6.00 Build 0)  -->
<!DOCTYPE svg PUBLIC "-//W3C//DTD SVG 1.1//EN" "http://www.w3.org/Graphics/SVG/1.1/DTD/svg11.dtd">
<svg version="1.1" id="Layer_1" xmlns="http://www.w3.org/2000/svg" xmlns:xlink="http://www.w3.org/1999/xlink" x="0px" y="0px"
	 width="20.984px" height="23.285px" viewBox="0 0 20.984 23.285" enable-background="new 0 0 20.984 23.285" xml:space="preserve">
<path fill="none" stroke="#FFFFFF" stroke-width="1.9842" stroke-linecap="round" stroke-linejoin="round" stroke-miterlimit="22.9256" d="
	M10.492,22.292c-5.67-2.456-9.5-7.113-9.5-12.456c0-2.738,0.033-5.481,0.033-8.221C1.875,2.617,3.587,3.3,5.561,3.3
	c2.362,0,4.347-0.978,4.933-2.308c0.585,1.33,2.571,2.308,4.932,2.308c1.974,0,3.686-0.683,4.536-1.684
	c0,2.74,0.031,5.483,0.031,8.221C19.992,15.179,16.164,19.836,10.492,22.292L10.492,22.292z"/>
<path fill="#FFFFFF" d="M5.51,15.953V6.274h1.995c0.359,0,0.675,0.019,0.949,0.057C8.728,6.368,8.997,6.442,9.26,6.551
	C9.523,6.66,9.741,6.806,9.911,6.989c0.17,0.183,0.306,0.424,0.409,0.723c0.102,0.299,0.153,0.653,0.153,1.062
	c0,0.505-0.12,0.903-0.357,1.193c-0.239,0.291-0.609,0.52-1.111,0.688c1.151,0.28,1.726,1.093,1.726,2.441
	c0,0.972-0.233,1.689-0.699,2.156c-0.466,0.467-1.178,0.699-2.134,0.699H5.51z M7.456,10.081H7.79c0.179,0,0.33-0.034,0.452-0.103
	c0.122-0.068,0.214-0.167,0.277-0.298C8.581,9.549,8.625,9.409,8.65,9.258C8.675,9.107,8.688,8.93,8.688,8.726
	c0-0.162-0.012-0.303-0.035-0.425c-0.023-0.122-0.05-0.223-0.079-0.304c-0.028-0.08-0.077-0.148-0.145-0.204
	c-0.067-0.056-0.128-0.097-0.18-0.124c-0.052-0.027-0.13-0.047-0.237-0.06C7.907,7.598,7.821,7.59,7.757,7.588
	C7.692,7.587,7.592,7.586,7.456,7.586V10.081z M7.467,14.571h0.182c0.255,0,0.46-0.03,0.619-0.089s0.278-0.16,0.36-0.304
	s0.137-0.306,0.164-0.487c0.026-0.18,0.04-0.424,0.04-0.728c0-0.505-0.088-0.898-0.266-1.178c-0.178-0.279-0.479-0.419-0.906-0.419
	H7.467V14.571z"/>
<path fill="#FFFFFF" d="M11.64,15.953V6.274h4.038v1.344h-2.081v2.635h1.473v1.376h-1.473v4.323H11.64z"/>
</svg>
