<?xml version="1.0" encoding="utf-8"?>
<!-- Generator: Adobe Illustrator 15.1.0, SVG Export Plug-In . SVG Version: 6.00 Build 0)  -->
<!DOCTYPE svg PUBLIC "-//W3C//DTD SVG 1.1//EN" "http://www.w3.org/Graphics/SVG/1.1/DTD/svg11.dtd">
<svg version="1.1" id="Layer_1" xmlns="http://www.w3.org/2000/svg" xmlns:xlink="http://www.w3.org/1999/xlink" x="0px" y="0px"
	 width="16.984px" height="23.542px" viewBox="0 0 16.984 23.542" enable-background="new 0 0 16.984 23.542" xml:space="preserve">
<g>
	
		<path fill="none" stroke="#364E5F" stroke-width="1.9842" stroke-linecap="round" stroke-linejoin="round" stroke-miterlimit="22.9256" d="
		M15.992,6.267V21.74c0,0.439-0.37,0.81-0.81,0.81H1.801c-0.438,0-0.809-0.364-0.809-0.81V1.801c0-0.445,0.364-0.809,0.809-0.809
		h8.917"/>
	
		<path fill="none" stroke="#364E5F" stroke-width="1.9842" stroke-linecap="round" stroke-linejoin="round" stroke-miterlimit="22.9256" d="
		M15.992,6.267h-4.466c-0.444,0-0.809-0.364-0.809-0.81V0.992L15.992,6.267L15.992,6.267z"/>
	
		<line fill="none" stroke="#364E5F" stroke-width="1.9842" stroke-linecap="round" stroke-linejoin="round" stroke-miterlimit="22.9256" x1="4.228" y1="5.329" x2="8.493" y2="5.329"/>
	
		<line fill="none" stroke="#364E5F" stroke-width="1.9842" stroke-linecap="round" stroke-linejoin="round" stroke-miterlimit="22.9256" x1="4.228" y1="9.364" x2="12.757" y2="9.364"/>
	
		<line fill="none" stroke="#364E5F" stroke-width="1.9842" stroke-linecap="round" stroke-linejoin="round" stroke-miterlimit="22.9256" x1="4.228" y1="11.72" x2="12.757" y2="11.72"/>
	
		<line fill="none" stroke="#364E5F" stroke-width="1.9842" stroke-linecap="round" stroke-linejoin="round" stroke-miterlimit="22.9256" x1="4.228" y1="14.076" x2="12.757" y2="14.076"/>
	
		<line fill="none" stroke="#364E5F" stroke-width="1.9842" stroke-linecap="round" stroke-linejoin="round" stroke-miterlimit="22.9256" x1="4.228" y1="16.432" x2="8.493" y2="16.432"/>
</g>
</svg>
