<?xml version="1.0" encoding="utf-8"?>
<!-- Generator: Adobe Illustrator 15.1.0, SVG Export Plug-In . SVG Version: 6.00 Build 0)  -->
<!DOCTYPE svg PUBLIC "-//W3C//DTD SVG 1.1//EN" "http://www.w3.org/Graphics/SVG/1.1/DTD/svg11.dtd">
<svg version="1.1" id="Layer_1" xmlns="http://www.w3.org/2000/svg" xmlns:xlink="http://www.w3.org/1999/xlink" x="0px" y="0px"
	 width="24px" height="17.542px" viewBox="0 0 24 17.542" enable-background="new 0 0 24 17.542" xml:space="preserve">
<g>
	<path fill="#FFFFFF" d="M3.095,9.404c0,0,0.016-0.029,0.051-0.089c0.266-0.447,1.526-2.513,3.173-4.441
		c0.822-0.962,1.741-1.889,2.658-2.555c0.917-0.673,1.821-1.06,2.579-1.055c0.262,0.001,0.509,0.042,0.755,0.133
		c0.794,0.294,1.279,0.647,1.563,1.002c0.281,0.356,0.393,0.721,0.396,1.165c0.002,0.51-0.174,1.12-0.484,1.761
		c-0.461,0.962-1.213,1.979-1.955,2.871c-0.743,0.895-1.469,1.658-1.911,2.187c-0.417,0.501-0.792,1.03-1.071,1.589
		s-0.464,1.154-0.464,1.776c-0.003,0.628,0.202,1.273,0.637,1.839c0.435,0.567,1.076,1.063,1.952,1.501
		c0.62,0.31,1.26,0.455,1.886,0.454c1.337-0.004,2.561-0.631,3.64-1.493c1.622-1.301,2.979-3.175,3.958-4.73
		c0.975-1.557,1.559-2.796,1.564-2.81c0.149-0.316,0.014-0.693-0.303-0.841c-0.316-0.149-0.691-0.013-0.84,0.302
		c-0.001,0-0.014,0.029-0.043,0.09c-0.223,0.454-1.289,2.569-2.795,4.538c-0.752,0.982-1.613,1.926-2.51,2.604
		c-0.898,0.681-1.811,1.079-2.671,1.076c-0.437,0-0.867-0.096-1.321-0.32c-0.756-0.377-1.234-0.771-1.511-1.137
		c-0.279-0.367-0.376-0.702-0.379-1.072c-0.001-0.363,0.113-0.773,0.332-1.211c0.217-0.438,0.537-0.895,0.912-1.346
		c0.259-0.311,0.681-0.77,1.159-1.313c0.719-0.814,1.569-1.823,2.255-2.902c0.68-1.082,1.22-2.231,1.228-3.412
		c0.003-0.68-0.203-1.374-0.673-1.957c-0.47-0.583-1.17-1.048-2.111-1.396C12.361,0.067,11.957,0,11.556,0
		c-1.252,0.008-2.432,0.619-3.529,1.451C6.385,2.709,4.899,4.528,3.801,6.042c-1.095,1.512-1.792,2.716-1.799,2.73
		C1.827,9.073,1.93,9.46,2.232,9.635C2.534,9.81,2.921,9.706,3.095,9.404z"/>
	<circle fill="#FFFFFF" cx="2.549" cy="8.875" r="2.549"/>
	<circle fill="#FFFFFF" cx="21.451" cy="8.875" r="2.549"/>
</g>
</svg>
