<?xml version="1.0" encoding="utf-8"?>
<!-- Generator: Adobe Illustrator 15.1.0, SVG Export Plug-In . SVG Version: 6.00 Build 0)  -->
<!DOCTYPE svg PUBLIC "-//W3C//DTD SVG 1.1//EN" "http://www.w3.org/Graphics/SVG/1.1/DTD/svg11.dtd">
<svg version="1.1" id="Layer_1" xmlns="http://www.w3.org/2000/svg" xmlns:xlink="http://www.w3.org/1999/xlink" x="0px" y="0px"
	 width="22.984px" height="23.086px" viewBox="0 0 22.984 23.086" enable-background="new 0 0 22.984 23.086" xml:space="preserve">
<g>
	<path fill="none" stroke="#FFFFFF" stroke-width="1.9842" stroke-miterlimit="22.9256" d="M2.119,6.388h18.746
		c0.619,0,1.165,0.508,1.125,1.125l-0.188,2.925c-0.039,0.619-0.506,1.125-1.124,1.125H2.307c-0.619,0-1.086-0.508-1.125-1.125
		L0.994,7.513C0.954,6.896,1.5,6.388,2.119,6.388L2.119,6.388z M20.302,11.857l-0.375,9.111 M19.927,20.969
		c-0.038,0.614-0.508,1.125-1.125,1.125 M18.802,22.094H4.368c-0.611,0-1.086-0.508-1.124-1.125l-0.563-9.111"/>
	
		<line fill="none" stroke="#FFFFFF" stroke-width="1.9842" stroke-linecap="round" stroke-linejoin="round" stroke-miterlimit="22.9256" x1="11.491" y1="6.388" x2="11.491" y2="22.094"/>
	
		<path fill="none" stroke="#FFFFFF" stroke-width="1.9842" stroke-linecap="round" stroke-linejoin="round" stroke-miterlimit="22.9256" d="
		M11.716,5.825C6.861-5.424-2.775,6.595,11.716,5.825L11.716,5.825c11.303-0.298,4.173-8.267,0.404-1.307
		C12.003,4.732,11.802,5.577,11.716,5.825L11.716,5.825z"/>
</g>
</svg>
