<?xml version="1.0" encoding="utf-8"?>
<!-- Generator: Adobe Illustrator 15.1.0, SVG Export Plug-In . SVG Version: 6.00 Build 0)  -->
<!DOCTYPE svg PUBLIC "-//W3C//DTD SVG 1.1//EN" "http://www.w3.org/Graphics/SVG/1.1/DTD/svg11.dtd">
<svg version="1.1" id="Layer_1" xmlns="http://www.w3.org/2000/svg" xmlns:xlink="http://www.w3.org/1999/xlink" x="0px" y="0px"
	 width="48.623px" height="40.598px" viewBox="0 0 48.623 40.598" enable-background="new 0 0 48.623 40.598" xml:space="preserve">
<path fill="#B68B2D" d="M14.683,10.761c0.241,0.243,0.397,0.491,0.462,0.806c0.241,1.181-0.951,2.461-1.265,4.036
	c-0.116,0.132-0.929,1.141-0.161,2.088c-0.199,0.113-0.266,0.423-0.144,0.811c0.116,0.36,0.387,0.65,0.677,0.637
	c-0.028,0.351-0.106,0.565-0.281,0.581c-0.214,0.044-0.548-0.219-0.782-0.322c-0.137-0.054-0.195,0.01-0.195,0.01
	c0.341-0.578-0.111-0.82-0.329-0.713c0.124-0.31-0.05-0.574-0.293-0.628c0.079-0.432,0.338-0.901,0.054-1.285
	c-0.138-0.187-0.381-0.311-0.76-0.251c-0.317-0.523-1.129-0.539-1.586-0.014c-0.985,0.025-1.502,1.386-1.424,2.073
	c0.613-0.756,1.167-0.462,1.145-0.109c-0.027,0.415-0.17,0.654-0.125,1.218c0.09,1.1,0.897,1.55,0.985,2.036
	c0.06,0.335-0.778,0.374-0.778,0.374c0.465,0.589,1.275,0.943,1.858,0.879c0.557-0.063,0.869-0.385,1.056-0.648
	c0,0,0.67,0.532,0.956,0.826c0,0,0.05-0.236,0.122-0.434c-0.034,0.344,0.034,0.492,0.225,0.58c0.554,0.252,1.205,0.349,1.528,0.518
	l-0.082-0.529c0,0,0.076,0.502,0.579,0.582c0.426,0.066,1.053,0.071,1.053,0.071c-0.001,0.681-0.166,0.983-0.345,1.407
	c-0.14-0.094-0.483-0.068-0.612,0.252c-0.207-0.102-0.388,0.05-0.388,0.05c-0.53-0.274-0.966-0.815-1.562-0.683
	c-0.388,0.086-0.625,0.302-0.75,0.726c-0.641,0.142-0.684,0.95-0.428,1.437c-0.11,0.215-0.117,0.472-0.053,0.799
	c0.131,0.666,0.843,1.496,1.445,1.533c-0.318-0.629-0.045-1.135,0.403-0.851c0.254,0.162,0.471,0.343,0.866,0.497
	c1.085,0.424,2.109,0.075,2.653-0.076c0.477-0.134,0.624,0.25,0.472,0.637c0.363-0.057,1.334-0.431,1.334-1.402
	c0-0.495-0.31-0.848-0.516-0.982v-0.002c0.361-0.097,0.579-0.269,0.947-0.563c-0.163-0.012-0.328-0.049-0.516-0.118
	c0.035,0.008,0.396,0.084,0.64-0.086c0.268-0.187,0.594-0.892,0.889-1.22c-0.258,0.074-0.56,0.031-0.67,0.016
	c0,0,0.553-0.001,0.74-0.4c0.076-0.138,0.34-0.859,0.588-1.207c-0.161,0.043-0.361,0.053-0.654,0.09
	c0.312-0.084,0.555-0.135,0.712-0.586c0.106-0.304,0.254-0.735,0.33-0.879c0.267-0.035,0.591-0.132,0.896-0.258
	c0.116,0.405,0.222,1.545,1.569,1.729c1.201,0.164,1.842-0.192,2.05,0.072c0.281,0.361-0.55,0.889-0.788,1.051
	c-0.232,0.16-0.399,0.326-0.453,0.521c-0.302-0.274-0.588,0.022-0.57,0.222c-0.303-0.184-0.469,0.1-0.506,0.238
	c-0.356-0.205-0.595-0.637-1.123-0.624c-0.336,0.011-0.655,0.138-0.751,0.563c-0.669,0.037-0.868,0.719-0.646,1.195
	c-0.129,0.145-0.262,0.467-0.198,0.852c0.122,0.734,0.611,1.419,1.22,1.551c-0.3-0.65,0.013-1.098,0.382-0.895
	c0.324,0.179,0.516,0.41,1.056,0.59c0.91,0.305,1.893-0.092,2.231-0.164c0.42-0.092,0.816,0.119,0.657,0.781
	c0.547-0.112,0.959-0.362,1.155-0.862c0.24-0.606,0.002-1.261-0.65-1.528l0.002-0.003c0.159-0.024,0.494,0.011,0.782,0.022
	l-0.389-0.31c0.252,0.13,0.485,0.239,0.744,0.164c0.063-0.017,0.148-0.052,0.251-0.097c-0.009,0.023-0.017,0.05-0.024,0.076
	c-0.119,0.422,0.051,0.763,0.336,0.959c-0.175,0.834,0.902,1.818,1.862,1.818c-0.461-0.434-0.22-1.111,0.304-0.951
	c0.31,0.094,0.703,0.277,1.151,0.303c1.106,0.059,1.692-0.368,2.132-0.563c0.384-0.17,0.431,0.283,0.361,0.662
	c0.79-0.214,1.474-0.854,1.334-1.824c-0.046-0.314-0.266-0.722-0.599-0.945c0.1-0.092,0.207-0.213,0.313-0.377
	c-0.18-0.021-0.462-0.076-0.462-0.076c0.099,0.006,0.438,0.002,0.69-0.391c0.287-0.443,0.302-0.718,0.537-1.148
	c-0.205,0.005-0.52,0.006-0.52,0.006c0.378-0.057,0.548-0.204,0.65-0.561c0.184-0.631,0.396-1.234,0.396-1.234l-0.529,0.154
	c0.332-0.137,0.481-0.319,0.549-0.795c0.114-0.796,0.205-1.147,0.205-1.147l-0.479,0.189c0.005-0.002,0.318-0.151,0.34-0.643
	c0.04-0.892,0.135-1.43,0.135-1.43c-0.399,0.206-0.676,0.324-0.676,0.324c0.313-0.363,0.614-1.612,0.035-2.402
	c-0.816,1.322-2.319,1.005-2.693,1.787c-0.093,0.193-0.125,0.516,0.058,0.777c-0.108,0.064-0.179,0.093-0.238,0.148
	c-0.769-0.723-0.023-1.839,0.13-2.433c0.144-0.546,0.149-0.974,0.096-1.3c0.188,0.04,0.347,0.062,0.447,0.068
	c-0.192-0.293-0.175-0.797-0.288-1.318c-0.051-0.356-0.256-0.718-0.727-0.799c0.046-0.127,0-0.329-0.166-0.376
	c1.596-0.826,2.316-3.694,0.608-5.132c-2.142-1.804-6.179,1.015-7.972,1.136c-1.825,0.123-2.049-1.598-1.435-2.243
	c0.477-0.5,1.214-0.623,1.51-0.576c-0.038,0.454,0.251,1.423,1.438,1.415c2.989-0.025,3.901-4.879,3.399-6.154
	c-1.13,2.14-2.002,2.73-4.596,2.915c-5.707,0.406-4.54,6.352-0.8,6.457c2.284,0.065,5.991-2.636,7.128-1.386
	c0.528,0.583,0.042,1.468-0.831,1.833c-0.085-0.207-0.359-0.249-0.521-0.07c-0.241-0.415-0.761-0.447-1.982-0.704
	c0.025,0.129,0.044,0.255,0.058,0.377c-0.478,0.062-1.011,0.144-1.229,0.61c0.055-0.269,0.153-0.456,0.177-0.528
	c-0.916,0.539-1.655,0.345-1.967,1.023c-0.012-0.007-0.022-0.014-0.033-0.021c0.019-0.242,0.069-0.459,0.069-0.459
	c-0.143,0.101-0.278,0.179-0.411,0.246c-0.304-0.179-0.639-0.347-1.009-0.496c0.091,0.286,0.164,0.556,0.225,0.815
	c-0.266,0.11-0.469,0.234-0.584,0.504c0.009-0.052,0.111-0.327,0.195-0.552c-0.764,0.407-1.377,0.084-1.767,0.692
	c0.045-0.08,0.146-0.322,0.243-0.454c-0.721,0.174-1.226-0.135-1.744,0.254c0,0,0.226-0.248,0.399-0.316
	c-0.504-0.046-1.129-0.32-1.129-0.32c0.076-0.264,0.12-0.398,0.191-0.649c0,0-0.447-0.349-0.709-0.495c0,0,0.18-0.032,0.363-0.018
	c-0.209-0.153-0.32-0.753-0.783-0.981c0.192-0.106,0.352-0.274,0.496-0.581c0.303-0.651,0.401-1.707,0.051-2.863
	c-0.312-1.026-0.784-1.484-0.784-1.484c-0.091,0.741-0.41,1.451-0.9,2.067c-0.013-0.349-0.357-1.02-0.721-1.247
	c0.119,0.019,0.445-0.079,0.445-0.079c-0.55-0.22-0.779-1.031-1.196-1.373c-0.27-0.221-0.628-0.371-1.058-0.344
	c-0.1-0.446-0.192-0.956-0.202-1.154c-0.021-0.393-0.008-0.797,0.194-1.279c-0.589,0.216-1.122,0.537-1.423,0.814
	C15.501,1.765,14.255,1.638,14.087,0c-1.04,0.93-1.291,2.348-1.291,2.348c-0.572-0.793-1.313-1.112-1.745-1.256
	c0.131,0.571-0.135,1.387-0.467,1.825c-0.233,0.308-0.418,0.533-0.563,0.814c0.006-0.195-0.045-0.359-0.081-0.449
	C9.761,3.849,9.094,4.176,8.713,4.549C8.382,4.874,8.237,5.183,8.24,5.569L8.049,5.147C8.003,5.488,7.689,6.216,7.615,6.7
	C7.508,7.405,7.82,8.138,8.482,8.663C8.261,8.678,8.069,8.722,7.958,8.726C7.496,8.744,7.374,8.162,6.856,8.237
	C7.088,8.59,6.53,9.456,7.033,9.955C6.907,9.947,6.787,9.863,6.63,9.796c0.113,0.318,0.189,0.747,0.322,1.027
	c0.258,0.542,0.526,0.526,0.641,0.603c-0.02,0.094-0.007,0.571-0.613,0.248c-0.509-0.27-0.822,0.201-0.921,0.376
	c0.52,0.033,0.777,0.678,1.29,0.932c0.463,0.231,1.03,0.22,1.364-0.179c0.213,0.278,0.657,0.254,0.778-0.014
	c0.138,0.044,0.329,0.02,0.373-0.184c0.013-0.064,0.016-0.127,0.016-0.194c0.382,0.161,0.863,0.191,1.097,0.156
	c-0.133-0.192-0.487-0.646-0.589-1.007c0.302-0.216,0.675-0.473,0.867-0.816c0.041-0.072,0.076-0.149,0.11-0.23
	c0.475,1.346-0.639,1.428-0.113,2.162c0.23-0.35,0.646-0.326,0.928-0.628c0.393-0.421,0.251-0.937,0.424-1.058
	c-0.005,0.15-0.011,0.278-0.008,0.367c0.016,0.373,0.123,0.672,0.169,0.961c-0.263,0.157-0.775,0.255-1.054,0.306
	c0.27,0.348,0.737,0.546,0.879,0.618c-0.023,0.126,0.01,0.241,0.101,0.294c0.169,0.101,0.41,0.093,0.574-0.041
	c0.481,0.153,0.874,0.083,1.088-0.114c0.631-0.586,0.079-1.512-0.059-2.558C14.425,10.807,14.555,10.786,14.683,10.761
	 M32.99,25.786c-0.25-0.138-0.5,0.067-0.462,0.306c-0.178-0.119-0.39-0.016-0.45,0.152c-0.207-0.07-0.519-0.254-0.794-0.361
	c0.139-0.205,0.263-0.438,0.505-0.685l-0.657-0.081c0.128,0.012,0.664,0.079,0.906-0.391c0.121-0.231,0.302-0.57,0.533-0.901
	l-0.542,0.032c0.27-0.047,0.387-0.119,0.495-0.385c0.093-0.226,0.195-0.545,0.253-0.728c0.486,0.194,0.493,0.461,0.503,0.794
	C33.311,24.684,32.719,25.158,32.99,25.786"/>
<path fill="#010101" d="M14.684,10.76c0.24,0.244,0.397,0.492,0.461,0.807c0.241,1.181-0.951,2.461-1.265,4.036
	c-0.115,0.132-0.929,1.141-0.161,2.088c-0.199,0.112-0.265,0.423-0.144,0.811c0.116,0.36,0.387,0.65,0.677,0.636
	c-0.027,0.351-0.106,0.566-0.281,0.581c-0.214,0.045-0.548-0.218-0.782-0.321c-0.137-0.054-0.194,0.009-0.194,0.009
	c0.34-0.577-0.112-0.819-0.33-0.712c0.124-0.31-0.049-0.574-0.293-0.628c0.08-0.432,0.338-0.901,0.054-1.286
	c-0.138-0.186-0.381-0.311-0.76-0.251c-0.316-0.522-1.128-0.538-1.586-0.013c-0.985,0.025-1.501,1.386-1.424,2.073
	c0.613-0.756,1.167-0.462,1.145-0.109c-0.027,0.415-0.17,0.654-0.125,1.218c0.091,1.1,0.898,1.55,0.986,2.036
	c0.059,0.335-0.779,0.374-0.779,0.374c0.466,0.589,1.275,0.943,1.859,0.879c0.556-0.063,0.868-0.385,1.055-0.648
	c0,0,0.67,0.533,0.956,0.826c0,0,0.051-0.236,0.122-0.434c-0.034,0.344,0.035,0.492,0.225,0.58c0.554,0.252,1.206,0.35,1.528,0.518
	l-0.082-0.529c0,0,0.076,0.502,0.579,0.582c0.426,0.066,1.054,0.072,1.054,0.072c-0.002,0.68-0.166,0.983-0.346,1.406
	c-0.14-0.093-0.482-0.068-0.611,0.252c-0.208-0.102-0.389,0.051-0.389,0.051c-0.529-0.275-0.966-0.816-1.562-0.684
	c-0.388,0.087-0.625,0.301-0.75,0.727c-0.641,0.141-0.684,0.949-0.428,1.436c-0.11,0.216-0.117,0.472-0.053,0.799
	c0.131,0.666,0.843,1.497,1.445,1.533c-0.318-0.629-0.045-1.135,0.403-0.85c0.255,0.162,0.471,0.342,0.866,0.496
	c1.085,0.424,2.109,0.075,2.653-0.076c0.477-0.133,0.624,0.25,0.472,0.637c0.363-0.057,1.334-0.43,1.334-1.402
	c0-0.495-0.31-0.848-0.516-0.982v-0.002c0.362-0.097,0.579-0.269,0.947-0.562c-0.163-0.015-0.328-0.05-0.516-0.119
	c0.035,0.009,0.396,0.084,0.64-0.086c0.268-0.187,0.594-0.892,0.889-1.219c-0.258,0.073-0.559,0.03-0.67,0.014
	c0,0,0.553-0.001,0.74-0.399c0.077-0.139,0.34-0.859,0.588-1.207c-0.161,0.043-0.361,0.053-0.654,0.09
	c0.313-0.084,0.555-0.135,0.712-0.586c0.106-0.303,0.254-0.735,0.33-0.879c0.268-0.035,0.591-0.131,0.897-0.258
	c0.115,0.405,0.221,1.545,1.568,1.729c1.201,0.164,1.842-0.191,2.05,0.072c0.281,0.361-0.55,0.889-0.788,1.052
	c-0.232,0.159-0.399,0.325-0.454,0.521c-0.301-0.275-0.587,0.022-0.569,0.221c-0.304-0.184-0.47,0.1-0.506,0.238
	c-0.356-0.205-0.595-0.637-1.124-0.623c-0.336,0.01-0.655,0.135-0.751,0.563c-0.669,0.038-0.868,0.718-0.646,1.195
	c-0.129,0.145-0.262,0.468-0.197,0.852c0.122,0.732,0.61,1.419,1.219,1.55c-0.3-0.649,0.013-1.097,0.382-0.893
	c0.324,0.178,0.516,0.409,1.056,0.59c0.91,0.303,1.893-0.093,2.231-0.165c0.42-0.092,0.816,0.12,0.656,0.781
	c0.548-0.112,0.959-0.362,1.156-0.862c0.24-0.606,0.003-1.261-0.65-1.528l0.002-0.002c0.158-0.027,0.494,0.01,0.782,0.021
	l-0.389-0.309c0.252,0.129,0.485,0.237,0.744,0.164c0.062-0.018,0.148-0.053,0.251-0.098c-0.009,0.023-0.017,0.049-0.024,0.076
	c-0.119,0.422,0.051,0.763,0.335,0.959c-0.174,0.835,0.903,1.818,1.863,1.818c-0.461-0.434-0.22-1.111,0.304-0.951
	c0.31,0.095,0.703,0.277,1.151,0.303c1.106,0.059,1.692-0.368,2.132-0.563c0.383-0.17,0.431,0.282,0.361,0.662
	c0.79-0.215,1.475-0.853,1.334-1.824c-0.046-0.314-0.266-0.721-0.599-0.944c0.1-0.093,0.207-0.214,0.313-0.377
	c-0.18-0.021-0.462-0.077-0.462-0.077c0.099,0.005,0.437,0.002,0.69-0.391c0.286-0.443,0.302-0.717,0.536-1.148
	c-0.204,0.004-0.519,0.005-0.519,0.005c0.378-0.056,0.548-0.202,0.65-0.56c0.184-0.631,0.396-1.234,0.396-1.234l-0.529,0.155
	c0.332-0.138,0.481-0.321,0.549-0.796c0.114-0.796,0.204-1.148,0.204-1.148l-0.479,0.19c0.005-0.002,0.318-0.152,0.34-0.643
	c0.04-0.892,0.135-1.43,0.135-1.43c-0.399,0.206-0.676,0.324-0.676,0.324c0.313-0.363,0.614-1.612,0.035-2.403
	c-0.816,1.323-2.319,1.005-2.693,1.788c-0.093,0.193-0.125,0.516,0.058,0.777c-0.108,0.064-0.18,0.093-0.238,0.148
	c-0.769-0.723-0.024-1.839,0.13-2.433c0.144-0.547,0.149-0.974,0.095-1.3c0.188,0.04,0.348,0.062,0.448,0.067
	c-0.192-0.293-0.175-0.797-0.287-1.318c-0.052-0.355-0.257-0.717-0.728-0.798c0.046-0.127,0-0.329-0.166-0.376
	c1.596-0.826,2.316-3.694,0.607-5.132c-2.141-1.804-6.178,1.015-7.971,1.136c-1.825,0.123-2.049-1.599-1.435-2.244
	c0.477-0.5,1.214-0.622,1.51-0.575c-0.038,0.454,0.251,1.423,1.438,1.415c2.989-0.025,3.901-4.879,3.399-6.154
	c-1.13,2.14-2.002,2.73-4.596,2.915c-5.707,0.406-4.54,6.352-0.8,6.457c2.284,0.065,5.991-2.636,7.128-1.386
	c0.529,0.583,0.042,1.468-0.831,1.833c-0.085-0.207-0.359-0.249-0.521-0.07c-0.241-0.416-0.761-0.447-1.982-0.704
	c0.025,0.129,0.044,0.255,0.058,0.377c-0.479,0.061-1.011,0.144-1.229,0.61c0.055-0.269,0.153-0.456,0.177-0.529
	c-0.916,0.54-1.655,0.346-1.968,1.024c-0.011-0.007-0.021-0.014-0.032-0.021c0.019-0.242,0.069-0.459,0.069-0.459
	c-0.143,0.101-0.278,0.179-0.412,0.245c-0.303-0.178-0.638-0.346-1.007-0.496c0.089,0.287,0.163,0.557,0.224,0.816
	c-0.265,0.11-0.469,0.234-0.584,0.504c0.009-0.052,0.111-0.327,0.195-0.552c-0.764,0.407-1.376,0.084-1.767,0.692
	c0.045-0.08,0.146-0.322,0.243-0.454c-0.721,0.174-1.225-0.135-1.744,0.254c0,0,0.227-0.248,0.399-0.316
	c-0.503-0.046-1.128-0.32-1.128-0.32c0.075-0.264,0.12-0.399,0.19-0.65c0,0-0.447-0.348-0.709-0.494c0,0,0.18-0.032,0.363-0.018
	c-0.209-0.154-0.32-0.754-0.783-0.981c0.192-0.106,0.353-0.275,0.496-0.581c0.303-0.652,0.402-1.707,0.051-2.863
	c-0.312-1.026-0.784-1.484-0.784-1.484c-0.091,0.741-0.41,1.451-0.9,2.067c-0.013-0.35-0.357-1.02-0.72-1.247
	c0.118,0.018,0.444-0.079,0.444-0.079c-0.55-0.22-0.778-1.031-1.196-1.373c-0.269-0.221-0.628-0.371-1.057-0.344
	c-0.101-0.446-0.193-0.957-0.203-1.154c-0.021-0.393-0.008-0.797,0.194-1.28c-0.589,0.217-1.122,0.538-1.423,0.815
	C15.501,1.765,14.255,1.638,14.087,0c-1.04,0.93-1.291,2.347-1.291,2.347c-0.571-0.793-1.313-1.111-1.745-1.255
	c0.132,0.571-0.135,1.387-0.467,1.825c-0.233,0.308-0.418,0.532-0.563,0.814c0.006-0.195-0.045-0.359-0.081-0.45
	C9.761,3.849,9.094,4.176,8.713,4.549C8.382,4.875,8.237,5.183,8.24,5.569L8.049,5.147C8.003,5.488,7.689,6.216,7.615,6.7
	C7.508,7.405,7.82,8.138,8.482,8.664c-0.22,0.014-0.413,0.059-0.524,0.063C7.497,8.745,7.374,8.163,6.856,8.237
	C7.088,8.59,6.53,9.457,7.033,9.956C6.907,9.947,6.788,9.863,6.63,9.796c0.114,0.318,0.189,0.747,0.322,1.027
	c0.258,0.541,0.526,0.526,0.641,0.603c-0.02,0.094-0.007,0.571-0.613,0.248c-0.508-0.27-0.822,0.201-0.921,0.376
	c0.521,0.033,0.777,0.678,1.291,0.932c0.462,0.231,1.029,0.22,1.363-0.18c0.213,0.279,0.658,0.255,0.778-0.013
	c0.138,0.044,0.329,0.02,0.373-0.184c0.013-0.064,0.016-0.127,0.016-0.194c0.382,0.161,0.864,0.191,1.097,0.156
	c-0.133-0.192-0.486-0.647-0.589-1.007c0.302-0.217,0.675-0.473,0.867-0.816c0.041-0.072,0.076-0.15,0.11-0.23
	c0.475,1.346-0.639,1.428-0.113,2.162c0.23-0.351,0.646-0.326,0.928-0.628c0.393-0.421,0.252-0.937,0.424-1.058
	c-0.005,0.149-0.011,0.278-0.007,0.367c0.015,0.373,0.122,0.672,0.168,0.961c-0.263,0.157-0.775,0.255-1.054,0.306
	c0.27,0.348,0.737,0.546,0.879,0.618c-0.023,0.125,0.01,0.241,0.101,0.294c0.169,0.1,0.411,0.093,0.575-0.041
	c0.481,0.153,0.873,0.083,1.087-0.114c0.631-0.586,0.079-1.512-0.059-2.559C14.425,10.806,14.556,10.787,14.684,10.76 M7.974,7.461
	C7.845,7.04,7.885,6.545,8.113,5.924C8.18,6.2,8.507,6.574,8.694,6.673c-0.231-0.406-0.221-0.871-0.2-1.096
	c0.088-0.931,1.016-1.194,1.33-1.629c-0.01,0.315,0.042,0.609,0.224,0.943c-0.037-0.566,0.216-1.102,0.645-1.646
	c0.211-0.266,0.65-0.842,0.668-1.742c0.649,0.291,1.544,0.963,1.441,2.086c-0.08,0.878-0.704,0.92-1.028,0.829
	c-0.554-0.156-0.542-0.866-0.142-1.032c0.341-0.141,0.583,0.099,0.618,0.256c0.103-0.346-0.331-0.617-0.714-0.456
	c-0.572,0.242-0.638,1.084-0.007,1.408c-1.188,0.482-2.03,1.549-2.117,2.743c-0.051,0.693,0.15,1.352,0.534,1.909
	C9.918,9.473,9.914,9.693,9.802,9.926c-0.05-0.388-0.156-0.659-0.293-0.85l0.002,0.001C9.09,8.479,8.492,8.709,7.974,7.461
	 M13.43,7.907c0.063-0.616-0.304-1.02-0.42-1.345c-0.108-0.298-0.085-0.574-0.085-0.574s-0.344,0.139-0.419,0.825
	c-0.061,0.554-0.331,0.693-0.331,0.693s-0.062-0.086-0.178-0.201c-0.035-0.135-0.051-0.276-0.039-0.422
	c0.057-0.738,0.74-1.288,1.523-1.228c0.784,0.063,1.373,0.71,1.316,1.449c-0.022,0.279-0.134,0.529-0.306,0.731
	c-0.191-0.487-0.555-0.73-0.726-0.859C13.829,7.362,13.568,7.814,13.43,7.907 M14.396,9.614c0.222-0.619,0.251-1.099,0.182-1.47
	c0.288-0.272,0.463-0.63,0.493-1.019c0.07-0.888-0.634-1.671-1.568-1.743c-0.468-0.038-0.919,0.106-1.267,0.404
	c-0.324,0.278-0.52,0.66-0.552,1.075c-0.005,0.064-0.005,0.126-0.003,0.189c-0.201-0.132-0.458-0.248-0.761-0.267
	c0.29,0.59-0.105,1.097-0.419,1.432c-0.112-0.285-0.17-0.592-0.163-0.913c0.029-1.404,1.541-2.515,2.825-2.488
	c1.577,0.033,2.748,1.2,2.718,2.606c-0.019,0.96-0.62,1.784-1.487,2.2C14.395,9.62,14.396,9.617,14.396,9.614 M10.062,7.297
	c-0.009,0.401,0.076,0.785,0.232,1.133c-0.029,0.032-0.053,0.059-0.072,0.084c-0.091,0.122-0.15,0.237-0.191,0.348
	c-0.255-0.455-0.38-0.969-0.346-1.506c0.101-1.542,1.79-3.069,3.518-2.775C10.974,4.7,10.082,6.313,10.062,7.297 M7.267,10.914
	c-0.209-0.265-0.243-0.572-0.319-0.799c0.281,0.134,0.532,0.182,0.81,0.175c-1.092-0.58-0.516-1.331-0.609-1.718
	c0.736,0.993,1.688-0.19,2.198,0.798C9.264,9.314,9.171,9.272,9.069,9.249c-0.498-0.117-1.005,0.231-1.134,0.776
	c-0.119,0.511,0.137,1.015,0.58,1.173C8.056,11.293,7.512,11.222,7.267,10.914 M9.511,10.395c-0.097,0.414-0.478,0.68-0.85,0.593
	s-0.594-0.494-0.497-0.909c0.098-0.415,0.478-0.68,0.85-0.593C9.385,9.572,9.609,9.979,9.511,10.395 M10.605,12.389
	c-0.323-0.039-0.516-0.105-0.714-0.214c0.01-0.074,0.028-0.15,0.071-0.232c0.042-0.075,0.122-0.153,0.229-0.237
	C10.336,12.039,10.605,12.389,10.605,12.389 M12.285,11.144c-0.049,1.006-0.608,0.858-0.947,1.153
	c-0.061-0.299,0.445-0.536,0.355-1.275c-0.053-0.436-0.177-0.906-0.015-1.212c0.04-0.061,0.087-0.119,0.136-0.16
	C11.896,9.582,12,9.542,12.123,9.555c0.274,0.031,0.399,0.276,0.453,0.581C12.622,10.694,12.307,10.655,12.285,11.144
	 M12.669,13.039c-0.209-0.069-0.484-0.21-0.571-0.308c0.176-0.023,0.532-0.097,0.688-0.159
	C12.784,12.721,12.751,12.875,12.669,13.039 M13.227,13.16c-0.057,0.122-0.231,0.267-0.36,0.21
	c-0.078-0.034-0.056-0.123,0.048-0.325c0.279-0.536-0.066-1.105-0.099-1.601c-0.037-0.496,0.254-2.008-0.598-2.146
	c-0.961-0.156-0.888,1.173-1.473,1.707c-0.43,0.442-0.988,0.506-1.067,1.138c-0.026,0.133,0.06,0.396-0.075,0.42
	c-0.063,0.012-0.116-0.013-0.171-0.149c-0.132-0.328-0.041-0.678,0.146-0.865c0.187-0.188,0.776-0.5,1.031-1.119
	c0.283-0.681,0.828-1.746,1.718-1.587c1.111,0.2,0.75,1.973,0.818,2.5C13.242,12.076,13.481,12.6,13.227,13.16 M14.285,13.004
	c-0.246,0.458-0.796,0.223-0.796,0.223c0.283-0.769-0.037-1.203-0.095-2.142c-0.045-0.763,0.257-2.249-0.97-2.493
	c-1.556-0.309-1.794,1.708-2.338,2.228c-0.395,0.378-0.881,0.63-0.927,1.117c-0.042,0.448,0.068,0.534,0.152,0.714
	c-0.01,0.189-0.385,0.266-0.495-0.08c0.12-0.374-0.039-0.707-0.372-0.754c-0.408-0.058-0.619,0.348-0.462,0.589
	c-0.01-0.106,0.14-0.482,0.462-0.377c0.208,0.067,0.241,0.325,0.145,0.51c-0.297,0.58-1.109,0.437-1.592-0.091
	c-0.171-0.187-0.281-0.384-0.624-0.505c0.398-0.466,1.061,0.477,1.341-0.05c0.358-0.674,0.835-0.209,1.575-0.779
	c1.176-0.902,0.657-1.998,1.242-2.563c0.442-0.426,0.735-0.745,0.742-1.435c0,0,0.675,0.232,0.79,0.869c0,0,0.711-0.435,0.712-1.339
	c0,0,0.727,1.094,0.292,1.724c0,0,0.63-0.071,0.89-0.896c0.474,0.511,0.542,1.054,0.153,2.191
	C13.676,10.938,14.647,12.327,14.285,13.004 M17.286,8.105c-0.009,0.532-0.82,2.205-3.019,2.404
	c-0.006-0.18,0.004-0.363,0.037-0.548c1.069-0.42,1.829-1.392,1.853-2.536c0.026-1.207-0.784-2.255-1.967-2.683
	c0.361-0.139,0.537-0.479,0.556-0.726c0.034-0.452-0.264-0.901-0.799-0.827C13.68,3.225,13.4,3.505,13.5,3.763
	c0.029-0.195,0.235-0.363,0.503-0.359c0.752,0.011,0.613,1.318-0.318,1.134c-0.381-0.075-0.56-0.283-0.637-0.914
	c-0.07-0.569-0.015-1.131,0.111-1.59c0.217-0.786,0.57-1.208,0.754-1.474c0.304,1.309,1.533,1.559,1.512,2.594
	c-0.886,1.156-0.408,1.815-0.063,2.002c0.434,0.236,0.844,0.099,0.998-0.299c0.095-0.246-0.027-0.477-0.16-0.584
	c-0.132-0.106-0.392-0.125-0.526,0.034c0.64-0.076,0.585,0.593,0.246,0.701c-0.178,0.056-0.452,0.038-0.639-0.303
	c-0.151-0.271-0.132-0.927,0.431-1.461c0.352-0.396,0.971-0.67,0.971-0.67c-0.194,0.921,0.172,1.679,0.265,2.541
	c0.061,0.582-0.218,1.181-0.516,1.571c0.627-0.203,0.778-1.104,0.778-1.104c0.221,0.231,0.768,2.286-0.885,2.849
	C16.595,8.463,16.971,8.403,17.286,8.105 M9.299,10.196c0.014-0.032,0.023-0.063,0.03-0.095l0.027,0.029
	c0.009,0.073,0.005,0.148-0.012,0.225c-0.073,0.312-0.36,0.511-0.639,0.446c-0.28-0.065-0.448-0.372-0.374-0.684
	c0.07-0.297,0.332-0.491,0.597-0.454l0.026,0.028c-0.109,0.023-0.21,0.101-0.265,0.217c-0.089,0.189-0.024,0.405,0.144,0.485
	C9.002,10.472,9.211,10.384,9.299,10.196 M34.593,17.414c-0.195,0.537-0.982,2,0.172,2.848c0.508-0.556,1.248-0.526,1.48,0.075
	c0.238,0.617,0.009,2.266-0.188,3.25c-0.44,2.19-1.47,2.758-2.366,2.404c-0.564-0.222-0.483-0.578-0.393-0.842
	c0.334-0.973,0.352-1.704,0.221-2.027c-0.232-0.791-1.015-0.603-2.155-1.031c-1.672-0.681-2.653-1.56-2.857-3.325
	c-0.106-0.919-0.018-1.641,0.048-2.327c0.454-0.16,0.674-0.632,0.622-1.204c-0.037-0.41-0.255-0.917-0.668-1.433
	c0.861-0.265,1.752-0.427,2.729-0.295c0.019,0.004,0.034,0.009,0.053,0.014c-0.237,0.734,0.101,1.283,0.044,1.835
	c0.568-0.165,1.407,0.287,1.932-0.229c0.2,0.463,0.833,0.756,1.387,0.917C34.75,16.412,34.785,16.887,34.593,17.414 M32.99,25.787
	c-0.25-0.138-0.5,0.066-0.462,0.305c-0.178-0.119-0.39-0.016-0.45,0.152c-0.207-0.07-0.519-0.254-0.794-0.361
	c0.139-0.205,0.263-0.438,0.505-0.685l-0.657-0.081c0.128,0.012,0.664,0.079,0.906-0.39c0.121-0.231,0.302-0.572,0.533-0.903
	l-0.542,0.033c0.27-0.047,0.387-0.119,0.495-0.387c0.093-0.223,0.196-0.543,0.253-0.725c0.486,0.193,0.492,0.461,0.503,0.793
	C33.31,24.685,32.719,25.157,32.99,25.787 M32.848,26.694c1.066,1.052,2.788,0.38,2.788,0.38c-0.359,0.393-1.064,0.635-1.642,0.564
	c-0.858-0.106-1.333-0.467-1.584-0.95c-0.08-0.151-0.116-0.334,0-0.374C32.55,26.258,32.662,26.512,32.848,26.694 M28.238,18.76
	c0.138,1.283,0.576,2.567,2.755,3.365c-0.589-0.183-2.934-0.796-3.118-3.359c-0.028-0.384-0.031-1.848,0.035-2.286
	c0.079,0.02,0.269,0.027,0.346,0.023C28.221,16.998,28.139,18.091,28.238,18.76 M33.096,12.149c1.023-0.583,1.29-1.567,0.676-2.257
	c-1.234-1.389-5.101,1.354-7.25,1.35c-3.363-0.003-4.632-5.533,0.72-5.866c3.11-0.194,3.803-1.369,4.453-2.397
	c0.094,0.872-0.704,4.702-2.91,5.016c-0.88,0.125-1.405-0.286-1.453-0.93c-0.031-0.36,0.222-0.786,0.608-0.873
	c0.298-0.067,0.87-0.023,0.854,0.694c0.427-0.501-0.214-1.185-0.948-0.983c-0.321,0.087-0.611,0.265-0.781,0.688
	c-0.412-0.02-1.405,0.146-1.911,0.79c-0.646,0.823-0.304,2.694,1.721,2.618c1.825-0.069,5.971-2.908,7.905-1.148
	c1.061,0.968,1.111,2.931-0.087,4.174c-0.282,0.29-0.706,0.624-1.192,0.402c-0.383-0.172-0.526-0.483-0.582-0.77
	C32.844,12.26,32.951,12.232,33.096,12.149 M32.309,12.288c0.027-0.139,0.063-0.21,0.15-0.204c0.101,0.007,0.136,0.086,0.146,0.198
	c0.027,0.342,0.012,0.541,0.305,0.992c0.16,0.247,0.612,0.561,1.073,0.562c0.139,0.011,0.188,0.052,0.203,0.126
	c0.004,0.076-0.021,0.161-0.144,0.183C33.388,14.3,32.064,13.481,32.309,12.288 M32.077,12.123c0,0-0.222,0.95,0.366,1.584
	c0.579,0.625,1.414,0.828,1.811,0.624c0.826-0.087,0.686,1.067,0.83,1.571c0,0-1.591-0.315-1.752-1.248
	c-0.487,0.71-1.153,0.327-1.71,0.39c-0.021-0.5-0.361-1.048,0.128-1.811c-1.424,0.201-1.087-1.362-1.194-1.7
	C31.404,11.69,31.822,11.734,32.077,12.123 M30.703,13.239c-0.816-0.056-1.595,0.115-2.364,0.364
	c-0.087-0.097-0.182-0.194-0.281-0.29c0.825-0.284,1.626-0.497,2.403-0.456C30.511,13.004,30.587,13.132,30.703,13.239
	 M28.918,12.042c0,0-0.038,0.297,0.041,0.555c0.407-0.71,0.823-0.747,1.354-0.801c0.028,0.32,0.041,0.61,0.091,0.859
	c-0.85-0.043-1.696,0.183-2.546,0.477c-0.138-0.119-0.288-0.236-0.447-0.351C27.819,12.232,28.341,12.341,28.918,12.042
	 M28.89,15.243c0.056,0.495-0.232,0.958-0.72,0.952c-0.397-0.004-0.777-0.2-0.842-0.645c-0.061-0.402,0.418-0.847,0.916-0.527
	c-0.085-0.437-1.034-0.454-1.187,0.343c-0.058,0.299,0.076,0.785,0.594,1.033c-0.051,0.699-0.086,1.813-0.031,2.36
	c0.184,1.914,1.062,2.913,3.323,3.584c0.562,0.166,1.241,0.25,1.241,0.25c-3.199,0.072-5.951-1.899-5.634-5.63
	c0.209-2.459,0.087-3.384-0.254-4.57C27.07,12.794,28.738,13.914,28.89,15.243 M23.941,20.82c0.137,0.202,0.291,0.398,0.434,0.553
	c-0.093,0.067-0.19,0.128-0.287,0.188c-0.136-0.135-0.32-0.364-0.438-0.581C23.745,20.935,23.843,20.882,23.941,20.82
	 M22.777,21.004c0.029-0.11,0.054-0.211,0.069-0.276c1.241-0.297,2.194-1.658,3.461-2.199c0.015,0.09,0.029,0.178,0.047,0.264
	c-0.682,0.303-1.282,0.822-1.989,1.436C23.965,20.579,23.473,20.907,22.777,21.004 M24.16,20.674
	c0.085-0.062,0.171-0.128,0.258-0.204c0.112-0.097,0.218-0.187,0.319-0.273c0.117,0.229,0.249,0.415,0.39,0.557
	c-0.18,0.159-0.358,0.316-0.545,0.463C24.424,21.079,24.288,20.876,24.16,20.674 M24.939,20.025
	c0.087-0.072,0.168-0.139,0.247-0.203c0.103,0.219,0.242,0.4,0.386,0.54c-0.085,0.074-0.169,0.147-0.254,0.221
	C25.167,20.447,25.042,20.229,24.939,20.025 M25.395,19.655c0.216-0.167,0.402-0.302,0.574-0.411
	c0.053,0.172,0.146,0.421,0.266,0.611c-0.16,0.109-0.313,0.221-0.46,0.34C25.612,20.055,25.493,19.876,25.395,19.655 M26.188,19.111
	c0.072-0.041,0.144-0.076,0.214-0.109c0.054,0.222,0.122,0.433,0.198,0.633c-0.058,0.032-0.116,0.064-0.173,0.098
	C26.308,19.539,26.232,19.295,26.188,19.111 M22.162,16.459c0.13,0.405,0.054,0.795,0.054,0.795
	c-0.875,0.21-1.595,0.089-2.074-0.293c0.04,0.031,0.278,0.644,0.081,1.053c-0.453-0.368-0.919-0.336-1.101-0.9
	c0.206-0.168,0.526-0.467,0.692-0.654c0.487,0.384,1.379,0.313,1.762,0.259c-0.018-0.449-0.161-1.403-0.77-1.671
	c0.091-0.18,0.261-0.495,0.34-0.689c1,0.402,1.012,1.108,1.188,1.396c-0.264,0.065-0.441,0.066-0.662,0.019
	C21.832,15.89,22.036,16.063,22.162,16.459 M20.012,16.236c0.239-0.276,0.514-0.689,0.672-0.963c0.42,0.243,0.57,0.699,0.615,1.218
	C20.982,16.55,20.23,16.512,20.012,16.236 M21.237,14.087c0.055-0.146,0.074-0.199,0.112-0.307c1.718,1.042,3.377,0.702,4.961,0.161
	c0.017,0.132,0.027,0.262,0.035,0.39C24.766,14.892,23.137,15.24,21.237,14.087 M22.376,13.009c-0.108,0.187-0.166,0.339-0.241,0.56
	c0.77-0.578,1.22-0.3,1.687-0.351c0,0-0.086,0.396-0.036,0.697c0.488-0.884,0.94-0.611,1.624-0.833c0,0-0.11,0.335,0.009,0.692
	c0.224-0.473,0.48-0.67,0.741-0.787c0.054,0.248,0.095,0.486,0.126,0.716c-1.569,0.55-3.173,0.91-4.859-0.16
	c0.11-0.319,0.238-0.753,0.238-0.753S22.121,12.943,22.376,13.009 M21.714,11.982c-0.718,2.281-1.394,4.987-6.01,6.577
	c0.066-0.055,0.348-0.521,0.663-0.727c-0.343-0.027-0.7-0.175-0.7-0.175c1.348-0.361,2.654-0.902,3.665-1.884
	c1.074-1.045,1.89-2.798,2.248-3.875L21.714,11.982z M21.298,11.72l0.145,0.093c-0.301,0.773-1.042,2.656-2.285,3.791
	c-1.168,1.069-2.039,1.352-3.939,1.908c-0.18-0.047-0.344-0.027-0.435,0.016c0.099-0.245,0.076-0.483-0.061-0.713
	c1.875-0.393,2.641-0.646,4.028-1.676C20.349,13.972,21.298,11.72,21.298,11.72 M15.41,11.55c-0.029-0.119-0.064-0.226-0.104-0.323
	l0.322-0.063c0.034,0.086,0.063,0.175,0.09,0.27c0.073,0.268,0.062,0.561,0.004,0.873l-0.33,0.028
	C15.453,12.052,15.467,11.785,15.41,11.55 M17.602,8.051c0.172,0.254,0.388,0.627,0.585,1.143c0,0-2.517,3.058-0.538,6.39
	c-0.737,0.459-1.684,0.682-2.477,0.856c-0.522-1.52,1.151-3.831,0.805-5.073c-0.109-0.393-0.276-0.67-0.452-0.868
	C16.588,10.071,17.415,9.259,17.602,8.051 M17.769,6.941c0.332,0.488,0.674,1.132,0.874,1.737c0,0-0.161,0.166-0.276,0.302
	c-0.229-0.575-0.467-0.967-0.724-1.294C17.712,7.423,17.752,7.176,17.769,6.941 M19.038,11.272c0.085-0.165,0.195-0.298,0.195-0.298
	c0.21,0.903,0.764,1.617,1.141,2.006c0,0-0.157,0.238-0.212,0.311C19.954,13.058,19.306,12.44,19.038,11.272 M20.027,13.479
	c-0.268,0.375-0.671,0.821-0.983,1.1c-0.233-0.428-0.306-0.765-0.381-1.092c-0.073-0.399-0.052-1.311,0.228-1.918
	C19.207,12.765,20.027,13.479,20.027,13.479 M18.459,13.464c0.068,0.633,0.44,1.24,0.44,1.24l-0.228,0.18
	c0,0-0.315-0.436-0.451-1.241c-0.408-2.427,1.17-3.547,1.17-3.547c0.067,0.107,0.174,0.193,0.174,0.193
	C18.208,11.509,18.421,13.095,18.459,13.464 M21.12,11.232c-0.059-0.012-0.29-0.022-0.671,0.1c0.519,0.017,0.685,0.287,0.685,0.287
	c-0.195,0.412-0.332,0.663-0.631,1.154c-0.348-0.362-0.95-1.145-1.088-2.018c0.097-0.121,0.346-0.339,0.346-0.339
	c0.275,0.147,0.541,0.137,0.541,0.137C20.98,10.651,21.112,11.197,21.12,11.232 M20.694,6.117c0,0,0.615,0.896,0.597,2.406
	c-0.012,1.014-0.4,1.641-0.848,1.708c-0.794,0.118-0.935-0.518-0.945-0.727c-0.016-0.296,0.346-0.813,1.015-0.38
	c-0.091-0.523-1.172-0.519-1.28,0.249c-0.022,0.156-0.011,0.323,0.039,0.474c-0.823,0.77-1.217,1.502-1.345,2.736
	c-0.053,0.616,0.05,1.583,0.556,2.439c0,0-0.47,0.338-0.612,0.422c-1.397-2.157-0.447-4.575,0.176-5.569
	C19.025,8.313,20.17,8.069,20.694,6.117 M17.2,4.834c0.223-0.019,0.584,0.023,0.931,0.391c0.325,0.346,0.363,0.633,0.666,0.914
	c0,0-0.324,0.017-0.541,0.133c0,0,0.599,0.11,0.945,0.776c0.185,0.357,0.269,0.633,0.208,0.789c-0.019,0.047-0.067,0.09-0.12,0.154
	c-0.158,0.175-0.46,0.489-0.46,0.489c-0.228-0.632-0.606-1.393-1.057-1.972C17.734,5.842,17.499,5.296,17.2,4.834 M15.241,10.603
	c0.114,0.105,0.205,0.217,0.276,0.337l-0.331,0.048c-0.069-0.118-0.146-0.216-0.225-0.303 M14.961,10.685
	c0.095-0.024,0.188-0.051,0.28-0.082 M15.329,12.585l0.336-0.022c-0.124,0.482-0.338,1.002-0.524,1.537l-0.398-0.067
	C14.963,13.553,15.195,13.052,15.329,12.585 M14.625,14.292l0.423,0.086c-0.125,0.384-0.224,0.775-0.257,1.163l-0.579-0.115
	C14.278,15.093,14.439,14.704,14.625,14.292 M14.778,15.859c0.004,0.218,0.032,0.435,0.093,0.649
	c-0.135,0.025-0.314,0.065-0.314,0.065c-0.127-0.158-0.313-0.348-0.368-0.729c-0.006-0.034-0.008-0.071-0.008-0.106L14.778,15.859z
	 M13.692,17.047c-0.168-0.55,0.129-0.978,0.224-1.118c0.15,0.594,0.665,0.842,0.688,1.342c0.013,0.239-0.139,0.54-0.139,0.54
	s0.325-0.181,0.638-0.094c0.288,0.084,0.528,0.172,0.761,0.254c-0.189,0.199-0.351,0.556-0.656,0.692
	c-0.21,0.094-0.454,0.125-0.454,0.125s0.437,0.095,0.545,0.535c0.107,0.435-0.078,0.892-0.021,1.186
	c-0.343-0.407-0.581-0.614-0.79-1.114c0.181-0.998,0.046-1.161-0.084-1.361C14.198,17.715,13.833,17.51,13.692,17.047
	 M15.586,19.417c0,0,0.328,0.482,0.722,0.855c0.014,0.451,0.155,0.815,0.273,1.19c-0.372-0.189-0.688-0.4-0.999-0.695
	C15.407,20.211,15.649,20.001,15.586,19.417 M13.84,18.502c-0.12-0.234-0.109-0.537,0.038-0.638c0.489,0.174,0.46,0.887,0.4,0.991
	C14.217,18.913,14,18.816,13.84,18.502 M13.018,19.667c0.198-0.062,0.273,0.085,0.525,0.203c0.684,0.321,0.81-0.121,0.81-0.121
	c0.561,0.902,1.19,1.489,2.349,2.073c0.021,0.069,0.095,0.267,0.103,0.308c-0.95,0.28-2.162-0.049-2.884-0.477
	c-0.43-0.255-0.986-0.753-1.088-1.353C12.79,20.033,12.806,19.73,13.018,19.667 M12.395,18.722
	c-0.148,0.178-0.624,0.744-0.555,1.717c0,0,0.101-0.234,0.214-0.281c0,0-0.44,0.621,0.381,1.594
	c-1.576-0.953-0.822-3.057-0.379-3.33C12.375,18.225,12.57,18.51,12.395,18.722 M11.611,22.707c-0.46,0.012-0.887-0.221-1.108-0.416
	c0.564-0.15,0.638-0.685,0.204-1.155c-0.242-0.261-0.716-0.83-0.716-1.476c-0.085-0.59,0.163-0.869,0.119-1.322
	c-0.051-0.519-0.728-0.682-1.058-0.416c0.125-0.525,0.576-1.175,1.155-1.077c0.637,0.109,0.413,0.748,0.708,1.179
	c0.032-0.509,0.238-1.139-0.493-1.437c0.415-0.342,0.809-0.174,0.976,0.037c0.319,0.396,0.057,0.923,0.209,1.254
	c0.083-0.332,0.239-0.619,0.157-1.087c0.311-0.035,0.489,0.147,0.536,0.394c0.041,0.205-0.115,0.551-0.172,0.901
	c-0.6,0.155-0.908,1.239-0.908,1.942c0,0.965,0.545,1.69,1.405,2.06C12.418,22.465,11.994,22.696,11.611,22.707 M16.162,23.586
	c-0.463-0.123-0.596-0.564-0.65-0.774c-0.097,0.28-0.116,0.666-0.116,0.666c-0.118-0.037-0.87-0.241-1.132-0.363
	c-0.323-0.149-0.317-0.444-0.309-0.827c-0.142,0.207-0.228,0.432-0.228,0.432s-1.327-0.783-1.036-1.552
	c-0.135,0.039-0.216,0.279-0.216,0.279s-0.667-0.905-0.147-1.458C12.238,19.93,12.055,20,12.055,20s0.049-0.439,0.298-0.798
	c0.132-0.191,0.339-0.372,0.469-0.303c0.083,0.045,0.17,0.137-0.07,0.49c-0.275,0.402-0.226,0.925-0.12,1.166
	c0.255,0.802,1.269,1.442,1.977,1.643c0.649,0.184,1.495,0.417,2.266,0.141c0.134,0.354,0.286,0.986,0.292,1.314
	C16.984,23.668,16.548,23.69,16.162,23.586 M15.929,25.885c0,0,0.056-0.067,0.143-0.035c0.063,0.023,0.063,0.144,0.063,0.144
	c0.053,1.808,2.224,1.757,3.107,1.365c-0.108,0.16-0.84,0.728-2.028,0.521c-0.561-0.096-0.977-0.41-1.236-0.879
	C15.822,26.717,15.703,26.176,15.929,25.885 M19.937,28.31c0,0.364-0.252,0.768-0.715,0.927c0.026-0.172-0.172-0.602-0.656-0.536
	c-0.269,0.037-1.738,0.589-2.64,0.152c-0.397-0.192-0.693-0.397-0.935-0.544c-0.435-0.266-0.967,0.013-0.95,0.586
	c-0.404-0.275-0.576-0.734-0.643-0.957c-0.097-0.332-0.027-0.639,0.12-0.795c0.424-0.449,1.185,0.037,1.533-0.108
	c-0.301-0.112-1.037-0.624-1.696-0.188c-0.129-0.205-0.089-0.906,0.449-0.883c0.334,0.012,0.996,0.299,1.259,0.314
	c-0.223-0.159-0.659-0.527-1.207-0.583c0.1-0.321,0.333-0.429,0.578-0.452c0.366-0.035,0.64,0.327,1.232,0.631
	c-0.265,0.541-0.002,1.596,0.868,2.032c0.504,0.254,1.901,0.542,2.943-0.415C19.599,27.522,19.936,27.891,19.937,28.31
	 M22.029,23.325c-0.196,0.417-0.635,0.479-0.931,0.478c0.232,0.113,0.761,0.174,0.761,0.174s-0.192,0.464-0.336,0.785
	c-0.225,0.516-1,0.545-1,0.545s0.31,0.143,0.667,0.172c-0.091,0.208-0.368,0.652-0.462,0.768c-0.09,0.107-0.338,0.41-0.998,0.229
	c0.297,0.246,0.498,0.299,0.498,0.299c-0.279,0.191-0.503,0.343-1.022,0.438C18.528,27.334,18.381,27,18.381,27
	s-0.06,0.26,0.145,0.346c0,0-1.449,0.162-1.901-0.572c-0.303-0.495-0.271-0.79-0.219-0.982c0.077-0.287,0.35-0.264,0.341-0.14
	c-0.023,0.321,0.007,0.614,0.347,0.963c0.282,0.289,1.034,0.578,2.087-0.089c1.255-0.895,1.711-2.758,1.046-4.258
	c0.28-0.282,0.475-0.516,0.458-0.997c-0.02-0.569-0.324-0.929-0.479-0.954c0,0,0.216,0.414,0.241,0.82
	c0.021,0.355-0.024,0.745-0.568,1.048c0.686,1.329,0.349,3.137-0.76,4.051c-0.397,0.327-1.047,0.543-1.567,0.342
	c-0.555-0.224-0.585-0.819-0.405-1.216c0.741-1.624-0.028-3.216-0.225-3.77c-0.51-1.44-0.305-2.165-0.305-2.165
	c-0.155,0.099-0.248,0.301-0.286,0.475c-0.243-0.192-0.802-1.011-0.802-1.011c1.869-0.656,2.793-1.181,3.371-1.601
	c0.267,0.609,0.767,0.493,1.402,1.051c0.134-0.248,0.234-0.467,0.203-0.894c0.733,0.344,1.359,0.083,1.986,0.048
	c-0.027-0.469,0.034-1.106-0.284-1.479c0.115-0.007,0.343-0.043,0.49-0.069c-0.299-0.571-0.313-0.866-0.58-1.133
	c1.593,0.53,2.938,0.217,4.241-0.241c0.029,0.813-0.041,1.566-0.103,2.405c-0.034,0.47-0.025,0.905,0.02,1.307
	c-1.273,0.526-2.433,1.984-3.357,2.151c0.041-0.159,0.125-0.453,0.194-0.589c-0.167,0.059-0.248,0.107-0.577,0.228
	c1.07-0.651,0.681-2.467,0.681-2.467c-0.97,0.876-1.919,0.96-2.394,1.13c-0.229,0.082-0.433,0.24-0.54,0.469
	c-0.173,0.373-0.027,0.924,0.303,1.048c-0.21-0.317-0.278-1.149,0.475-1.329c0.684-0.164,1.2-0.298,1.913-0.768
	c0.233,1.313-0.86,2.037-1.158,2.151c0.316,0.026,0.627-0.029,0.904-0.123c0,0-0.24,0.895-0.323,1.264c-0.273,0.841-1,0.906-1,0.906
	s0.591,0.06,0.95,0.021C22.221,22.789,22.125,23.119,22.029,23.325 M22.29,22.131c0.197-0.119,0.293-0.369,0.347-0.58
	c0,0,0.015-0.064,0.04-0.156c0.036,0.22,0.122,0.479,0.191,0.668C22.652,22.112,22.468,22.129,22.29,22.131 M23.727,21.756
	c-0.218,0.102-0.408,0.176-0.578,0.23c-0.119-0.234-0.225-0.516-0.266-0.751c0.143-0.027,0.322-0.071,0.526-0.151
	c0.108,0.193,0.278,0.444,0.43,0.615C23.801,21.719,23.767,21.739,23.727,21.756 M26.647,25.118
	c0.953-0.581,1.065-1.046,0.848-1.368c-0.483-0.709-2.717,0.635-3.411-1.07c-0.093-0.277-0.135-0.44-0.177-0.748
	c1.024-0.556,1.867-1.609,2.766-2.125c0.812,1.853,2.605,2.687,4.138,2.945c-0.15,0.795-0.596,2.205-1.726,3.174
	c-0.736,0.629-1.894,0.647-2.488,0.181C26.333,25.898,25.938,25.551,26.647,25.118 M25.128,26.063
	c0.012-0.21,0.215-0.259,0.264-0.086c0.648,1.634,2.242,1.446,2.533,1.407c-0.21,0.326-2.058,0.551-2.666-0.688
	C25.175,26.512,25.115,26.27,25.128,26.063 M28.659,28.594c-0.078,0.324-0.206,0.615-0.63,0.789
	c-0.004-0.57-0.548-0.787-1.041-0.681c-0.561,0.12-1.298,0.349-1.802,0.224c-0.738-0.18-0.938-0.459-1.294-0.68
	c-0.363-0.228-0.91-0.072-0.896,0.588c-0.319-0.293-0.483-0.752-0.483-1.144c0-0.231,0.119-0.544,0.451-0.61
	c0.601-0.117,1.083,0.262,1.354,0.15c-0.344-0.238-1.031-0.705-1.694-0.361c-0.103-0.311-0.019-0.771,0.451-0.758
	c0.503,0.014,0.944,0.457,1.331,0.402c-0.372-0.289-0.867-0.586-1.098-0.629c0.018-0.15,0.165-0.303,0.359-0.325
	c0.537-0.065,0.667,0.36,1.209,0.663c0.095,0.703,0.433,1.088,0.962,1.375c0.555,0.297,1.755,0.441,2.26,0.023
	C28.527,27.807,28.757,28.191,28.659,28.594 M29.89,26.758c-0.183,0.101-0.396,0.213-0.515,0.256
	c-0.233,0.086-0.614,0.089-1.03-0.223c0.082,0.277,0.171,0.377,0.171,0.377c-0.243,0.024-0.867,0.027-1.127-0.002
	c-0.483-0.052-0.489-0.402-0.489-0.402s-0.109,0.177,0.06,0.363c-0.7-0.164-1.183-0.726-1.316-1.209
	c-0.051-0.182-0.053-0.303,0.065-0.338c0.074-0.021,0.145,0.047,0.206,0.163c0.489,0.933,2.141,1.468,3.524,0.22
	c1.121-1.016,1.543-2.562,1.67-3.166c0.323,0.039,0.632,0.053,0.91,0.047l0.461-0.039c-0.049,0.162-0.128,0.404-0.201,0.595
	c-0.148,0.388-0.66,0.476-0.994,0.497c0,0,0.188,0.1,0.83,0.102c0,0-0.171,0.375-0.36,0.668c-0.243,0.377-0.868,0.396-1.08,0.359
	c0,0,0.213,0.195,0.645,0.277c-0.093,0.119-0.216,0.324-0.325,0.496c-0.026-0.002-0.052-0.004-0.076-0.002
	c-0.413,0-0.669,0.237-0.778,0.469c-0.147-0.006-0.29-0.036-0.411-0.079c0.103,0.146,0.245,0.249,0.35,0.312
	c-0.003,0.053,0.005,0.1,0.023,0.135C30.101,26.633,30.003,26.664,29.89,26.758 M36.807,27.701c0.133,0.624-0.398,1.197-0.733,1.311
	c-0.014-0.371-0.139-0.578-0.401-0.613c-0.538-0.071-1.035,0.706-2.384,0.641c-0.436-0.023-0.845-0.248-1.165-0.336
	c-0.51-0.137-0.946,0.18-0.909,0.831c-0.786-0.354-1.106-1.043-0.838-1.485c0.349-0.58,0.889-0.199,1.54-0.412
	c-0.324-0.094-1.235-0.565-1.825,0.216c-0.325-0.337-0.187-0.755,0.091-0.927c0.432-0.267,1.127,0.1,1.543-0.021
	c-0.293-0.111-0.833-0.385-1.363-0.328c0.007-0.246,0.187-0.469,0.425-0.511c0.409-0.071,0.911,0.306,1.279,0.44
	c0.074,0.58,0.801,1.147,1.457,1.278c1.561,0.403,2.372-0.547,2.505-0.799c0.042-0.026,0.116-0.06,0.211-0.117
	C36.595,27.072,36.753,27.448,36.807,27.701 M37.664,23.197c0,0-0.165,0.616-0.289,0.95c-0.146,0.396-0.59,0.583-0.992,0.569
	c0,0,0.242,0.14,0.776,0.172c0,0-0.217,0.689-0.471,0.949c-0.278,0.287-0.502,0.363-0.976,0.293c0.297,0.189,0.578,0.244,0.671,0.27
	c-0.271,0.271-0.668,0.486-1.261,0.534c-0.568,0.048-0.763-0.286-0.763-0.286s0.018,0.27,0.239,0.389
	c-0.586,0.041-1.327-0.05-1.792-0.775c-0.07-0.109-0.08-0.23-0.011-0.271c0.063-0.038,0.157-0.014,0.313,0.073
	c1.873,1.043,2.974-0.641,3.248-2.575c0.164-1.144,0.397-2.525,0.147-3.271c-0.227-0.677-0.936-0.709-1.212-0.613
	c-0.081-0.097-0.137-0.406,0.037-0.659c0.33-0.483,1.195-0.18,2.269-1.267c0.217,0.275,0.186,1.838-0.749,2.236
	c0,0,0.602-0.082,1.103-0.285c-0.017,0.254-0.043,0.665-0.046,0.975c-0.009,0.645-0.416,0.829-0.869,0.975
	c0.429,0.068,0.897-0.095,0.897-0.095c-0.126,1.024-0.086,1.517-1.129,1.712C36.807,23.197,37.188,23.303,37.664,23.197"/>
<polygon fill="#010101" points="24.305,37.752 24.305,37.752 24.304,37.752 "/>
<path fill="#010101" d="M5.317,35.068l-0.624-0.206c-0.923-0.323-1.22-0.496-1.292-0.556c-0.135-0.116-0.098-0.27-0.029-0.366
	c0.16-0.231,0.595-0.343,1.163-0.302c0.749,0.054,1.822,0.353,2.539,1.434c0.004,0.008,0.014,0.014,0.024,0.012
	c0.008,0,0.016-0.004,0.021-0.013l1.146-1.955c-1.047-0.655-2.39-1.255-4.237-1.255c-2.073,0-3.413,1.009-3.413,2.568
	c0,1.578,1.518,2.132,2.61,2.553l0.921,0.361c0.689,0.265,1.061,0.455,1.117,0.705c0.047,0.207,0.013,0.373-0.099,0.496
	c-0.196,0.209-0.612,0.289-1.115,0.213C3.32,38.646,2.075,38.041,1.4,36.936c-0.004-0.01-0.013-0.014-0.023-0.014
	c-0.008,0-0.018,0.004-0.022,0.014L0,39.217c0.891,0.64,2.557,1.34,4.48,1.344c1.145,0.001,2.195-0.262,2.813-0.69
	c0.753-0.521,1.185-1.229,1.185-1.96C8.478,36.119,6.724,35.521,5.317,35.068"/>
<path fill="#B68B2D" d="M5.318,38.683c0.154-0.167,0.205-0.396,0.146-0.662c-0.117-0.508-0.677-0.724-1.387-0.995L3.58,36.83
	l-0.419-0.164c-1.085-0.42-2.315-0.848-2.315-2.205c0-1.745,1.726-2.363,3.205-2.363c1.349,0,2.616,0.342,3.769,1.014
	c-0.027,0.045-0.832,1.422-0.871,1.486c-0.52-0.721-1.441-1.184-2.54-1.268c-0.641-0.049-1.122,0.088-1.325,0.379
	c-0.106,0.154-0.12,0.334-0.038,0.507c0.151,0.325,0.518,0.479,1.445,0.803l0.624,0.207c1.411,0.452,3.012,0.917,3.012,2.538
	c0,0.666-0.417,1.352-1.114,1.834c-0.587,0.406-1.589,0.646-2.689,0.65c-1.363,0.004-2.76-0.426-3.941-1.213
	c0.025-0.043,1.005-1.703,1.042-1.768c0.799,1.172,2.157,1.615,2.619,1.684C4.606,39.035,5.079,38.936,5.318,38.683"/>
<g>
	<g>
		<defs>
			<rect id="SVGID_1_" x="9.078" y="32.15" width="3.82" height="8.097"/>
		</defs>
		<clipPath id="SVGID_2_">
			<use xlink:href="#SVGID_1_"  overflow="visible"/>
		</clipPath>
		<path clip-path="url(#SVGID_2_)" fill="#010101" d="M9.135,32.151c0.255,0.581,0.364,1.749,0.364,2.341v3.271
			c0,0.755-0.177,1.857-0.42,2.482h3.82c-0.243-0.625-0.42-1.728-0.42-2.482v-3.271c0-0.592,0.106-1.76,0.363-2.341H9.135z"/>
	</g>
</g>
<path fill="#B68B2D" d="M12.418,32.395c-0.238,0.717-0.289,1.824-0.289,2.098v3.271c0,0.272,0.051,1.418,0.289,2.135h-3.02
	c0.24-0.717,0.29-1.862,0.29-2.135v-3.271c0-0.273-0.024-1.383-0.264-2.098H12.418z"/>
<g>
	<g>
		<defs>
			<rect id="SVGID_3_" x="13.751" y="32.15" width="8.255" height="8.097"/>
		</defs>
		<clipPath id="SVGID_4_">
			<use xlink:href="#SVGID_3_"  overflow="visible"/>
		</clipPath>
		<path clip-path="url(#SVGID_4_)" fill="#010101" d="M21.589,37.764l-0.002-5.611H19.77v3.977c0,0-1.649-2.09-2.429-3.061
			c-0.582-0.725-0.907-0.916-1.664-0.916h-1.925c0.257,0.58,0.365,1.748,0.365,2.34l0.001,5.752h1.831v-4.598l3.073,3.885
			c0.362,0.436,0.619,0.713,1.42,0.713l1.565,0.002C21.765,39.621,21.589,38.518,21.589,37.764"/>
	</g>
</g>
<path fill="#B68B2D" d="M21.239,32.39v5.374c0,0.271,0.049,1.415,0.289,2.135h-1.22c-0.711,0-0.921-0.257-1.272-0.683l-0.096-0.118
	c-0.318-0.382-2.537-3.203-3.292-4.189l-0.049-0.064v5.055h-1.292v-5.406c0-0.276-0.05-1.395-0.29-2.103h1.618
	c0.7,0,0.969,0.114,1.517,0.799c0.638,0.792,2.181,2.722,2.759,3.492l0.05,0.063V32.39H21.239z"/>
<g>
	<g>
		<defs>
			<rect id="SVGID_5_" x="22.6" y="31.885" width="7.877" height="8.713"/>
		</defs>
		<clipPath id="SVGID_6_">
			<use xlink:href="#SVGID_5_"  overflow="visible"/>
		</clipPath>
		<path clip-path="url(#SVGID_6_)" fill="#010101" d="M29.445,35.244c0.011,0,0.019-0.006,0.024-0.015l1.007-2.161
			c-1.135-0.971-2.841-1.244-3.8-1.174c-1.514,0.104-4.078,0.813-4.078,4.35c0,2.758,1.833,4.354,4.05,4.354
			c0.16,0,0.708-0.023,1.063-0.104c1.151-0.252,1.896-0.342,2.527-0.168c0,0,0.153,0.043,0.181,0.049
			c0.006,0.002,0.012,0,0.016-0.002c0.006-0.004,0.007-0.012,0.007-0.016v-4.016l-2.765-0.002c-0.005,0.002-0.01,0.003-0.012,0.006
			c-0.003,0.007-0.003,0.014,0,0.021c0.361,0.457,0.564,0.84,0.549,1.506c-0.034,0.541-0.293,0.992-1.116,1.021
			c-1.289,0.095-1.583-1.321-1.662-2.087c-0.109-1.215,0.094-2.132,0.59-2.65c0.309-0.324,0.69-0.463,1.186-0.463
			c1.222,0,2.058,1.284,2.21,1.536C29.427,35.238,29.436,35.244,29.445,35.244"/>
	</g>
</g>
<path fill="#B68B2D" d="M22.811,36.49c-0.108-3.748,2.69-4.275,3.9-4.36c0.923-0.063,2.362,0.196,3.352,0.917
	c-0.017,0.039-0.711,1.529-0.749,1.611c-0.357-0.61-1.174-1.232-2.237-1.274c-0.521-0.022-0.977,0.153-1.313,0.506
	c-0.539,0.567-0.766,1.487-0.646,2.796c0.089,1.01,0.357,1.682,0.814,2.061c0.345,0.283,0.784,0.393,1.348,0.336
	c0.987-0.102,1.135-0.879,1.135-1.332c0-0.2-0.038-0.709-0.383-1.2h2.063v3.428c-0.68-0.177-1.457-0.071-2.566,0.175
	c-0.368,0.08-0.923,0.096-1.017,0.096C24.33,40.248,22.877,38.773,22.811,36.49"/>
<g>
	<g>
		<defs>
			<rect id="SVGID_7_" x="31.272" y="32.15" width="8.343" height="8.097"/>
		</defs>
		<clipPath id="SVGID_8_">
			<use xlink:href="#SVGID_7_"  overflow="visible"/>
		</clipPath>
		<path clip-path="url(#SVGID_8_)" fill="#010101" d="M39.615,40.246c-0.241-0.625-0.42-1.729-0.42-2.482v-3.271
			c0-0.592,0.107-1.76,0.366-2.34h-3.458c0.249,0.572,0.281,1.432,0.281,2.34v0.955h-1.88v-0.955c0-0.908,0.034-1.768,0.279-2.34
			h-3.455c0.257,0.58,0.364,1.748,0.364,2.34v3.271c0,0.754-0.178,1.857-0.421,2.482h3.512c-0.317-0.729-0.279-1.89-0.279-2.482
			v-0.639h1.88v0.639c0,0.593,0.037,1.753-0.281,2.482H39.615z"/>
	</g>
</g>
<path fill="#B68B2D" d="M39.136,32.39c-0.238,0.716-0.288,1.829-0.288,2.103v3.271c0,0.271,0.05,1.418,0.288,2.135h-2.767
	c0.186-0.559,0.208-1.365,0.208-1.828c0-0.084,0-0.156-0.002-0.213v-0.094v-0.988h-2.42v0.988l-0.001,0.093v0.21
	c0,0.465,0.022,1.273,0.205,1.832h-2.767c0.24-0.717,0.29-1.863,0.29-2.135v-3.271c0-0.24-0.034-1.353-0.283-2.101
	c0.068,0,2.689-0.002,2.76-0.002c-0.183,0.562-0.205,1.333-0.205,1.797v0.21l0.001,0.096v1.144h2.42v-1.144v-0.096
	c0.002-0.056,0.002-0.129,0.002-0.211c0-0.464-0.009-1.236-0.193-1.796H39.136z"/>
<g>
	<g>
		<defs>
			<rect id="SVGID_9_" x="39.837" y="32.152" width="8.786" height="8.094"/>
		</defs>
		<clipPath id="SVGID_10_">
			<use xlink:href="#SVGID_9_"  overflow="visible"/>
		</clipPath>
		<path clip-path="url(#SVGID_10_)" fill="#010101" d="M48.615,40.203c-0.243-0.214-0.468-0.525-0.801-1.379l-2.288-6.074
			c-0.202-0.525-0.374-0.598-0.897-0.598h-2.431c0.18,0.684,0.246,1.21-0.15,2.191l-2.211,5.901h1.667l0.68-1.831h2.527l0.198,0.543
			c0.419,1.17,0.546,1.288,1.363,1.288h2.323c0.011,0.003,0.02-0.004,0.024-0.012C48.623,40.223,48.623,40.211,48.615,40.203
			 M42.811,36.735l0.65-1.742l0.639,1.742H42.811z"/>
	</g>
</g>
<path fill="#B68B2D" d="M44.469,32.395c0.473,0,0.563,0.037,0.744,0.535l1.108,2.91l0.733,1.932l0.056,0.154
	c0.174,0.473,0.612,1.68,0.849,1.973h-1.743c-0.682,0-0.769,0-1.188-1.166l-0.242-0.667h-2.893c0,0-0.667,1.798-0.681,1.833H40.17
	c0.028-0.073,2.007-5.365,2.007-5.365l0.049-0.123c0.149-0.396,0.304-0.805,0.304-1.333c0-0.219-0.011-0.417-0.071-0.683H44.469z
	 M43.329,34.223l-1.012,2.703h2.053l-1.017-2.773L43.329,34.223z"/>
</svg>
