<?xml version="1.0" encoding="utf-8"?>
<!-- Generator: Adobe Illustrator 15.1.0, SVG Export Plug-In . SVG Version: 6.00 Build 0)  -->
<!DOCTYPE svg PUBLIC "-//W3C//DTD SVG 1.1//EN" "http://www.w3.org/Graphics/SVG/1.1/DTD/svg11.dtd">
<svg version="1.1" id="Layer_1" xmlns="http://www.w3.org/2000/svg" xmlns:xlink="http://www.w3.org/1999/xlink" x="0px" y="0px"
	 width="233px" height="233px" viewBox="0 0 233 233" enable-background="new 0 0 233 233" xml:space="preserve">
<g id="_x2014_ëîé_x5F_2_x5F_59_x5F_">
	<g>
		<path fill="#FFDE11" d="M150.798,57.918c-0.142,0-0.282-0.036-0.414-0.112c-0.396-0.227-0.53-0.732-0.302-1.128l10.708-18.545
			c0.229-0.396,0.733-0.53,1.13-0.302c0.395,0.229,0.53,0.734,0.301,1.128l-10.705,18.545
			C151.359,57.771,151.083,57.918,150.798,57.918z"/>
		<path fill="#FFDE11" d="M134.617,85.945c-0.143,0-0.282-0.037-0.414-0.112c-0.395-0.228-0.53-0.733-0.303-1.128l4.57-7.914
			c0.229-0.396,0.733-0.529,1.129-0.302c0.395,0.228,0.529,0.734,0.303,1.128l-4.568,7.914
			C135.18,85.797,134.902,85.945,134.617,85.945z"/>
		<path fill="#FFDE11" d="M166.027,31.539c-0.141,0-0.282-0.037-0.412-0.112c-0.393-0.228-0.53-0.733-0.303-1.128l8.311-14.389
			c0.227-0.396,0.732-0.529,1.127-0.301c0.396,0.227,0.529,0.732,0.303,1.128l-8.307,14.389
			C166.594,31.391,166.314,31.539,166.027,31.539z"/>
		<path fill="#FFDE11" d="M134.254,51.066c-0.07,0-0.143-0.009-0.215-0.028c-0.439-0.119-0.701-0.571-0.583-1.012l2.364-8.828
			c0.119-0.441,0.566-0.706,1.013-0.584c0.44,0.118,0.702,0.571,0.585,1.012l-2.365,8.827
			C134.953,50.823,134.618,51.066,134.254,51.066z"/>
		<path fill="#FFDE11" d="M130.107,66.543c-0.07,0-0.144-0.009-0.215-0.028c-0.44-0.119-0.703-0.572-0.584-1.013l2.364-8.828
			c0.117-0.44,0.568-0.706,1.013-0.584c0.44,0.119,0.701,0.572,0.584,1.013l-2.365,8.827
			C130.807,66.3,130.473,66.543,130.107,66.543z"/>
	</g>
	<g>
		<path fill="#FFDE11" d="M175.904,83.026c-0.282,0-0.561-0.148-0.715-0.413c-0.228-0.396-0.094-0.9,0.304-1.128l18.547-10.707
			c0.394-0.229,0.897-0.095,1.129,0.301c0.228,0.396,0.093,0.901-0.303,1.128L176.32,82.915
			C176.189,82.99,176.048,83.026,175.904,83.026z"/>
		<path fill="#FFDE11" d="M147.883,99.208c-0.287,0-0.564-0.148-0.718-0.413c-0.229-0.396-0.093-0.901,0.302-1.128l7.914-4.57
			c0.396-0.228,0.902-0.095,1.129,0.301c0.229,0.396,0.094,0.901-0.301,1.128l-7.914,4.571
			C148.164,99.172,148.021,99.208,147.883,99.208z"/>
		<path fill="#FFDE11" d="M202.287,67.797c-0.284,0-0.563-0.148-0.717-0.413c-0.229-0.396-0.092-0.901,0.303-1.128l14.391-8.307
			c0.396-0.227,0.9-0.093,1.129,0.301c0.227,0.396,0.092,0.901-0.304,1.128l-14.39,8.308
			C202.568,67.761,202.428,67.797,202.287,67.797z"/>
		<path fill="#FFDE11" d="M165.006,68.82c-0.212,0-0.425-0.08-0.585-0.242c-0.321-0.322-0.321-0.846,0-1.168l6.463-6.463
			c0.32-0.323,0.845-0.323,1.169,0c0.321,0.322,0.321,0.846,0,1.168l-6.464,6.463C165.43,68.74,165.217,68.82,165.006,68.82z"/>
		<path fill="#FFDE11" d="M153.674,80.151c-0.209,0-0.421-0.081-0.583-0.243c-0.321-0.321-0.321-0.845,0-1.168l6.464-6.462
			c0.321-0.323,0.846-0.323,1.168,0c0.321,0.322,0.321,0.846,0,1.168l-6.464,6.462C154.1,80.07,153.889,80.151,153.674,80.151z"/>
	</g>
	<g>
		<path fill="#FFDE11" d="M206.512,117.325h-21.414c-0.459,0-0.826-0.37-0.826-0.827c0-0.456,0.367-0.826,0.826-0.826h21.414
			c0.457,0,0.827,0.37,0.827,0.826C207.339,116.956,206.969,117.325,206.512,117.325z"/>
		<path fill="#FFDE11" d="M161.874,117.325h-9.14c-0.455,0-0.825-0.37-0.825-0.827c0-0.456,0.37-0.826,0.825-0.826h9.14
			c0.456,0,0.826,0.37,0.826,0.826C162.7,116.956,162.33,117.325,161.874,117.325z"/>
		<path fill="#FFDE11" d="M232.174,117.326h-16.615c-0.457,0-0.826-0.37-0.826-0.826c0-0.457,0.369-0.827,0.826-0.827h16.615
			c0.454,0,0.826,0.37,0.826,0.827S232.628,117.326,232.174,117.326z"/>
		<path fill="#FFDE11" d="M182.758,99.572c-0.365,0-0.699-0.244-0.796-0.613c-0.118-0.44,0.144-0.894,0.582-1.012l8.829-2.365
			c0.441-0.122,0.895,0.144,1.011,0.584c0.118,0.44-0.146,0.894-0.583,1.012l-8.828,2.365
			C182.902,99.562,182.828,99.572,182.758,99.572z"/>
		<path fill="#FFDE11" d="M167.283,103.718c-0.366,0-0.699-0.244-0.801-0.613c-0.115-0.44,0.144-0.893,0.586-1.012l8.826-2.365
			c0.441-0.121,0.896,0.144,1.014,0.584c0.115,0.441-0.145,0.894-0.586,1.013l-8.826,2.365
			C167.424,103.709,167.354,103.718,167.283,103.718z"/>
	</g>
	<g>
		<path fill="#FFDE11" d="M194.452,162.332c-0.142,0-0.284-0.037-0.412-0.111l-18.547-10.708c-0.396-0.227-0.53-0.733-0.304-1.129
			c0.229-0.395,0.734-0.528,1.131-0.301l18.546,10.708c0.396,0.227,0.53,0.732,0.303,1.127
			C195.014,162.184,194.734,162.332,194.452,162.332z"/>
		<path fill="#FFDE11" d="M155.795,140.013c-0.141,0-0.281-0.034-0.414-0.11l-7.914-4.569c-0.395-0.228-0.529-0.731-0.302-1.129
			c0.229-0.396,0.735-0.528,1.13-0.301l7.914,4.567c0.395,0.229,0.529,0.735,0.301,1.131
			C156.355,139.864,156.08,140.013,155.795,140.013z"/>
		<path fill="#FFDE11" d="M216.675,175.164c-0.142,0-0.282-0.037-0.411-0.112l-14.391-8.308c-0.395-0.227-0.529-0.732-0.303-1.127
			c0.229-0.398,0.734-0.528,1.129-0.303l14.39,8.307c0.396,0.229,0.529,0.732,0.302,1.129
			C217.236,175.018,216.96,175.164,216.675,175.164z"/>
		<path fill="#FFDE11" d="M191.586,137.446c-0.07,0-0.143-0.009-0.213-0.03l-8.829-2.364c-0.438-0.118-0.7-0.569-0.582-1.011
			c0.117-0.441,0.567-0.708,1.011-0.585l8.828,2.364c0.438,0.119,0.701,0.572,0.583,1.013
			C192.285,137.201,191.95,137.446,191.586,137.446z"/>
		<path fill="#FFDE11" d="M176.107,133.298c-0.069,0-0.142-0.007-0.213-0.028l-8.826-2.364c-0.442-0.118-0.701-0.571-0.586-1.015
			c0.119-0.439,0.57-0.701,1.014-0.582l8.826,2.365c0.441,0.119,0.701,0.57,0.586,1.014
			C176.809,133.055,176.477,133.298,176.107,133.298z"/>
	</g>
	<g>
		<path fill="#FFDE11" d="M161.506,195.28c-0.283,0-0.563-0.148-0.716-0.416l-10.708-18.546c-0.229-0.395-0.094-0.9,0.302-1.129
			c0.396-0.228,0.9-0.092,1.132,0.303l10.705,18.548c0.229,0.396,0.094,0.897-0.301,1.127
			C161.787,195.241,161.646,195.28,161.506,195.28z"/>
		<path fill="#FFDE11" d="M139.188,156.621c-0.287,0-0.563-0.146-0.717-0.414l-4.568-7.912c-0.229-0.396-0.094-0.902,0.302-1.129
			c0.396-0.229,0.901-0.094,1.131,0.301l4.569,7.916c0.227,0.395,0.091,0.898-0.305,1.127
			C139.471,156.584,139.327,156.621,139.188,156.621z"/>
		<path fill="#FFDE11" d="M174.334,217.503c-0.283,0-0.563-0.147-0.715-0.414l-8.307-14.39c-0.229-0.395-0.094-0.9,0.303-1.127
			c0.395-0.229,0.898-0.096,1.127,0.301l8.308,14.391c0.229,0.395,0.093,0.899-0.3,1.127
			C174.618,217.466,174.477,217.503,174.334,217.503z"/>
		<path fill="#FFDE11" d="M171.465,172.293c-0.208,0-0.421-0.081-0.581-0.243l-6.463-6.461c-0.321-0.321-0.321-0.846,0-1.168
			c0.322-0.321,0.847-0.321,1.168,0l6.464,6.461c0.321,0.322,0.321,0.849,0,1.168C171.891,172.212,171.678,172.293,171.465,172.293z
			"/>
		<path fill="#FFDE11" d="M160.137,160.963c-0.211,0-0.423-0.081-0.582-0.243l-6.464-6.461c-0.321-0.321-0.321-0.845,0-1.168
			c0.322-0.323,0.847-0.323,1.168,0l6.464,6.462c0.321,0.322,0.321,0.848,0,1.167C160.561,160.882,160.35,160.963,160.137,160.963z"
			/>
	</g>
	<g>
		<path fill="#FFDE11" d="M116.5,207.337c-0.457,0-0.827-0.37-0.827-0.826v-21.415c0-0.455,0.37-0.824,0.827-0.824
			s0.825,0.369,0.825,0.824v21.415C117.325,206.967,116.957,207.337,116.5,207.337z"/>
		<path fill="#FFDE11" d="M116.5,162.7c-0.457,0-0.827-0.37-0.827-0.826v-9.14c0-0.455,0.37-0.825,0.827-0.825
			s0.825,0.37,0.825,0.825v9.14C117.325,162.33,116.957,162.7,116.5,162.7z"/>
		<path fill="#FFDE11" d="M116.499,233c-0.457,0-0.826-0.37-0.826-0.828v-16.613c0-0.457,0.37-0.826,0.826-0.826
			c0.457,0,0.826,0.369,0.826,0.826v16.613C117.325,232.63,116.956,233,116.499,233z"/>
		<path fill="#FFDE11" d="M136.618,192.412c-0.365,0-0.698-0.243-0.798-0.612l-2.364-8.827c-0.118-0.439,0.144-0.893,0.583-1.013
			c0.441-0.12,0.895,0.146,1.014,0.585l2.365,8.828c0.117,0.439-0.145,0.893-0.585,1.011
			C136.762,192.402,136.689,192.412,136.618,192.412z"/>
		<path fill="#FFDE11" d="M132.473,176.938c-0.365,0-0.699-0.244-0.799-0.613l-2.363-8.827c-0.121-0.44,0.143-0.894,0.582-1.013
			c0.44-0.119,0.896,0.145,1.014,0.584l2.363,8.828c0.119,0.44-0.143,0.893-0.582,1.013
			C132.613,176.928,132.542,176.938,132.473,176.938z"/>
	</g>
	<g>
		<path fill="#FFDE11" d="M71.493,195.28c-0.14,0-0.283-0.039-0.412-0.113c-0.396-0.229-0.531-0.731-0.303-1.127l10.707-18.548
			c0.229-0.396,0.735-0.529,1.129-0.303c0.396,0.229,0.531,0.734,0.302,1.129l-10.707,18.546
			C72.057,195.132,71.778,195.28,71.493,195.28z"/>
		<path fill="#FFDE11" d="M93.811,156.621c-0.139,0-0.282-0.037-0.413-0.111c-0.395-0.229-0.53-0.731-0.302-1.127l4.569-7.916
			c0.228-0.395,0.733-0.527,1.129-0.301s0.53,0.732,0.302,1.129l-4.569,7.912C94.375,156.475,94.097,156.621,93.811,156.621z"/>
		<path fill="#FFDE11" d="M58.661,217.503c-0.14,0-0.283-0.037-0.412-0.112c-0.396-0.228-0.53-0.732-0.303-1.127l8.309-14.393
			c0.228-0.395,0.734-0.528,1.128-0.299c0.395,0.226,0.53,0.732,0.302,1.127l-8.308,14.39
			C59.225,217.354,58.946,217.503,58.661,217.503z"/>
		<path fill="#FFDE11" d="M96.38,192.412c-0.07,0-0.143-0.01-0.214-0.028c-0.44-0.118-0.703-0.569-0.584-1.011l2.365-8.828
			c0.118-0.439,0.569-0.705,1.012-0.585c0.441,0.12,0.703,0.572,0.584,1.013l-2.365,8.827
			C97.079,192.169,96.746,192.412,96.38,192.412z"/>
		<path fill="#FFDE11" d="M100.528,176.938c-0.071,0-0.144-0.01-0.216-0.028c-0.44-0.12-0.701-0.571-0.584-1.013l2.366-8.828
			c0.117-0.439,0.569-0.705,1.012-0.584c0.44,0.119,0.701,0.57,0.584,1.013l-2.366,8.827
			C101.226,176.693,100.892,176.938,100.528,176.938z"/>
	</g>
	<g>
		<path fill="#FFDE11" d="M38.547,162.332c-0.285,0-0.563-0.148-0.716-0.414c-0.229-0.395-0.093-0.9,0.302-1.127l18.546-10.708
			c0.395-0.228,0.899-0.094,1.128,0.301c0.229,0.396,0.094,0.902-0.302,1.129L38.96,162.221
			C38.83,162.295,38.688,162.332,38.547,162.332z"/>
		<path fill="#FFDE11" d="M77.204,140.013c-0.284,0-0.562-0.147-0.716-0.411c-0.228-0.396-0.093-0.902,0.303-1.131l7.915-4.568
			c0.394-0.228,0.901-0.094,1.128,0.302c0.229,0.396,0.094,0.901-0.301,1.129l-7.915,4.569
			C77.486,139.979,77.345,140.013,77.204,140.013z"/>
		<path fill="#FFDE11" d="M16.324,175.16c-0.286,0-0.564-0.147-0.717-0.412c-0.229-0.395-0.094-0.9,0.302-1.129l14.39-8.307
			c0.396-0.229,0.899-0.095,1.128,0.301c0.229,0.395,0.093,0.902-0.301,1.129l-14.389,8.308
			C16.606,175.125,16.463,175.16,16.324,175.16z"/>
		<path fill="#FFDE11" d="M61.532,172.293c-0.211,0-0.423-0.081-0.584-0.243c-0.323-0.319-0.323-0.846,0-1.168l6.462-6.461
			c0.322-0.321,0.845-0.321,1.168,0c0.323,0.322,0.323,0.847,0,1.168l-6.461,6.461C61.955,172.212,61.743,172.293,61.532,172.293z"
			/>
		<path fill="#FFDE11" d="M72.862,160.963c-0.211,0-0.423-0.081-0.585-0.243c-0.322-0.319-0.322-0.845,0-1.167l6.463-6.462
			c0.322-0.323,0.846-0.323,1.168,0c0.322,0.323,0.322,0.847,0,1.168l-6.462,6.461C73.285,160.882,73.073,160.963,72.862,160.963z"
			/>
	</g>
	<g>
		<path fill="#FFDE11" d="M47.903,117.325H26.488c-0.456,0-0.826-0.37-0.826-0.827c0-0.456,0.37-0.826,0.826-0.826h21.415
			c0.456,0,0.825,0.37,0.825,0.826C48.728,116.956,48.359,117.325,47.903,117.325z"/>
		<path fill="#FFDE11" d="M80.263,117.325h-9.138c-0.456,0-0.827-0.37-0.827-0.827c0-0.456,0.371-0.826,0.827-0.826h9.138
			c0.457,0,0.826,0.37,0.826,0.826C81.089,116.956,80.72,117.325,80.263,117.325z"/>
		<path fill="#FFDE11" d="M17.441,117.325H0.827c-0.457,0-0.827-0.371-0.827-0.828c0-0.456,0.37-0.827,0.827-0.827h16.614
			c0.456,0,0.826,0.371,0.826,0.827C18.267,116.954,17.897,117.325,17.441,117.325z"/>
		<path fill="#FFDE11" d="M41.413,137.446c-0.366,0-0.699-0.245-0.798-0.613c-0.118-0.44,0.143-0.894,0.584-1.013l8.828-2.364
			c0.44-0.12,0.893,0.144,1.012,0.585c0.117,0.439-0.144,0.893-0.584,1.011l-8.828,2.364
			C41.554,137.438,41.483,137.446,41.413,137.446z"/>
		<path fill="#FFDE11" d="M56.889,133.298c-0.364,0-0.698-0.243-0.798-0.61c-0.117-0.442,0.144-0.895,0.584-1.014l8.828-2.365
			c0.442-0.121,0.894,0.143,1.013,0.582c0.117,0.442-0.144,0.896-0.585,1.015l-8.827,2.364
			C57.031,133.291,56.96,133.298,56.889,133.298z"/>
	</g>
	<g>
		<path fill="#FFDE11" d="M57.092,83.026c-0.14,0-0.283-0.036-0.412-0.111L38.134,72.208c-0.396-0.227-0.531-0.733-0.302-1.128
			c0.228-0.396,0.734-0.529,1.128-0.301l18.546,10.707c0.396,0.228,0.531,0.733,0.302,1.128
			C57.655,82.878,57.377,83.026,57.092,83.026z"/>
		<path fill="#FFDE11" d="M85.117,99.208c-0.14,0-0.283-0.036-0.412-0.111l-7.915-4.571c-0.396-0.228-0.531-0.733-0.303-1.128
			c0.229-0.396,0.734-0.529,1.129-0.301l7.915,4.57c0.395,0.227,0.53,0.732,0.301,1.128C85.681,99.06,85.402,99.208,85.117,99.208z"
			/>
		<path fill="#FFDE11" d="M30.712,67.796c-0.14,0-0.282-0.036-0.413-0.112L15.91,59.377c-0.395-0.227-0.53-0.732-0.301-1.128
			s0.733-0.529,1.128-0.302l14.389,8.308c0.395,0.227,0.53,0.732,0.301,1.128C31.275,67.648,30.998,67.796,30.712,67.796z"/>
		<path fill="#FFDE11" d="M50.24,99.572c-0.071,0-0.143-0.01-0.214-0.029l-8.828-2.365c-0.441-0.118-0.702-0.572-0.584-1.012
			c0.118-0.44,0.569-0.707,1.012-0.584l8.828,2.365c0.44,0.118,0.701,0.572,0.584,1.012C50.938,99.328,50.605,99.572,50.24,99.572z"
			/>
		<path fill="#FFDE11" d="M65.716,103.718c-0.07,0-0.142-0.009-0.214-0.028l-8.828-2.365c-0.44-0.119-0.701-0.571-0.584-1.013
			c0.119-0.44,0.571-0.706,1.013-0.584l8.827,2.365c0.441,0.119,0.702,0.572,0.585,1.012
			C66.416,103.475,66.082,103.718,65.716,103.718z"/>
	</g>
	<g>
		<path fill="#FFDE11" d="M82.201,57.918c-0.285,0-0.562-0.148-0.716-0.413L70.778,38.96c-0.228-0.395-0.092-0.9,0.303-1.128
			s0.9-0.094,1.128,0.302l10.707,18.545c0.229,0.396,0.094,0.901-0.302,1.128C82.484,57.882,82.342,57.918,82.201,57.918z"/>
		<path fill="#FFDE11" d="M98.382,85.945c-0.285,0-0.563-0.148-0.716-0.414l-4.569-7.914c-0.228-0.395-0.093-0.9,0.302-1.128
			s0.901-0.094,1.129,0.302l4.569,7.914c0.228,0.396,0.093,0.901-0.302,1.128C98.664,85.908,98.523,85.945,98.382,85.945z"/>
		<path fill="#FFDE11" d="M66.971,31.538c-0.284,0-0.563-0.149-0.716-0.414l-8.307-14.389c-0.229-0.395-0.093-0.9,0.301-1.128
			c0.396-0.228,0.901-0.094,1.13,0.302l8.307,14.388c0.229,0.395,0.093,0.9-0.302,1.128C67.254,31.501,67.112,31.538,66.971,31.538z
			"/>
		<path fill="#FFDE11" d="M67.994,68.82c-0.211,0-0.423-0.08-0.584-0.242l-6.462-6.463c-0.323-0.322-0.323-0.846,0-1.168
			c0.322-0.323,0.846-0.323,1.168,0l6.461,6.463c0.323,0.322,0.323,0.846,0,1.168C68.417,68.74,68.205,68.82,67.994,68.82z"/>
		<path fill="#FFDE11" d="M79.324,80.151c-0.211,0-0.424-0.081-0.584-0.243l-6.463-6.462c-0.322-0.322-0.322-0.846,0-1.168
			c0.322-0.323,0.847-0.323,1.169,0l6.462,6.462c0.322,0.323,0.322,0.847,0,1.168C79.747,80.07,79.534,80.151,79.324,80.151z"/>
	</g>
	<g>
		<path fill="#FFDE11" d="M116.5,48.729c-0.457,0-0.827-0.37-0.827-0.826V26.487c0-0.458,0.37-0.827,0.827-0.827
			s0.825,0.37,0.825,0.827v21.416C117.325,48.359,116.957,48.729,116.5,48.729z"/>
		<path fill="#FFDE11" d="M116.5,81.09c-0.457,0-0.827-0.37-0.827-0.826v-9.139c0-0.456,0.37-0.827,0.827-0.827
			s0.825,0.371,0.825,0.827v9.139C117.325,80.72,116.957,81.09,116.5,81.09z"/>
		<path fill="#FFDE11" d="M116.5,18.267c-0.457,0-0.826-0.37-0.826-0.826V0.827C115.674,0.37,116.043,0,116.5,0
			s0.826,0.37,0.826,0.827v16.614C117.326,17.897,116.957,18.267,116.5,18.267z"/>
		<path fill="#FFDE11" d="M98.745,51.066c-0.366,0-0.699-0.243-0.798-0.612l-2.365-8.827c-0.119-0.441,0.144-0.894,0.584-1.012
			c0.439-0.12,0.894,0.143,1.012,0.584l2.365,8.828c0.119,0.44-0.143,0.893-0.584,1.012C98.887,51.058,98.815,51.066,98.745,51.066z
			"/>
		<path fill="#FFDE11" d="M102.891,66.543c-0.364,0-0.698-0.244-0.796-0.613l-2.366-8.827c-0.117-0.441,0.144-0.894,0.584-1.013
			c0.441-0.121,0.894,0.144,1.013,0.584l2.366,8.828c0.117,0.441-0.144,0.894-0.584,1.013
			C103.035,66.535,102.962,66.543,102.891,66.543z"/>
	</g>
</g>
</svg>
