<?xml version="1.0" encoding="utf-8"?>
<!-- Generator: Adobe Illustrator 15.1.0, SVG Export Plug-In . SVG Version: 6.00 Build 0)  -->
<!DOCTYPE svg PUBLIC "-//W3C//DTD SVG 1.1//EN" "http://www.w3.org/Graphics/SVG/1.1/DTD/svg11.dtd">
<svg version="1.1" id="Layer_1" xmlns="http://www.w3.org/2000/svg" xmlns:xlink="http://www.w3.org/1999/xlink" x="0px" y="0px"
	 width="206px" height="206px" viewBox="0 0 206 206" enable-background="new 0 0 206 206" xml:space="preserve">
<g>
	<g>
		<g>
			
				<rect x="123.918" y="175.077" transform="matrix(-0.2166 -0.9763 0.9763 -0.2166 -30.7357 355.1666)" fill="#FFE040" width="6.439" height="29.676"/>
		</g>
		<g>
			
				<rect x="186.693" y="112.264" transform="matrix(-0.9702 -0.2424 0.2424 -0.9702 343.7271 293.3594)" fill="#FFE040" width="6.434" height="26.543"/>
		</g>
		<g>
			<rect x="99.781" y="157.719" fill="#FFE040" width="6.438" height="25.75"/>
		</g>
		<g>
			<path fill="#FFE040" d="M170.594,141.625"/>
		</g>
		<g>
			<g>
				<path fill="#FFE040" d="M103,115.875c-7.101,0-12.875-5.777-12.875-12.875c0-7.099,5.774-12.875,12.875-12.875
					c7.102,0,12.875,5.776,12.875,12.875C115.875,110.098,110.102,115.875,103,115.875z M103,96.563
					c-3.549,0-6.438,2.888-6.438,6.438c0,3.549,2.889,6.438,6.438,6.438s6.438-2.89,6.438-6.438
					C109.438,99.45,106.549,96.563,103,96.563z"/>
			</g>
		</g>
		<g>
			<g>
				<path fill="#FFE040" d="M103,70.813c-7.101,0-12.875-5.776-12.875-12.875S95.899,45.063,103,45.063
					c7.102,0,12.875,5.776,12.875,12.875C115.875,65.036,110.102,70.813,103,70.813z M103,51.5c-3.549,0-6.438,2.887-6.438,6.438
					c0,3.55,2.889,6.438,6.438,6.438s6.438-2.888,6.438-6.438C109.438,54.387,106.549,51.5,103,51.5z"/>
			</g>
		</g>
		<g>
			<g>
				<path fill="#FFE040" d="M103,25.75c-7.101,0-12.875-5.776-12.875-12.875S95.899,0,103,0c7.102,0,12.875,5.776,12.875,12.875
					S110.102,25.75,103,25.75z M103,6.438c-3.549,0-6.438,2.887-6.438,6.438s2.889,6.438,6.438,6.438s6.438-2.887,6.438-6.438
					S106.549,6.438,103,6.438z"/>
			</g>
		</g>
		<g>
			<g>
				<path fill="#FFE040" d="M103,160.938c-7.101,0-12.875-5.776-12.875-12.875c0-7.098,5.774-12.875,12.875-12.875
					c7.102,0,12.875,5.777,12.875,12.875C115.875,155.161,110.102,160.938,103,160.938z M103,141.625
					c-3.549,0-6.438,2.886-6.438,6.438c0,3.553,2.889,6.438,6.438,6.438s6.438-2.886,6.438-6.438
					C109.438,144.51,106.549,141.625,103,141.625z"/>
			</g>
		</g>
		<g>
			<g>
				<path fill="#FFE040" d="M103,206c-7.101,0-12.875-5.777-12.875-12.875S95.899,180.25,103,180.25
					c7.102,0,12.875,5.777,12.875,12.875S110.102,206,103,206z M103,186.688c-3.549,0-6.438,2.887-6.438,6.438
					s2.889,6.438,6.438,6.438s6.438-2.887,6.438-6.438S106.549,186.688,103,186.688z"/>
			</g>
		</g>
		<g>
			<g>
				<path fill="#FFE040" d="M61.156,90.125c-7.101,0-12.875-5.776-12.875-12.875s5.774-12.875,12.875-12.875
					c7.101,0,12.875,5.776,12.875,12.875S68.257,90.125,61.156,90.125z M61.156,70.813c-3.549,0-6.438,2.888-6.438,6.438
					s2.889,6.438,6.438,6.438c3.549,0,6.438-2.888,6.438-6.438S64.705,70.813,61.156,70.813z"/>
			</g>
		</g>
		<g>
			<g>
				<path fill="#FFE040" d="M144.844,90.125c-7.101,0-12.875-5.776-12.875-12.875s5.774-12.875,12.875-12.875
					c7.102,0,12.875,5.776,12.875,12.875S151.943,90.125,144.844,90.125z M144.844,70.813c-3.549,0-6.438,2.888-6.438,6.438
					s2.889,6.438,6.438,6.438s6.438-2.888,6.438-6.438S148.393,70.813,144.844,70.813z"/>
			</g>
		</g>
		<g>
			<g>
				<path fill="#FFE040" d="M183.469,160.938c-7.101,0-12.875-5.776-12.875-12.875c0-7.098,5.774-12.875,12.875-12.875
					c7.102,0,12.875,5.777,12.875,12.875C196.344,155.161,190.568,160.938,183.469,160.938z M183.469,141.625
					c-3.549,0-6.438,2.886-6.438,6.438c0,3.553,2.889,6.438,6.438,6.438s6.438-2.886,6.438-6.438
					C189.906,144.511,187.018,141.625,183.469,141.625z"/>
			</g>
		</g>
		<g>
			<g>
				<path fill="#FFE040" d="M151.281,196.344c-7.102,0-12.875-5.777-12.875-12.875s5.773-12.875,12.875-12.875
					c7.101,0,12.875,5.777,12.875,12.875S158.382,196.344,151.281,196.344z M151.281,177.031c-3.549,0-6.438,2.886-6.438,6.438
					c0,3.553,2.889,6.438,6.438,6.438s6.438-2.886,6.438-6.438C157.719,179.917,154.83,177.031,151.281,177.031z"/>
			</g>
		</g>
		<g>
			<g>
				<path fill="#FFE040" d="M61.156,141.625c-7.101,0-12.875-5.777-12.875-12.875s5.774-12.875,12.875-12.875
					c7.101,0,12.875,5.777,12.875,12.875S68.257,141.625,61.156,141.625z M61.156,122.313c-3.549,0-6.438,2.887-6.438,6.438
					s2.889,6.438,6.438,6.438c3.549,0,6.438-2.887,6.438-6.438S64.705,122.313,61.156,122.313z"/>
			</g>
		</g>
		<g>
			<g>
				<path fill="#FFE040" d="M144.844,141.625c-7.101,0-12.875-5.777-12.875-12.875s5.774-12.875,12.875-12.875
					c7.102,0,12.875,5.777,12.875,12.875S151.943,141.625,144.844,141.625z M144.844,122.313c-3.549,0-6.438,2.887-6.438,6.438
					s2.889,6.438,6.438,6.438s6.438-2.887,6.438-6.438S148.393,122.313,144.844,122.313z"/>
			</g>
		</g>
		<g>
			<rect x="67.594" y="45.063" fill="#FFE040" width="6.438" height="6.438"/>
		</g>
		<g>
			<rect x="67.594" y="154.5" fill="#FFE040" width="6.438" height="6.438"/>
		</g>
		<g>
			<rect x="131.969" y="154.5" fill="#FFE040" width="6.438" height="6.438"/>
		</g>
		<g>
			<rect x="38.625" y="99.781" fill="#FFE040" width="6.438" height="6.438"/>
		</g>
		<g>
			<rect x="131.969" y="45.063" fill="#FFE040" width="6.438" height="6.438"/>
		</g>
		<g>
			<rect x="160.938" y="99.781" fill="#FFE040" width="6.438" height="6.438"/>
		</g>
		<g>
			
				<rect x="164.16" y="150.94" transform="matrix(-0.7594 -0.6507 0.6507 -0.7594 186.6091 400.5694)" fill="#FFE040" width="6.433" height="29.677"/>
		</g>
		<g>
			
				<rect x="112.305" y="12.872" transform="matrix(-0.9762 -0.2169 0.2169 -0.9762 247.7683 59.3757)" fill="#FFE040" width="29.675" height="6.437"/>
		</g>
		<g>
			
				<rect x="176.633" y="77.24" transform="matrix(-0.2425 -0.9702 0.9702 -0.2425 157.8948 284.2025)" fill="#FFE040" width="26.541" height="6.434"/>
		</g>
		<g>
			<path fill="#FFE040" d="M170.594,64.375"/>
		</g>
		<g>
			<g>
				<path fill="#FFE040" d="M183.469,70.813c-7.101,0-12.875-5.776-12.875-12.875s5.774-12.875,12.875-12.875
					c7.102,0,12.875,5.776,12.875,12.875C196.344,65.036,190.568,70.813,183.469,70.813z M183.469,51.5
					c-3.549,0-6.438,2.887-6.438,6.438c0,3.55,2.889,6.438,6.438,6.438s6.438-2.888,6.438-6.438
					C189.906,54.387,187.018,51.5,183.469,51.5z"/>
			</g>
		</g>
		<g>
			<g>
				<path fill="#FFE040" d="M151.281,35.406c-7.102,0-12.875-5.776-12.875-12.875c0-7.099,5.773-12.875,12.875-12.875
					c7.101,0,12.875,5.776,12.875,12.875C164.156,29.63,158.382,35.406,151.281,35.406z M151.281,16.094
					c-3.549,0-6.438,2.887-6.438,6.438c0,3.551,2.889,6.438,6.438,6.438s6.438-2.887,6.438-6.438
					C157.719,18.981,154.83,16.094,151.281,16.094z"/>
			</g>
		</g>
		<g>
			<g>
				<path fill="#FFE040" d="M193.125,115.875c-7.102,0-12.875-5.777-12.875-12.875c0-7.099,5.773-12.875,12.875-12.875
					S206,95.901,206,103C206,110.098,200.227,115.875,193.125,115.875z M193.125,96.563c-3.549,0-6.438,2.888-6.438,6.438
					c0,3.549,2.889,6.438,6.438,6.438s6.438-2.89,6.438-6.438C199.563,99.45,196.674,96.563,193.125,96.563z"/>
			</g>
		</g>
		<g>
			<polygon fill="#FFE040" points="174.589,53.596 155.275,31.063 160.161,26.874 179.475,49.404 			"/>
		</g>
		<g>
			
				<rect x="64.029" y="186.687" transform="matrix(-0.9762 -0.2169 0.2169 -0.9762 114.658 392.3987)" fill="#FFE040" width="29.675" height="6.438"/>
		</g>
		<g>
			
				<rect x="2.829" y="122.31" transform="matrix(-0.2425 -0.9701 0.9701 -0.2425 -101.7768 171.5883)" fill="#FFE040" width="26.54" height="6.435"/>
		</g>
		<g>
			<g>
				<path fill="#FFE040" d="M22.531,160.938c-7.101,0-12.875-5.776-12.875-12.875c0-7.098,5.774-12.875,12.875-12.875
					c7.101,0,12.875,5.777,12.875,12.875C35.406,155.161,29.632,160.938,22.531,160.938z M22.531,141.625
					c-3.549,0-6.438,2.886-6.438,6.438c0,3.553,2.889,6.438,6.438,6.438c3.549,0,6.438-2.886,6.438-6.438
					C28.969,144.511,26.08,141.625,22.531,141.625z"/>
			</g>
		</g>
		<g>
			<g>
				<path fill="#FFE040" d="M54.719,196.344c-7.101,0-12.875-5.777-12.875-12.875s5.774-12.875,12.875-12.875
					c7.101,0,12.875,5.777,12.875,12.875S61.819,196.344,54.719,196.344z M54.719,177.031c-3.549,0-6.438,2.886-6.438,6.438
					c0,3.553,2.889,6.438,6.438,6.438c3.549,0,6.438-2.886,6.438-6.438C61.157,179.917,58.268,177.031,54.719,177.031z"/>
			</g>
		</g>
		<g>
			
				<rect x="23.78" y="162.552" transform="matrix(-0.6508 -0.7593 0.7593 -0.6508 -62.1137 302.968)" fill="#FFE040" width="29.676" height="6.433"/>
		</g>
		<g>
			
				<rect x="75.646" y="1.254" transform="matrix(-0.2167 -0.9762 0.9762 -0.2167 80.2476 96.568)" fill="#FFE040" width="6.437" height="29.674"/>
		</g>
		<g>
			
				<rect x="12.875" y="67.2" transform="matrix(-0.9701 -0.2428 0.2428 -0.9701 12.1689 162.4414)" fill="#FFE040" width="6.436" height="26.543"/>
		</g>
		<g>
			<g>
				<path fill="#FFE040" d="M22.531,70.813c-7.101,0-12.875-5.776-12.875-12.875s5.774-12.875,12.875-12.875
					c7.101,0,12.875,5.776,12.875,12.875C35.406,65.036,29.632,70.813,22.531,70.813z M22.531,51.5
					c-3.549,0-6.438,2.887-6.438,6.438c0,3.55,2.889,6.438,6.438,6.438c3.549,0,6.438-2.888,6.438-6.438
					C28.969,54.387,26.08,51.5,22.531,51.5z"/>
			</g>
		</g>
		<g>
			<g>
				<path fill="#FFE040" d="M54.719,35.406c-7.101,0-12.875-5.776-12.875-12.875c0-7.099,5.774-12.875,12.875-12.875
					c7.101,0,12.875,5.776,12.875,12.875C67.594,29.63,61.819,35.406,54.719,35.406z M54.719,16.094
					c-3.549,0-6.438,2.887-6.438,6.438c0,3.551,2.889,6.438,6.438,6.438c3.549,0,6.438-2.887,6.438-6.438
					C61.157,18.981,58.268,16.094,54.719,16.094z"/>
			</g>
		</g>
		<g>
			<g>
				<path fill="#FFE040" d="M12.875,115.875C5.774,115.875,0,110.098,0,103c0-7.099,5.774-12.875,12.875-12.875
					S25.75,95.901,25.75,103C25.75,110.098,19.976,115.875,12.875,115.875z M12.875,96.563c-3.549,0-6.438,2.888-6.438,6.438
					c0,3.549,2.889,6.438,6.438,6.438s6.438-2.89,6.438-6.438C19.313,99.45,16.424,96.563,12.875,96.563z"/>
			</g>
		</g>
		<g>
			<polygon fill="#FFE040" points="31.411,53.596 26.526,49.404 45.839,26.874 50.724,31.063 			"/>
		</g>
		<g>
			
				<rect x="69.106" y="138.398" transform="matrix(-0.8682 -0.4961 0.4961 -0.8682 83.0845 305.2965)" fill="#FFE040" width="25.949" height="6.437"/>
		</g>
		<g>
			<rect x="57.938" y="86.906" fill="#FFE040" width="6.438" height="32.188"/>
		</g>
		<g>
			
				<rect x="68.236" y="88.509" transform="matrix(-0.8137 -0.5812 0.5812 -0.8137 95.5552 214.0777)" fill="#FFE040" width="27.687" height="6.437"/>
		</g>
		<g>
			
				<rect x="120.712" y="77.889" transform="matrix(-0.5811 -0.8138 0.8138 -0.5811 121.2888 245.9003)" fill="#FFE040" width="6.438" height="27.69"/>
		</g>
		<g>
			<rect x="99.781" y="22.531" fill="#FFE040" width="6.438" height="25.75"/>
		</g>
		<g>
			
				<rect x="111.661" y="62.762" transform="matrix(-0.9191 -0.3939 0.3939 -0.9191 211.8228 175.4382)" fill="#FFE040" width="24.511" height="6.435"/>
		</g>
		<g>
			
				<rect x="120.698" y="128.653" transform="matrix(-0.4961 -0.8683 0.8683 -0.4961 62.4206 319.4834)" fill="#FFE040" width="6.437" height="25.952"/>
		</g>
		<g>
			
				<rect x="153.358" y="136.79" transform="matrix(-0.8944 -0.4472 0.4472 -0.8944 248.3585 338.6507)" fill="#FFE040" width="21.591" height="6.439"/>
		</g>
		<g>
			
				<rect x="38.628" y="129.216" transform="matrix(-0.4472 -0.8944 0.8944 -0.4472 -64.669 240.0577)" fill="#FFE040" width="6.44" height="21.592"/>
		</g>
		<g>
			<rect x="141.625" y="86.906" fill="#FFE040" width="6.438" height="32.188"/>
		</g>
		<g>
			
				<rect x="31.047" y="65.981" transform="matrix(-0.8944 -0.4472 0.4472 -0.8944 48.3205 149.8088)" fill="#FFE040" width="21.592" height="6.44"/>
		</g>
	</g>
</g>
</svg>
