<?xml version="1.0" encoding="utf-8"?>
<!-- Generator: Adobe Illustrator 15.1.0, SVG Export Plug-In . SVG Version: 6.00 Build 0)  -->
<!DOCTYPE svg PUBLIC "-//W3C//DTD SVG 1.1//EN" "http://www.w3.org/Graphics/SVG/1.1/DTD/svg11.dtd">
<svg version="1.1" id="Layer_1" xmlns="http://www.w3.org/2000/svg" xmlns:xlink="http://www.w3.org/1999/xlink" x="0px" y="0px"
	 width="152px" height="152px" viewBox="0 0 152 152" enable-background="new 0 0 152 152" xml:space="preserve">
<g>
	<g>
		<polygon fill="#FFFFFF" points="71.25,28.5 87.875,28.5 102.125,14.25 109.25,21.375 92.625,38 71.25,40.375 66.5,57 
			90.25,68.875 102.125,95 92.625,99.75 78.375,76 60.259,71.471 54.625,90.25 28.5,111.625 21.375,104.5 40.375,85.5 47.5,64.125 
			49.957,37.386 38,40.375 23.75,54.625 16.625,47.5 33.25,30.875 59.375,23.75 		"/>
	</g>
	<g>
		<circle fill="#FFFFFF" cx="68.875" cy="11.875" r="9.5"/>
	</g>
	<g>
		<path fill="#606566" d="M68.875,23.75C62.327,23.75,57,18.422,57,11.875S62.327,0,68.875,0S80.75,5.328,80.75,11.875
			S75.423,23.75,68.875,23.75z M68.875,4.75c-3.929,0-7.125,3.196-7.125,7.125S64.946,19,68.875,19S76,15.804,76,11.875
			S72.804,4.75,68.875,4.75z"/>
	</g>
	<g>
		<path fill="#606566" d="M23.75,57c-0.607,0-1.215-0.231-1.679-0.695l-7.125-7.125c-0.928-0.928-0.928-2.432,0-3.359l16.625-16.625
			c0.292-0.292,0.654-0.503,1.053-0.612l26.125-7.125l1.252,4.583L34.484,33l-14.5,14.5l3.767,3.767l12.571-12.571
			c0.304-0.305,0.687-0.521,1.104-0.625l19-4.75l1.15,4.607l-18.36,4.59L25.429,56.305C24.965,56.769,24.357,57,23.75,57z"/>
	</g>
	<g>
		<path fill="#606566" d="M92.625,102.125c-0.807,0-1.594-0.415-2.036-1.152l-13.743-22.91L58.8,73.554l1.15-4.609l19,4.75
			c0.612,0.153,1.137,0.543,1.461,1.083l13.118,21.865l5.488-2.744l-10.58-23.274l-23-11.499c-1.021-0.512-1.536-1.678-1.221-2.778
			l4.75-16.625c0.265-0.926,1.063-1.602,2.02-1.706l20.547-2.284l14.356-14.356l-3.767-3.767L89.555,30.18
			c-0.445,0.445-1.05,0.696-1.681,0.696H71.25v-4.75h15.643l13.553-13.554c0.929-0.928,2.433-0.928,3.359,0l7.125,7.125
			c0.928,0.928,0.928,2.431,0,3.358L94.305,39.68c-0.381,0.381-0.882,0.622-1.416,0.68l-19.792,2.201l-3.771,13.197l21.986,10.993
			c0.487,0.243,0.875,0.645,1.101,1.141l11.875,26.125c0.528,1.164,0.041,2.534-1.101,3.107l-9.5,4.75
			C93.35,102.043,92.984,102.125,92.625,102.125z"/>
	</g>
	<g>
		<path fill="#606566" d="M28.5,114c-0.61,0-1.218-0.234-1.679-0.695l-7.125-7.125c-0.928-0.928-0.928-2.432,0-3.358L38.3,84.218
			l6.861-20.583l2.433-26.465l4.727,0.434l-2.453,26.738c-0.019,0.183-0.057,0.36-0.111,0.535L42.63,86.252
			c-0.118,0.348-0.315,0.667-0.575,0.928L24.733,104.5l3.927,3.925l23.898-19.552l6.916-23.055l4.551,1.363L56.9,90.932
			c-0.137,0.455-0.406,0.855-0.772,1.155l-26.125,21.375C29.564,113.823,29.031,114,28.5,114z"/>
	</g>
</g>
</svg>
