<?xml version="1.0" encoding="utf-8"?>
<!-- Generator: Adobe Illustrator 15.1.0, SVG Export Plug-In . SVG Version: 6.00 Build 0)  -->
<!DOCTYPE svg PUBLIC "-//W3C//DTD SVG 1.1//EN" "http://www.w3.org/Graphics/SVG/1.1/DTD/svg11.dtd">
<svg version="1.1" id="Layer_1" xmlns="http://www.w3.org/2000/svg" xmlns:xlink="http://www.w3.org/1999/xlink" x="0px" y="0px"
	 width="206px" height="206px" viewBox="0 0 206 206" enable-background="new 0 0 206 206" xml:space="preserve">
<g>
	<g>
		<path fill="#F6EC13" d="M123.514,102.017c0,11.202-9.084,20.287-20.291,20.287c-11.206,0-20.288-9.085-20.288-20.287
			c0-11.209,9.082-20.292,20.288-20.292C114.43,81.725,123.514,90.808,123.514,102.017z"/>
	</g>
	<g>
		<rect x="101.378" y="74.346" fill="#4E5253" width="3.69" height="14.758"/>
	</g>
	<g>
		<path fill="#4E5253" d="M114.291,92.788c-0.473,0-0.943-0.177-1.303-0.538c-0.723-0.72-0.723-1.887,0-2.608l9.224-9.222
			c0.718-0.721,1.886-0.721,2.606,0c0.72,0.722,0.72,1.887,0,2.607l-9.225,9.223C115.234,92.611,114.762,92.788,114.291,92.788z"/>
	</g>
	<g>
		<path fill="#4E5253" d="M92.157,92.788c-0.471,0-0.945-0.177-1.305-0.538l-7.379-7.377c-0.72-0.724-0.72-1.89,0-2.609
			c0.72-0.719,1.888-0.72,2.608,0l7.378,7.378c0.724,0.722,0.724,1.889,0,2.608C93.1,92.611,92.629,92.788,92.157,92.788z"/>
	</g>
	<g>
		<rect x="116.133" y="100.168" fill="#4E5253" width="14.758" height="3.689"/>
	</g>
	<g>
		<rect x="75.556" y="100.168" fill="#4E5253" width="14.758" height="3.689"/>
	</g>
</g>
</svg>
