<?xml version="1.0" encoding="utf-8"?>
<!-- Generator: Adobe Illustrator 15.1.0, SVG Export Plug-In . SVG Version: 6.00 Build 0)  -->
<!DOCTYPE svg PUBLIC "-//W3C//DTD SVG 1.1//EN" "http://www.w3.org/Graphics/SVG/1.1/DTD/svg11.dtd">
<svg version="1.1" id="Layer_1" xmlns="http://www.w3.org/2000/svg" xmlns:xlink="http://www.w3.org/1999/xlink" x="0px" y="0px"
	 width="168px" height="186.555px" viewBox="0 0 168 186.555" enable-background="new 0 0 168 186.555" xml:space="preserve">
<g>
	<path fill="#FDE03B" d="M26.25,159.432c0,0,5.251-11.378,9.626-12.252c4.375-0.873,14.874-4.376,14.874-4.376L63,136.68l21,3.499
		l21-4.375l15.75,10.503c0,0,13.127,3.498,16.627,8.748c3.499,5.25,3.499,5.25,3.499,5.25s-27.999,20.124-40.249,21.874
		C88.376,183.93,39.375,185.684,26.25,159.432z"/>
	<path fill="#507BBE" d="M55.125,80.68l-1.75-21.875l6.126-6.125l6.124-0.875c0,0,0.001-5.249,7.001-6.125
		C79.625,44.805,105,43.929,105,43.929s6.127,4.375,7.001,7.875s0.874,28,0.874,28s-7.001,3.5-7.875-0.875s-2.625-12.25-2.625-12.25
		l-4.373-2.625l-8.752,3.5L67.376,64.93c0,0-4.376,1.75-4.376,7S59.5,82.429,55.125,80.68z"/>
	<g>
		<rect x="65.625" y="118.305" fill="#374041" width="5.25" height="15.75"/>
	</g>
	<g>
		<rect x="97.125" y="118.305" fill="#374041" width="5.25" height="15.75"/>
	</g>
	<g>
		<path fill="#374041" d="M112.875,84.18h-2.625c-4.342,0-7.875-3.533-7.875-7.875v-5.25c0-1.448-1.178-2.625-2.625-2.625h-2.625
			v-3.627L89.87,68.43H68.25c-1.448,0-2.625,1.177-2.625,2.625v5.25c0,4.342-3.533,7.875-7.875,7.875v-5.25
			c1.448,0,2.625-1.177,2.625-2.625v-5.25c0-4.343,3.533-7.875,7.875-7.875h20.38l13.745-6.873v7.321
			c3.057,1.085,5.25,4.004,5.25,7.427v5.25c0,1.448,1.178,2.625,2.625,2.625h2.625V84.18z"/>
	</g>
	<g>
		<rect x="55.125" y="78.93" fill="#374041" width="2.625" height="5.25"/>
	</g>
	<g>
		<path fill="#374041" d="M84,126.18c-20.459,0-28.435-19.795-28.857-33.021L52.5,90.517V60.555c0-5.792,4.709-10.5,10.5-10.5h0.334
			c1.165-4.525,5.282-7.875,10.166-7.875h28.875c7.236,0,13.125,5.888,13.125,13.125v35.212l-2.643,2.643
			C112.436,106.385,104.459,126.18,84,126.18z M57.75,88.342l2.625,2.625v1.088c0,11.164,6.414,28.875,23.625,28.875
			s23.625-17.711,23.625-28.875v-1.088l2.625-2.625V55.305c0-4.343-3.533-7.875-7.875-7.875H73.5c-2.895,0-5.25,2.355-5.25,5.25
			v2.625H63c-2.895,0-5.25,2.355-5.25,5.25V88.342z"/>
	</g>
	<g>
		<path fill="#374041" d="M74.082,158.186l-29.217-12.983l17.509-14.009l24.251,6.062v8.388L74.082,158.186z M54.885,143.908
			l18.033,8.016l8.457-8.457v-2.111l-17.749-4.438L54.885,143.908z"/>
	</g>
	<g>
		<path fill="#374041" d="M93.918,158.186l-12.543-12.543v-8.389l24.251-6.061l17.509,14.008L93.918,158.186z M86.625,143.467
			l8.457,8.457l18.033-8.016l-8.741-6.992l-17.749,4.439V143.467z"/>
	</g>
	<g>
		<rect x="81.375" y="168.18" fill="#374041" width="5.25" height="5.25"/>
	</g>
	<g>
		<rect x="81.375" y="157.68" fill="#374041" width="5.25" height="5.25"/>
	</g>
	<g>
		<path fill="#374041" d="M84,186.555c-22.685,0-43.853-8.662-59.606-24.392l-0.769-0.771v-1.089c0-1,0.492-9.932,17.544-15.614
			l7.875-2.625l1.66,4.979l-7.875,2.625c-10.274,3.427-12.997,7.864-13.709,9.774C43.771,173.553,63.2,181.305,84,181.305
			c20.971,0,40.402-7.752,54.893-21.861c-0.692-1.854-3.383-6.326-13.723-9.773l-7.875-2.625l1.66-4.979l7.875,2.625
			c17.053,5.683,17.545,14.613,17.545,15.613v1.079l-0.759,0.767C128.035,177.888,106.863,186.555,84,186.555z"/>
	</g>
</g>
</svg>
