<?xml version="1.0" encoding="utf-8"?>
<!-- Generator: Adobe Illustrator 15.1.0, SVG Export Plug-In . SVG Version: 6.00 Build 0)  -->
<!DOCTYPE svg PUBLIC "-//W3C//DTD SVG 1.1//EN" "http://www.w3.org/Graphics/SVG/1.1/DTD/svg11.dtd">
<svg version="1.1" id="Layer_1" xmlns="http://www.w3.org/2000/svg" xmlns:xlink="http://www.w3.org/1999/xlink" x="0px" y="0px"
	 width="206px" height="206px" viewBox="0 0 206 206" enable-background="new 0 0 206 206" xml:space="preserve">
<g>
	<g>
		<path fill="#FED520" d="M101.378,172.105c0-3.689-11.064-14.754-11.064-14.754L79.246,129.68c0-3.056,2.476-5.531,5.532-5.531
			c3.69,0,5.536,3.688,5.536,3.688l7.379,14.758v-38.736c0-3.055,2.476-5.531,5.53-5.531c3.056,0,5.536,2.478,5.536,5.531v20.291
			c0-3.056,2.478-5.531,5.532-5.531s5.535,2.477,5.535,5.531v3.688c0-3.053,2.479-5.532,5.531-5.532
			c3.055,0,5.533,2.479,5.533,5.532v3.688c0-3.051,2.479-5.531,5.534-5.531s5.532,2.48,5.532,5.531v12.916
			c0,12.91-7.377,20.287-7.377,23.976c0,3.69,0,3.69,0,3.69h-33.202V172.105z"/>
	</g>
	<g>
		<rect x="97.692" y="173.95" fill="#B3E1E7" width="40.578" height="18.446"/>
	</g>
	<g>
		<polygon fill="#4E5253" points="140.116,192.396 136.426,192.396 136.426,175.796 99.535,175.796 99.535,192.396 95.844,192.396 
			95.844,172.105 140.116,172.105 		"/>
	</g>
	<g>
		<rect x="129.045" y="179.482" fill="#4E5253" width="3.691" height="3.688"/>
	</g>
	<g>
		<rect x="121.672" y="179.482" fill="#4E5253" width="3.688" height="3.688"/>
	</g>
	<g>
		<path fill="#4E5253" d="M136.426,172.105h-3.689v-3.689c0-1.732,0.951-3.571,2.271-6.12c2.156-4.175,5.11-9.896,5.11-17.854
			v-12.916c0-2.033-1.653-3.688-3.689-3.688c-2.037,0-3.689,1.655-3.689,3.688h-3.691v-3.688c0-2.03-1.652-3.688-3.688-3.688
			c-2.037,0-3.687,1.656-3.687,3.688h-3.69v-3.688c0-2.037-1.652-3.689-3.689-3.689s-3.688,1.652-3.688,3.689h-3.689v-20.291
			c0-2.032-1.657-3.688-3.691-3.688c-2.034,0-3.688,1.656-3.688,3.688v46.548l-10.874-21.742c-0.008-0.017-1.408-2.669-3.884-2.669
			c-1.926,0-3.512,1.486-3.676,3.369l10.783,26.947c2.993,3.019,11.338,11.791,11.338,15.797h-3.688
			c0-1.588-4.824-7.742-10.527-13.451l-0.266-0.271L77.4,130.036v-0.354c0-4.07,3.31-7.378,7.378-7.378
			c4.775,0,7.089,4.517,7.186,4.708l3.881,7.771v-30.926c0-4.066,3.311-7.374,7.379-7.374c4.065,0,7.381,3.307,7.381,7.374v13.904
			c1.088-0.632,2.342-0.99,3.688-0.99c3.215,0,5.953,2.064,6.963,4.936c1.172-0.786,2.587-1.248,4.104-1.248
			c3.217,0,5.955,2.064,6.963,4.938c1.177-0.789,2.587-1.246,4.104-1.246c4.067,0,7.378,3.307,7.378,7.377v12.916
			c0,8.857-3.322,15.289-5.523,19.545c-0.954,1.852-1.854,3.594-1.854,4.43v3.688H136.426z"/>
	</g>
	<g>
		<rect x="129.045" y="129.682" fill="#4E5253" width="3.691" height="5.534"/>
	</g>
	<g>
		<rect x="117.98" y="127.836" fill="#4E5253" width="3.69" height="5.534"/>
	</g>
	<g>
		<rect x="106.914" y="124.148" fill="#4E5253" width="3.689" height="7.377"/>
	</g>
</g>
</svg>
