<?xml version="1.0" encoding="utf-8"?>
<!-- Generator: Adobe Illustrator 15.1.0, SVG Export Plug-In . SVG Version: 6.00 Build 0)  -->
<!DOCTYPE svg PUBLIC "-//W3C//DTD SVG 1.1//EN" "http://www.w3.org/Graphics/SVG/1.1/DTD/svg11.dtd">
<svg version="1.1" id="Layer_1" xmlns="http://www.w3.org/2000/svg" xmlns:xlink="http://www.w3.org/1999/xlink" x="0px" y="0px"
	 width="233px" height="233px" viewBox="0 0 233 233" enable-background="new 0 0 233 233" xml:space="preserve">
<g>
	<path fill="none" d="M89.738,4.204v48.874h52.534V4.204H89.738z"/>
	<g>
		<path fill="#BD9639" d="M103.786,21.729c0.39,0.397,0.647,0.801,0.75,1.315c0.393,1.923-1.546,4.008-2.058,6.573
			c-0.189,0.215-1.516,1.859-0.263,3.402c-0.322,0.183-0.431,0.688-0.232,1.319c0.186,0.588,0.626,1.06,1.1,1.037
			c-0.043,0.572-0.173,0.92-0.455,0.947c-0.351,0.072-0.896-0.355-1.273-0.525c-0.227-0.087-0.32,0.015-0.32,0.015
			c0.555-0.94-0.18-1.333-0.536-1.16c0.201-0.504-0.081-0.933-0.477-1.022c0.13-0.705,0.551-1.469,0.086-2.094
			c-0.223-0.304-0.619-0.507-1.236-0.408c-0.514-0.853-1.841-0.879-2.584-0.023c-1.602,0.04-2.445,2.255-2.318,3.377
			c0.998-1.232,1.9-0.755,1.863-0.178c-0.044,0.675-0.276,1.063-0.202,1.981c0.146,1.792,1.463,2.527,1.606,3.317
			c0.099,0.546-1.271,0.608-1.271,0.608c0.759,0.962,2.079,1.541,3.03,1.432c0.906-0.103,1.414-0.626,1.718-1.055
			c0,0,1.09,0.869,1.558,1.345c0,0,0.084-0.384,0.199-0.705c-0.056,0.559,0.056,0.802,0.368,0.943
			c0.902,0.409,1.962,0.567,2.485,0.843l-0.129-0.861c0,0,0.121,0.816,0.939,0.947c0.697,0.108,1.716,0.116,1.716,0.116
			c-0.003,1.108-0.27,1.602-0.561,2.295c-0.229-0.153-0.787-0.112-0.998,0.411c-0.337-0.166-0.632,0.08-0.632,0.08
			c-0.861-0.449-1.574-1.329-2.544-1.113c-0.632,0.142-1.019,0.491-1.221,1.182c-1.045,0.234-1.112,1.547-0.698,2.341
			c-0.18,0.351-0.188,0.767-0.086,1.3c0.214,1.085,1.373,2.438,2.355,2.498c-0.518-1.024-0.074-1.852,0.653-1.386
			c0.419,0.265,0.769,0.561,1.411,0.81c1.77,0.69,3.437,0.121,4.323-0.126c0.775-0.215,1.017,0.408,0.769,1.041
			c0.592-0.094,2.172-0.702,2.172-2.286c0-0.806-0.505-1.381-0.843-1.601l0.003-0.003c0.588-0.158,0.941-0.435,1.543-0.912
			c-0.263-0.025-0.533-0.083-0.843-0.196c0.059,0.012,0.647,0.137,1.047-0.141c0.434-0.302,0.963-1.45,1.444-1.983
			c-0.418,0.119-0.912,0.047-1.091,0.022c0,0,0.899-0.002,1.206-0.651c0.125-0.225,0.555-1.401,0.958-1.965
			c-0.264,0.068-0.588,0.084-1.066,0.146c0.508-0.137,0.902-0.22,1.159-0.956c0.173-0.494,0.415-1.198,0.539-1.432
			c0.434-0.057,0.961-0.214,1.459-0.418c0.188,0.659,0.361,2.517,2.555,2.814c1.957,0.268,3.002-0.312,3.341,0.12
			c0.458,0.586-0.896,1.447-1.28,1.712c-0.383,0.258-0.656,0.529-0.742,0.849c-0.492-0.448-0.957,0.033-0.93,0.359
			c-0.49-0.299-0.762,0.161-0.824,0.386c-0.578-0.332-0.969-1.037-1.828-1.014c-0.549,0.016-1.064,0.222-1.224,0.914
			c-1.091,0.063-1.417,1.171-1.054,1.948c-0.21,0.237-0.424,0.762-0.322,1.388c0.198,1.195,0.994,2.312,1.986,2.524
			c-0.486-1.059,0.021-1.785,0.623-1.453c0.527,0.288,0.838,0.666,1.72,0.961c1.483,0.494,3.084-0.151,3.636-0.271
			c0.686-0.147,1.328,0.197,1.07,1.275c0.892-0.183,1.561-0.592,1.882-1.406c0.392-0.989,0.007-2.055-1.058-2.489v-0.004
			c0.258-0.042,0.804,0.019,1.274,0.036l-0.632-0.504c0.408,0.21,0.792,0.389,1.214,0.268c0.101-0.029,0.239-0.085,0.406-0.159
			c-0.017,0.041-0.024,0.082-0.04,0.124c-0.195,0.688,0.084,1.245,0.55,1.563c-0.286,1.361,1.47,2.963,3.029,2.963
			c-0.75-0.705-0.354-1.81,0.497-1.549c0.507,0.155,1.143,0.454,1.873,0.493c1.805,0.098,2.759-0.598,3.475-0.915
			c0.623-0.279,0.701,0.461,0.588,1.077c1.286-0.349,2.399-1.388,2.174-2.972c-0.074-0.511-0.432-1.172-0.976-1.54
			c0.164-0.149,0.338-0.344,0.511-0.612c-0.293-0.033-0.754-0.126-0.754-0.126c0.162,0.01,0.713,0.003,1.127-0.637
			c0.465-0.72,0.49-1.167,0.872-1.869c-0.331,0.008-0.846,0.009-0.846,0.009c0.616-0.093,0.894-0.333,1.063-0.912
			c0.297-1.028,0.645-2.01,0.645-2.01l-0.863,0.251c0.539-0.225,0.782-0.522,0.896-1.297c0.183-1.295,0.33-1.87,0.33-1.87
			l-0.778,0.311c0.008-0.003,0.519-0.247,0.554-1.046c0.066-1.453,0.219-2.332,0.219-2.332c-0.646,0.338-1.1,0.528-1.1,0.528
			c0.507-0.59,1-2.625,0.057-3.912c-1.33,2.155-3.777,1.637-4.387,2.91c-0.15,0.316-0.204,0.843,0.094,1.268
			c-0.175,0.105-0.287,0.153-0.388,0.241c-1.252-1.176-0.04-2.996,0.213-3.963c0.229-0.889,0.24-1.583,0.152-2.117
			c0.308,0.065,0.565,0.101,0.731,0.11c-0.313-0.476-0.285-1.298-0.469-2.146c-0.086-0.579-0.421-1.17-1.184-1.3
			c0.07-0.208-0.008-0.538-0.271-0.614c2.598-1.345,3.77-6.016,0.99-8.358c-3.491-2.938-10.064,1.653-12.984,1.849
			c-2.971,0.2-3.338-2.604-2.336-3.653c0.777-0.814,1.977-1.016,2.459-0.938c-0.064,0.741,0.407,2.32,2.342,2.304
			c4.865-0.041,6.353-7.946,5.535-10.022c-1.84,3.485-3.263,4.445-7.484,4.747c-9.297,0.663-7.396,10.347-1.303,10.518
			c3.719,0.105,9.76-4.293,11.608-2.256c0.862,0.948,0.067,2.389-1.353,2.985c-0.143-0.336-0.586-0.406-0.851-0.115
			c-0.396-0.675-1.239-0.727-3.229-1.145c0.041,0.21,0.07,0.415,0.096,0.615c-0.779,0.1-1.646,0.232-2.005,0.992
			c0.093-0.437,0.252-0.742,0.292-0.859c-1.493,0.878-2.698,0.562-3.207,1.666c-0.02-0.012-0.034-0.022-0.053-0.035
			c0.026-0.392,0.109-0.747,0.109-0.747c-0.229,0.163-0.449,0.292-0.669,0.4c-0.493-0.29-1.041-0.563-1.639-0.808
			c0.146,0.467,0.263,0.907,0.362,1.332c-0.432,0.176-0.765,0.378-0.951,0.818c0.015-0.084,0.183-0.534,0.318-0.901
			c-1.242,0.664-2.244,0.139-2.882,1.128c0.077-0.131,0.238-0.525,0.4-0.741c-1.177,0.285-2-0.218-2.843,0.417
			c0,0,0.369-0.405,0.648-0.517c-0.818-0.075-1.835-0.521-1.835-0.521c0.124-0.431,0.195-0.649,0.31-1.059
			c0,0-0.728-0.567-1.156-0.804c0,0,0.292-0.053,0.592-0.031c-0.341-0.249-0.521-1.228-1.277-1.598
			c0.313-0.171,0.577-0.446,0.81-0.947c0.492-1.059,0.653-2.778,0.083-4.661c-0.508-1.673-1.277-2.418-1.277-2.418
			c-0.149,1.207-0.666,2.363-1.466,3.367c-0.022-0.569-0.583-1.663-1.175-2.03c0.195,0.029,0.725-0.13,0.725-0.13
			c-0.895-0.359-1.271-1.68-1.949-2.236c-0.439-0.36-1.022-0.605-1.72-0.56c-0.167-0.727-0.316-1.557-0.331-1.881
			c-0.034-0.638-0.012-1.297,0.316-2.083c-0.96,0.353-1.828,0.875-2.318,1.328c-0.304-1.866-2.334-2.075-2.609-4.741
			c-1.692,1.515-2.104,3.825-2.104,3.825c-0.93-1.294-2.138-1.814-2.838-2.047c0.214,0.932-0.22,2.259-0.763,2.975
			c-0.378,0.5-0.678,0.865-0.917,1.324c0.009-0.316-0.071-0.586-0.13-0.734c-0.292,0.926-1.379,1.458-1.999,2.066
			c-0.539,0.529-0.774,1.031-0.771,1.662l-0.31-0.688c-0.077,0.557-0.585,1.74-0.707,2.53c-0.173,1.147,0.335,2.341,1.41,3.197
			c-0.359,0.023-0.669,0.096-0.852,0.104c-0.753,0.029-0.952-0.921-1.795-0.798c0.378,0.575-0.533,1.987,0.289,2.799
			c-0.205-0.014-0.399-0.149-0.657-0.259c0.182,0.516,0.306,1.216,0.523,1.672c0.422,0.883,0.859,0.859,1.044,0.981
			c-0.031,0.155-0.012,0.931-0.998,0.406c-0.827-0.44-1.339,0.325-1.5,0.612c0.846,0.053,1.265,1.104,2.102,1.519
			c0.753,0.376,1.676,0.357,2.221-0.293c0.348,0.455,1.069,0.416,1.268-0.019c0.223,0.069,0.536,0.031,0.607-0.302
			c0.022-0.103,0.024-0.206,0.024-0.313c0.624,0.261,1.408,0.31,1.789,0.253c-0.218-0.313-0.793-1.054-0.961-1.641
			c0.492-0.352,1.1-0.771,1.413-1.33c0.065-0.116,0.124-0.243,0.181-0.375c0.774,2.192-1.042,2.325-0.187,3.521
			c0.375-0.57,1.054-0.529,1.513-1.022c0.638-0.684,0.409-1.526,0.69-1.723c-0.009,0.243-0.018,0.453-0.012,0.596
			c0.025,0.609,0.202,1.096,0.276,1.567c-0.427,0.255-1.264,0.414-1.717,0.499c0.437,0.566,1.2,0.889,1.432,1.006
			c-0.038,0.204,0.015,0.394,0.164,0.481c0.275,0.162,0.666,0.151,0.936-0.067c0.784,0.247,1.422,0.134,1.77-0.188
			c1.029-0.955,0.127-2.463-0.096-4.167C103.365,21.807,103.578,21.771,103.786,21.729z M133.604,46.204
			c-0.406-0.224-0.813,0.111-0.752,0.496c-0.289-0.193-0.637-0.022-0.729,0.251c-0.343-0.115-0.851-0.414-1.295-0.591
			c0.224-0.331,0.428-0.711,0.819-1.114l-1.068-0.131c0.208,0.019,1.078,0.129,1.477-0.635c0.193-0.377,0.491-0.932,0.866-1.471
			l-0.884,0.055c0.439-0.078,0.631-0.196,0.811-0.63c0.147-0.366,0.318-0.886,0.412-1.182c0.789,0.316,0.801,0.751,0.813,1.292
			C134.127,44.411,133.165,45.181,133.604,46.204z"/>
		<path d="M103.786,21.729c0.39,0.397,0.647,0.801,0.75,1.315c0.393,1.923-1.546,4.008-2.058,6.573
			c-0.189,0.215-1.516,1.859-0.263,3.402c-0.322,0.183-0.431,0.688-0.232,1.319c0.186,0.588,0.626,1.06,1.1,1.037
			c-0.043,0.572-0.173,0.92-0.455,0.947c-0.351,0.072-0.896-0.355-1.273-0.525c-0.227-0.087-0.32,0.015-0.32,0.015
			c0.555-0.94-0.18-1.333-0.536-1.16c0.201-0.504-0.081-0.933-0.477-1.022c0.13-0.705,0.551-1.469,0.086-2.094
			c-0.223-0.304-0.619-0.507-1.236-0.408c-0.514-0.853-1.841-0.879-2.584-0.023c-1.602,0.04-2.445,2.255-2.318,3.377
			c0.998-1.232,1.9-0.755,1.863-0.178c-0.044,0.675-0.276,1.063-0.202,1.981c0.146,1.792,1.463,2.527,1.606,3.317
			c0.099,0.546-1.271,0.608-1.271,0.608c0.759,0.962,2.079,1.541,3.03,1.432c0.906-0.103,1.414-0.626,1.718-1.055
			c0,0,1.09,0.869,1.558,1.345c0,0,0.084-0.384,0.199-0.705c-0.056,0.559,0.056,0.802,0.368,0.943
			c0.902,0.409,1.962,0.567,2.485,0.843l-0.129-0.861c0,0,0.121,0.816,0.939,0.947c0.697,0.108,1.716,0.116,1.716,0.116
			c-0.003,1.108-0.27,1.602-0.561,2.295c-0.229-0.153-0.787-0.112-0.998,0.411c-0.337-0.166-0.632,0.08-0.632,0.08
			c-0.861-0.449-1.574-1.329-2.544-1.113c-0.632,0.142-1.019,0.491-1.221,1.182c-1.045,0.234-1.112,1.547-0.698,2.341
			c-0.18,0.351-0.188,0.767-0.086,1.3c0.214,1.085,1.373,2.438,2.355,2.498c-0.518-1.024-0.074-1.852,0.653-1.386
			c0.419,0.265,0.769,0.561,1.411,0.81c1.77,0.69,3.437,0.121,4.323-0.126c0.775-0.215,1.017,0.408,0.769,1.041
			c0.592-0.094,2.172-0.702,2.172-2.286c0-0.806-0.505-1.381-0.843-1.601l0.003-0.003c0.588-0.158,0.941-0.435,1.543-0.912
			c-0.263-0.025-0.533-0.083-0.843-0.196c0.059,0.012,0.647,0.137,1.047-0.141c0.434-0.302,0.963-1.45,1.444-1.983
			c-0.418,0.119-0.912,0.047-1.091,0.022c0,0,0.899-0.002,1.206-0.651c0.125-0.225,0.555-1.401,0.958-1.965
			c-0.264,0.068-0.588,0.084-1.066,0.146c0.508-0.137,0.902-0.22,1.159-0.956c0.173-0.494,0.415-1.198,0.539-1.432
			c0.434-0.057,0.961-0.214,1.459-0.418c0.188,0.659,0.361,2.517,2.555,2.814c1.957,0.268,3.002-0.312,3.341,0.12
			c0.458,0.586-0.896,1.447-1.28,1.712c-0.383,0.258-0.656,0.529-0.742,0.849c-0.492-0.448-0.957,0.033-0.93,0.359
			c-0.49-0.299-0.762,0.161-0.824,0.386c-0.578-0.332-0.969-1.037-1.828-1.014c-0.549,0.016-1.064,0.222-1.224,0.914
			c-1.091,0.063-1.417,1.171-1.054,1.948c-0.21,0.237-0.424,0.762-0.322,1.388c0.198,1.195,0.994,2.312,1.986,2.524
			c-0.486-1.059,0.021-1.785,0.623-1.453c0.527,0.288,0.838,0.666,1.72,0.961c1.483,0.494,3.084-0.151,3.636-0.271
			c0.686-0.147,1.328,0.197,1.07,1.275c0.892-0.183,1.561-0.592,1.882-1.406c0.392-0.989,0.007-2.055-1.058-2.489v-0.004
			c0.258-0.042,0.804,0.019,1.274,0.036l-0.632-0.504c0.408,0.21,0.792,0.389,1.214,0.268c0.101-0.029,0.239-0.085,0.406-0.159
			c-0.017,0.041-0.024,0.082-0.04,0.124c-0.195,0.688,0.084,1.245,0.55,1.563c-0.286,1.361,1.47,2.963,3.029,2.963
			c-0.75-0.705-0.354-1.81,0.497-1.549c0.507,0.155,1.143,0.454,1.873,0.493c1.805,0.098,2.759-0.598,3.475-0.915
			c0.623-0.279,0.701,0.461,0.588,1.077c1.286-0.349,2.399-1.388,2.174-2.972c-0.074-0.511-0.432-1.172-0.976-1.54
			c0.164-0.149,0.338-0.344,0.511-0.612c-0.293-0.033-0.754-0.126-0.754-0.126c0.162,0.01,0.713,0.003,1.127-0.637
			c0.465-0.72,0.49-1.167,0.872-1.869c-0.331,0.008-0.846,0.009-0.846,0.009c0.616-0.093,0.894-0.333,1.063-0.912
			c0.297-1.028,0.645-2.01,0.645-2.01l-0.863,0.251c0.539-0.225,0.782-0.522,0.896-1.297c0.183-1.295,0.33-1.87,0.33-1.87
			l-0.778,0.311c0.008-0.003,0.519-0.247,0.554-1.046c0.066-1.453,0.219-2.332,0.219-2.332c-0.646,0.338-1.1,0.528-1.1,0.528
			c0.507-0.59,1-2.625,0.057-3.912c-1.33,2.155-3.777,1.637-4.387,2.91c-0.15,0.316-0.204,0.843,0.094,1.268
			c-0.175,0.105-0.287,0.153-0.388,0.241c-1.252-1.176-0.04-2.996,0.213-3.963c0.229-0.889,0.24-1.583,0.152-2.117
			c0.308,0.065,0.565,0.101,0.731,0.11c-0.313-0.476-0.285-1.298-0.469-2.146c-0.086-0.579-0.421-1.17-1.184-1.3
			c0.07-0.208-0.008-0.538-0.271-0.614c2.598-1.345,3.77-6.016,0.99-8.358c-3.491-2.938-10.064,1.653-12.984,1.849
			c-2.971,0.2-3.338-2.604-2.336-3.653c0.777-0.814,1.977-1.016,2.459-0.938c-0.064,0.741,0.407,2.32,2.342,2.304
			c4.865-0.041,6.353-7.946,5.535-10.022c-1.84,3.485-3.263,4.445-7.484,4.747c-9.297,0.663-7.396,10.347-1.303,10.518
			c3.719,0.105,9.76-4.293,11.608-2.256c0.862,0.948,0.067,2.389-1.353,2.985c-0.143-0.336-0.586-0.406-0.851-0.115
			c-0.396-0.675-1.239-0.727-3.229-1.145c0.041,0.21,0.07,0.415,0.096,0.615c-0.779,0.1-1.646,0.232-2.005,0.992
			c0.093-0.437,0.252-0.742,0.292-0.859c-1.493,0.878-2.698,0.562-3.207,1.666c-0.02-0.012-0.034-0.022-0.053-0.035
			c0.026-0.392,0.109-0.747,0.109-0.747c-0.229,0.163-0.449,0.292-0.669,0.4c-0.493-0.29-1.041-0.563-1.639-0.808
			c0.146,0.467,0.263,0.907,0.362,1.332c-0.432,0.176-0.765,0.378-0.951,0.818c0.015-0.084,0.183-0.534,0.318-0.901
			c-1.242,0.664-2.244,0.139-2.882,1.128c0.077-0.131,0.238-0.525,0.4-0.741c-1.177,0.285-2-0.218-2.843,0.417
			c0,0,0.369-0.405,0.648-0.517c-0.818-0.075-1.835-0.521-1.835-0.521c0.124-0.431,0.195-0.649,0.31-1.059
			c0,0-0.728-0.567-1.156-0.804c0,0,0.292-0.053,0.592-0.031c-0.341-0.249-0.521-1.228-1.277-1.598
			c0.313-0.171,0.577-0.446,0.81-0.947c0.492-1.059,0.653-2.778,0.083-4.661c-0.508-1.673-1.277-2.418-1.277-2.418
			c-0.149,1.207-0.666,2.363-1.466,3.367c-0.022-0.569-0.583-1.663-1.175-2.03c0.195,0.029,0.725-0.13,0.725-0.13
			c-0.895-0.359-1.271-1.68-1.949-2.236c-0.439-0.36-1.022-0.605-1.72-0.56c-0.167-0.727-0.316-1.557-0.331-1.881
			c-0.034-0.638-0.012-1.297,0.316-2.083c-0.96,0.353-1.828,0.875-2.318,1.328c-0.304-1.866-2.334-2.075-2.609-4.741
			c-1.692,1.515-2.104,3.825-2.104,3.825c-0.93-1.294-2.138-1.814-2.838-2.047c0.214,0.932-0.22,2.259-0.763,2.975
			c-0.378,0.5-0.678,0.865-0.917,1.324c0.009-0.316-0.071-0.586-0.13-0.734c-0.292,0.926-1.379,1.458-1.999,2.066
			c-0.539,0.529-0.774,1.031-0.771,1.662l-0.31-0.688c-0.077,0.557-0.585,1.74-0.707,2.53c-0.173,1.147,0.335,2.341,1.41,3.197
			c-0.359,0.023-0.669,0.096-0.852,0.104c-0.753,0.029-0.952-0.921-1.795-0.798c0.378,0.575-0.533,1.987,0.289,2.799
			c-0.205-0.014-0.399-0.149-0.657-0.259c0.182,0.516,0.306,1.216,0.523,1.672c0.422,0.883,0.859,0.859,1.044,0.981
			c-0.031,0.155-0.012,0.931-0.998,0.406c-0.827-0.44-1.339,0.325-1.5,0.612c0.846,0.053,1.265,1.104,2.102,1.519
			c0.753,0.376,1.676,0.357,2.221-0.293c0.348,0.455,1.069,0.416,1.268-0.019c0.223,0.069,0.536,0.031,0.607-0.302
			c0.022-0.103,0.024-0.206,0.024-0.313c0.624,0.261,1.408,0.31,1.789,0.253c-0.218-0.313-0.793-1.054-0.961-1.641
			c0.492-0.352,1.1-0.771,1.413-1.33c0.065-0.116,0.124-0.243,0.181-0.375c0.774,2.192-1.042,2.325-0.187,3.521
			c0.375-0.57,1.054-0.529,1.513-1.022c0.638-0.684,0.409-1.526,0.69-1.723c-0.009,0.243-0.018,0.453-0.012,0.596
			c0.025,0.609,0.202,1.096,0.276,1.567c-0.427,0.255-1.264,0.414-1.717,0.499c0.437,0.566,1.2,0.889,1.432,1.006
			c-0.038,0.204,0.015,0.394,0.164,0.481c0.275,0.162,0.666,0.151,0.936-0.067c0.784,0.247,1.422,0.134,1.77-0.188
			c1.029-0.955,0.127-2.463-0.096-4.167C103.365,21.807,103.578,21.771,103.786,21.729z M92.856,16.358
			c-0.211-0.69-0.143-1.494,0.229-2.504c0.108,0.449,0.641,1.058,0.945,1.219c-0.375-0.662-0.362-1.418-0.325-1.786
			c0.143-1.516,1.655-1.945,2.166-2.652c-0.015,0.512,0.068,0.991,0.366,1.536c-0.063-0.92,0.35-1.794,1.05-2.682
			c0.341-0.432,1.057-1.373,1.088-2.837c1.057,0.473,2.513,1.566,2.346,3.397c-0.13,1.431-1.147,1.5-1.673,1.351
			c-0.902-0.256-0.884-1.412-0.233-1.682c0.555-0.229,0.951,0.16,1.008,0.417c0.167-0.563-0.54-1.007-1.166-0.743
			c-0.93,0.394-1.038,1.765-0.009,2.293c-1.934,0.784-3.307,2.521-3.449,4.467c-0.083,1.128,0.245,2.202,0.871,3.11
			c-0.046,0.371-0.056,0.729-0.236,1.11c-0.08-0.632-0.254-1.075-0.478-1.385l0.003,0.001
			C94.675,18.013,93.699,18.389,92.856,16.358z M101.744,17.083c0.102-1.004-0.496-1.661-0.682-2.189
			c-0.18-0.486-0.139-0.936-0.139-0.936s-0.561,0.226-0.686,1.344c-0.099,0.905-0.536,1.129-0.536,1.129s-0.102-0.143-0.291-0.329
			c-0.059-0.219-0.084-0.449-0.063-0.688c0.093-1.202,1.203-2.096,2.479-1.998c1.277,0.1,2.238,1.155,2.142,2.359
			c-0.035,0.454-0.218,0.861-0.5,1.191c-0.307-0.793-0.902-1.191-1.181-1.4C102.395,16.193,101.97,16.929,101.744,17.083z
			 M103.318,19.864c0.362-1.01,0.409-1.79,0.297-2.396c0.468-0.443,0.754-1.026,0.803-1.659c0.111-1.447-1.035-2.722-2.557-2.84
			c-0.763-0.059-1.494,0.175-2.061,0.66c-0.53,0.453-0.849,1.075-0.902,1.751c-0.009,0.104-0.009,0.206-0.003,0.307
			c-0.329-0.217-0.747-0.403-1.24-0.434c0.471,0.961-0.17,1.787-0.682,2.331c-0.184-0.463-0.279-0.964-0.267-1.484
			c0.047-2.287,2.511-4.099,4.599-4.054c2.573,0.053,4.479,1.954,4.432,4.242c-0.035,1.565-1.01,2.909-2.424,3.587
			C103.315,19.87,103.318,19.867,103.318,19.864z M96.258,16.089c-0.012,0.653,0.124,1.277,0.378,1.846
			c-0.046,0.051-0.086,0.097-0.117,0.136c-0.149,0.199-0.245,0.388-0.313,0.566c-0.412-0.74-0.617-1.578-0.56-2.453
			c0.161-2.513,2.916-4.997,5.727-4.52C97.743,11.861,96.293,14.485,96.258,16.089z M91.706,21.979
			c-0.341-0.431-0.396-0.933-0.521-1.301c0.458,0.217,0.867,0.296,1.32,0.285c-1.779-0.945-0.839-2.167-0.992-2.798
			c1.196,1.618,2.749-0.31,3.58,1.302c-0.137-0.09-0.288-0.159-0.453-0.198c-0.812-0.191-1.636,0.376-1.847,1.264
			c-0.194,0.832,0.224,1.652,0.942,1.908C92.989,22.599,92.103,22.482,91.706,21.979z M95.36,21.133
			c-0.158,0.676-0.777,1.108-1.382,0.967c-0.607-0.143-0.97-0.806-0.812-1.481c0.158-0.677,0.778-1.108,1.385-0.967
			C95.156,19.794,95.518,20.458,95.36,21.133z M97.142,24.384c-0.524-0.063-0.84-0.172-1.162-0.349
			c0.015-0.121,0.046-0.247,0.117-0.378c0.065-0.124,0.198-0.251,0.372-0.388C96.705,23.813,97.142,24.384,97.142,24.384z
			 M99.878,22.354c-0.077,1.639-0.988,1.398-1.54,1.877c-0.103-0.487,0.722-0.871,0.577-2.077c-0.087-0.71-0.288-1.476-0.024-1.972
			c0.064-0.101,0.142-0.193,0.219-0.262c0.136-0.11,0.304-0.174,0.505-0.151c0.449,0.049,0.651,0.447,0.737,0.945
			C100.427,21.621,99.915,21.558,99.878,22.354z M100.504,25.441c-0.338-0.112-0.788-0.341-0.93-0.502
			c0.286-0.039,0.868-0.158,1.122-0.26C100.693,24.923,100.637,25.174,100.504,25.441z M101.415,25.639
			c-0.096,0.198-0.381,0.437-0.588,0.343c-0.124-0.056-0.09-0.202,0.08-0.53c0.453-0.869-0.112-1.799-0.164-2.608
			c-0.059-0.807,0.415-3.271-0.973-3.496c-1.565-0.253-1.445,1.912-2.399,2.78c-0.7,0.72-1.608,0.824-1.738,1.855
			c-0.043,0.216,0.099,0.645-0.121,0.683c-0.103,0.021-0.192-0.02-0.282-0.243c-0.214-0.532-0.065-1.104,0.239-1.409
			c0.304-0.307,1.265-0.812,1.683-1.822c0.458-1.108,1.345-2.844,2.794-2.583c1.81,0.322,1.222,3.212,1.333,4.071
			C101.437,23.872,101.827,24.725,101.415,25.639z M103.135,25.384c-0.4,0.747-1.296,0.365-1.296,0.365
			c0.462-1.252-0.059-1.961-0.151-3.491c-0.078-1.243,0.415-3.661-1.583-4.06c-2.532-0.503-2.919,2.782-3.806,3.629
			c-0.645,0.616-1.438,1.027-1.512,1.82c-0.069,0.727,0.112,0.869,0.248,1.163c-0.015,0.308-0.625,0.433-0.806-0.13
			c0.195-0.608-0.062-1.153-0.604-1.229c-0.666-0.095-1.01,0.567-0.753,0.959c-0.019-0.172,0.227-0.786,0.753-0.615
			c0.338,0.11,0.391,0.53,0.236,0.834c-0.487,0.943-1.808,0.71-2.594-0.147c-0.283-0.307-0.459-0.628-1.017-0.826
			c0.647-0.756,1.726,0.78,2.184-0.08c0.583-1.097,1.361-0.342,2.566-1.269c1.912-1.469,1.072-3.256,2.021-4.173
			c0.722-0.696,1.196-1.215,1.212-2.338c0,0,1.097,0.378,1.282,1.416c0,0,1.159-0.708,1.163-2.183c0,0,1.184,1.785,0.474,2.812
			c0,0,1.026-0.118,1.45-1.462c0.772,0.834,0.884,1.718,0.251,3.567C102.144,22.018,103.727,24.283,103.135,25.384z M108.022,17.407
			c-0.013,0.864-1.333,3.59-4.916,3.915c-0.009-0.292,0.006-0.592,0.063-0.895c1.739-0.685,2.978-2.267,3.015-4.131
			c0.041-1.963-1.273-3.672-3.201-4.369c0.586-0.225,0.874-0.781,0.902-1.183c0.058-0.736-0.428-1.468-1.299-1.348
			c-0.437,0.059-0.89,0.514-0.729,0.935c0.047-0.317,0.381-0.592,0.818-0.585c1.228,0.02,1.001,2.148-0.517,1.849
			c-0.62-0.123-0.912-0.463-1.035-1.488c-0.116-0.928-0.028-1.843,0.18-2.591c0.353-1.28,0.926-1.967,1.227-2.4
			c0.496,2.13,2.498,2.539,2.463,4.225c-1.443,1.885-0.666,2.957-0.102,3.262c0.707,0.382,1.376,0.16,1.624-0.487
			c0.152-0.404-0.043-0.779-0.257-0.953c-0.217-0.173-0.642-0.204-0.862,0.057c1.045-0.125,0.954,0.967,0.403,1.141
			c-0.288,0.09-0.735,0.062-1.041-0.492c-0.245-0.442-0.217-1.51,0.7-2.381c0.577-0.646,1.583-1.09,1.583-1.09
			c-0.316,1.5,0.279,2.733,0.431,4.137c0.102,0.948-0.356,1.924-0.839,2.56c1.019-0.332,1.268-1.797,1.268-1.797
			c0.359,0.374,1.249,3.722-1.441,4.638C106.897,17.989,107.508,17.89,108.022,17.407z M95.016,20.811
			c0.022-0.051,0.037-0.104,0.05-0.155l0.043,0.049c0.012,0.116,0.009,0.24-0.022,0.363c-0.117,0.51-0.582,0.835-1.038,0.729
			c-0.456-0.107-0.728-0.606-0.61-1.114c0.114-0.483,0.54-0.801,0.973-0.739l0.041,0.046c-0.177,0.038-0.341,0.165-0.431,0.354
			c-0.143,0.306-0.037,0.658,0.235,0.788C94.532,21.26,94.87,21.117,95.016,20.811z M136.216,32.565
			c-0.317,0.877-1.603,3.259,0.278,4.641c0.828-0.906,2.035-0.858,2.414,0.123c0.389,1.004,0.014,3.689-0.309,5.291
			c-0.72,3.569-2.396,4.493-3.856,3.918c-0.919-0.363-0.785-0.942-0.638-1.373c0.547-1.585,0.57-2.775,0.359-3.302
			c-0.377-1.289-1.654-0.981-3.511-1.679c-2.726-1.106-4.321-2.54-4.656-5.412c-0.172-1.5-0.026-2.675,0.078-3.792
			c0.741-0.262,1.101-1.03,1.015-1.962c-0.063-0.666-0.416-1.494-1.088-2.332c1.403-0.432,2.854-0.697,4.446-0.482
			c0.026,0.008,0.056,0.016,0.087,0.022c-0.389,1.196,0.165,2.09,0.07,2.99c0.925-0.27,2.289,0.467,3.146-0.375
			c0.325,0.755,1.354,1.231,2.26,1.494C136.471,30.935,136.525,31.708,136.216,32.565z M133.604,46.204
			c-0.406-0.224-0.813,0.111-0.752,0.496c-0.289-0.193-0.637-0.022-0.729,0.251c-0.343-0.115-0.851-0.414-1.295-0.591
			c0.224-0.331,0.428-0.711,0.819-1.114l-1.068-0.131c0.208,0.019,1.078,0.129,1.477-0.635c0.193-0.377,0.491-0.932,0.866-1.471
			l-0.884,0.055c0.439-0.078,0.631-0.196,0.811-0.63c0.147-0.366,0.318-0.886,0.412-1.182c0.789,0.316,0.801,0.751,0.813,1.292
			C134.127,44.411,133.165,45.181,133.604,46.204z M133.371,47.684c1.738,1.71,4.54,0.621,4.54,0.621
			c-0.582,0.636-1.731,1.032-2.671,0.916c-1.4-0.172-2.172-0.758-2.582-1.547c-0.127-0.249-0.186-0.543,0-0.612
			C132.889,46.972,133.07,47.386,133.371,47.684z M125.866,34.759c0.224,2.091,0.938,4.183,4.487,5.479
			c-0.961-0.294-4.778-1.295-5.084-5.467c-0.045-0.626-0.049-3.011,0.061-3.722c0.131,0.029,0.438,0.042,0.564,0.035
			C125.838,31.888,125.702,33.671,125.866,34.759z M133.777,23.992c1.666-0.949,2.099-2.553,1.101-3.677
			c-2.012-2.261-8.308,2.204-11.81,2.2c-5.479-0.004-7.547-9.014,1.174-9.556c5.066-0.314,6.193-2.228,7.252-3.902
			c0.152,1.419-1.146,7.657-4.738,8.17c-1.436,0.203-2.287-0.467-2.371-1.516c-0.046-0.587,0.362-1.282,0.991-1.422
			c0.49-0.11,1.42-0.037,1.396,1.131c0.693-0.816-0.351-1.933-1.549-1.602c-0.521,0.144-0.994,0.432-1.271,1.12
			c-0.669-0.031-2.29,0.239-3.112,1.288c-1.054,1.34-0.495,4.39,2.804,4.265c2.971-0.112,9.725-4.737,12.875-1.869
			c1.729,1.574,1.81,4.773-0.143,6.796c-0.458,0.473-1.148,1.018-1.941,0.659c-0.621-0.282-0.858-0.788-0.947-1.255
			C133.366,24.174,133.542,24.127,133.777,23.992z M132.496,24.216c0.042-0.226,0.104-0.342,0.242-0.332
			c0.166,0.013,0.225,0.141,0.24,0.323c0.041,0.559,0.018,0.881,0.496,1.615c0.26,0.402,0.998,0.914,1.752,0.915
			c0.221,0.02,0.307,0.085,0.326,0.206c0.008,0.124-0.035,0.263-0.236,0.298C134.252,27.496,132.098,26.161,132.496,24.216z
			 M132.115,23.949c0,0-0.359,1.546,0.6,2.582c0.945,1.016,2.301,1.346,2.95,1.015c1.344-0.141,1.114,1.737,1.351,2.559
			c0,0-2.593-0.514-2.854-2.033c-0.792,1.157-1.881,0.532-2.783,0.634c-0.035-0.814-0.592-1.708,0.208-2.949
			c-2.325,0.327-1.771-2.218-1.948-2.769C131.023,23.247,131.703,23.316,132.115,23.949z M129.879,25.768
			c-1.324-0.092-2.598,0.186-3.848,0.594c-0.145-0.159-0.299-0.316-0.461-0.476c1.344-0.459,2.648-0.81,3.914-0.741
			C129.566,25.384,129.689,25.594,129.879,25.768z M126.973,23.816c0,0-0.063,0.484,0.068,0.905c0.66-1.154,1.34-1.216,2.203-1.304
			c0.046,0.522,0.066,0.993,0.148,1.399c-1.386-0.071-2.764,0.298-4.146,0.776c-0.227-0.194-0.469-0.382-0.729-0.57
			C125.184,24.127,126.033,24.305,126.973,23.816z M126.928,29.032c0.09,0.806-0.38,1.56-1.177,1.551
			c-0.646-0.008-1.265-0.326-1.368-1.051c-0.097-0.657,0.68-1.38,1.49-0.86c-0.135-0.711-1.684-0.741-1.932,0.558
			c-0.094,0.49,0.123,1.281,0.965,1.684c-0.081,1.14-0.137,2.955-0.053,3.843c0.305,3.119,1.733,4.747,5.42,5.838
			c0.914,0.271,2.021,0.407,2.021,0.407c-5.213,0.12-9.692-3.092-9.176-9.169c0.338-4.006,0.139-5.512-0.416-7.446
			C123.964,25.042,126.678,26.866,126.928,29.032z M118.866,38.117c0.22,0.329,0.472,0.646,0.702,0.9
			c-0.147,0.108-0.307,0.209-0.465,0.306c-0.22-0.22-0.523-0.594-0.713-0.947C118.544,38.301,118.705,38.216,118.866,38.117z
			 M116.969,38.415c0.046-0.179,0.087-0.343,0.112-0.447c2.021-0.485,3.577-2.702,5.64-3.583c0.022,0.146,0.047,0.29,0.077,0.431
			c-1.112,0.492-2.091,1.336-3.245,2.338C118.902,37.722,118.102,38.26,116.969,38.415z M119.219,37.876
			c0.141-0.099,0.281-0.208,0.422-0.33c0.187-0.16,0.354-0.303,0.52-0.445c0.193,0.373,0.408,0.676,0.638,0.907
			c-0.293,0.258-0.583,0.514-0.887,0.753C119.65,38.537,119.43,38.207,119.219,37.876z M120.493,36.821
			c0.138-0.119,0.271-0.229,0.401-0.332c0.168,0.356,0.396,0.651,0.631,0.881c-0.142,0.117-0.28,0.24-0.416,0.359
			C120.861,37.509,120.656,37.152,120.493,36.821z M121.236,36.217c0.348-0.271,0.654-0.491,0.934-0.669
			c0.085,0.28,0.238,0.685,0.432,0.996c-0.262,0.177-0.509,0.361-0.752,0.553C121.589,36.868,121.396,36.579,121.236,36.217z
			 M122.525,35.332c0.117-0.066,0.236-0.123,0.346-0.178c0.092,0.363,0.199,0.705,0.33,1.03c-0.1,0.053-0.196,0.104-0.284,0.161
			C122.721,36.026,122.602,35.632,122.525,35.332z M115.968,31.012c0.21,0.661,0.083,1.294,0.083,1.294
			c-1.422,0.344-2.594,0.146-3.375-0.476c0.062,0.049,0.453,1.048,0.13,1.714c-0.734-0.596-1.497-0.545-1.791-1.466
			c0.334-0.273,0.855-0.759,1.128-1.064c0.79,0.625,2.243,0.51,2.87,0.422c-0.031-0.731-0.264-2.285-1.255-2.722
			c0.149-0.292,0.425-0.807,0.555-1.122c1.626,0.656,1.645,1.804,1.933,2.272c-0.431,0.105-0.719,0.108-1.078,0.033
			C115.429,30.087,115.76,30.368,115.968,31.012z M112.463,30.648c0.391-0.448,0.84-1.122,1.094-1.567
			c0.688,0.396,0.93,1.137,1.001,1.983C114.044,31.159,112.822,31.1,112.463,30.648z M114.462,27.148
			c0.086-0.238,0.121-0.322,0.18-0.498c2.801,1.694,5.502,1.141,8.084,0.26c0.021,0.216,0.043,0.428,0.057,0.636
			C120.208,28.461,117.553,29.028,114.462,27.148z M116.315,25.394c-0.177,0.304-0.27,0.55-0.394,0.911
			c1.255-0.939,1.986-0.488,2.749-0.571c0,0-0.143,0.643-0.059,1.136c0.797-1.441,1.529-0.995,2.644-1.357
			c0,0-0.177,0.545,0.017,1.126c0.363-0.767,0.783-1.091,1.207-1.282c0.086,0.403,0.153,0.792,0.207,1.167
			c-2.562,0.895-5.17,1.48-7.917-0.262c0.177-0.519,0.384-1.225,0.384-1.225S115.899,25.288,116.315,25.394z M115.236,23.721
			c-1.168,3.716-2.268,8.124-9.789,10.713c0.108-0.09,0.567-0.848,1.081-1.186c-0.561-0.042-1.14-0.284-1.14-0.284
			c2.197-0.589,4.323-1.471,5.969-3.071c1.75-1.7,3.077-4.555,3.66-6.311L115.236,23.721z M114.558,23.292l0.235,0.152
			c-0.49,1.26-1.695,4.328-3.719,6.175c-1.903,1.74-3.322,2.202-6.417,3.108c-0.295-0.078-0.559-0.045-0.708,0.026
			c0.161-0.398,0.125-0.789-0.102-1.163c3.056-0.64,4.305-1.051,6.564-2.73C113.014,26.962,114.558,23.292,114.558,23.292z
			 M104.97,23.017c-0.047-0.195-0.106-0.369-0.17-0.527l0.523-0.103c0.057,0.139,0.106,0.285,0.146,0.438
			c0.121,0.437,0.104,0.914,0.009,1.422l-0.539,0.045C105.039,23.833,105.063,23.4,104.97,23.017z M108.54,17.318
			c0.278,0.412,0.632,1.021,0.954,1.861c0,0-4.103,4.982-0.88,10.409c-1.2,0.747-2.743,1.11-4.035,1.394
			c-0.849-2.476,1.877-6.24,1.314-8.263c-0.177-0.64-0.453-1.091-0.738-1.414C106.888,20.609,108.233,19.284,108.54,17.318z
			 M108.81,15.509c0.545,0.796,1.097,1.845,1.425,2.831c0,0-0.264,0.27-0.449,0.492c-0.375-0.937-0.759-1.575-1.18-2.108
			C108.72,16.295,108.785,15.891,108.81,15.509z M110.879,22.563c0.137-0.269,0.316-0.485,0.316-0.485
			c0.341,1.472,1.247,2.632,1.857,3.268c0,0-0.254,0.389-0.344,0.507C112.371,25.473,111.313,24.464,110.879,22.563z
			 M112.491,26.159c-0.44,0.609-1.094,1.336-1.602,1.792c-0.379-0.697-0.5-1.247-0.623-1.781c-0.118-0.649-0.085-2.133,0.374-3.123
			C111.152,24.996,112.491,26.159,112.491,26.159z M109.937,26.133c0.112,1.032,0.716,2.021,0.716,2.021l-0.372,0.293
			c0,0-0.514-0.71-0.734-2.021c-0.666-3.953,1.903-5.778,1.903-5.778c0.111,0.173,0.284,0.314,0.284,0.314
			C109.528,22.949,109.875,25.533,109.937,26.133z M114.27,22.5c-0.093-0.022-0.475-0.038-1.094,0.161
			c0.846,0.029,1.115,0.468,1.115,0.468c-0.316,0.674-0.539,1.082-1.029,1.879c-0.567-0.59-1.547-1.865-1.77-3.287
			c0.158-0.197,0.564-0.553,0.564-0.553c0.446,0.24,0.88,0.225,0.88,0.225C114.041,21.551,114.258,22.441,114.27,22.5z
			 M113.579,14.168c0,0,0.998,1.456,0.97,3.917c-0.021,1.653-0.653,2.673-1.382,2.781c-1.292,0.195-1.522-0.841-1.54-1.184
			c-0.025-0.482,0.567-1.323,1.652-0.617c-0.146-0.853-1.906-0.846-2.083,0.404c-0.037,0.254-0.018,0.525,0.065,0.773
			c-1.342,1.255-1.983,2.447-2.194,4.455c-0.083,1.004,0.083,2.579,0.908,3.975c0,0-0.765,0.549-0.998,0.685
			c-2.275-3.51-0.729-7.448,0.288-9.071C110.858,17.744,112.72,17.348,113.579,14.168z M107.883,12.077
			c0.365-0.032,0.954,0.039,1.518,0.637c0.53,0.563,0.592,1.03,1.084,1.489c0,0-0.529,0.026-0.88,0.216c0,0,0.976,0.178,1.537,1.263
			c0.301,0.584,0.44,1.033,0.338,1.288c-0.031,0.076-0.108,0.147-0.192,0.25c-0.257,0.285-0.75,0.796-0.75,0.796
			c-0.372-1.029-0.988-2.269-1.723-3.21C108.753,13.72,108.373,12.83,107.883,12.077z M104.694,21.472
			c0.186,0.172,0.335,0.352,0.449,0.549l-0.539,0.079c-0.112-0.191-0.239-0.353-0.365-0.493 M104.239,21.607
			c0.155-0.041,0.306-0.085,0.455-0.135 M104.837,24.703l0.548-0.037c-0.202,0.786-0.548,1.633-0.856,2.504l-0.647-0.108
			C104.241,26.277,104.617,25.462,104.837,24.703z M103.692,27.481l0.686,0.139c-0.202,0.628-0.363,1.263-0.418,1.895l-0.942-0.188
			C103.126,28.788,103.39,28.152,103.692,27.481z M103.941,30.036c0.003,0.355,0.049,0.708,0.149,1.055
			c-0.218,0.042-0.512,0.108-0.512,0.108c-0.204-0.26-0.508-0.569-0.598-1.19c-0.009-0.054-0.012-0.114-0.012-0.173L103.941,30.036z
			 M102.171,31.969c-0.273-0.894,0.21-1.59,0.366-1.82c0.245,0.965,1.082,1.372,1.119,2.187c0.022,0.389-0.227,0.878-0.227,0.878
			s0.53-0.292,1.039-0.153c0.471,0.137,0.861,0.281,1.243,0.414c-0.31,0.327-0.573,0.906-1.069,1.128
			c-0.341,0.153-0.741,0.204-0.741,0.204s0.713,0.153,0.89,0.87c0.173,0.708-0.13,1.453-0.037,1.932
			c-0.558-0.662-0.945-1.001-1.286-1.813c0.297-1.626,0.074-1.892-0.134-2.217C102.992,33.057,102.4,32.725,102.171,31.969z
			 M105.255,35.828c0,0,0.537,0.787,1.178,1.395c0.022,0.734,0.251,1.327,0.443,1.937c-0.604-0.308-1.122-0.649-1.626-1.132
			C104.963,37.124,105.361,36.781,105.255,35.828z M102.413,34.34c-0.195-0.381-0.18-0.875,0.059-1.041
			c0.8,0.286,0.75,1.447,0.655,1.615C103.023,35.007,102.67,34.852,102.413,34.34z M101.074,36.234
			c0.32-0.099,0.443,0.141,0.853,0.333c1.116,0.522,1.32-0.196,1.32-0.196c0.914,1.469,1.937,2.424,3.827,3.376
			c0.034,0.115,0.155,0.436,0.167,0.5c-1.546,0.457-3.523-0.081-4.698-0.777c-0.7-0.415-1.606-1.227-1.773-2.203
			C100.703,36.832,100.727,36.342,101.074,36.234z M100.058,34.699c-0.241,0.29-1.016,1.211-0.902,2.796
			c0,0,0.165-0.381,0.347-0.458c0,0-0.716,1.011,0.62,2.597c-2.565-1.553-1.339-4.979-0.617-5.423
			C100.027,33.889,100.343,34.354,100.058,34.699z M98.781,41.188c-0.75,0.018-1.443-0.359-1.806-0.678
			c0.92-0.245,1.041-1.114,0.334-1.879c-0.396-0.426-1.168-1.353-1.168-2.405c-0.136-0.96,0.266-1.415,0.195-2.153
			c-0.084-0.845-1.187-1.111-1.723-0.677c0.204-0.855,0.939-1.914,1.881-1.753c1.037,0.176,0.672,1.217,1.153,1.918
			c0.052-0.828,0.386-1.854-0.803-2.34c0.679-0.557,1.317-0.282,1.589,0.06c0.518,0.648,0.094,1.506,0.341,2.043
			c0.137-0.539,0.391-1.008,0.255-1.771c0.508-0.057,0.796,0.237,0.877,0.646c0.065,0.332-0.189,0.894-0.285,1.464
			c-0.976,0.252-1.475,2.019-1.475,3.162c0,1.573,0.886,2.756,2.287,3.354C100.098,40.793,99.404,41.172,98.781,41.188z
			 M106.194,42.621c-0.753-0.202-0.97-0.92-1.06-1.263c-0.159,0.457-0.189,1.085-0.189,1.085c-0.192-0.059-1.416-0.392-1.84-0.591
			c-0.527-0.244-0.518-0.723-0.506-1.35c-0.232,0.339-0.368,0.706-0.368,0.706s-2.163-1.277-1.689-2.53
			c-0.22,0.065-0.354,0.454-0.354,0.454s-1.085-1.472-0.238-2.372c-0.146-0.093-0.447,0.02-0.447,0.02s0.081-0.714,0.487-1.299
			c0.213-0.311,0.551-0.605,0.762-0.494c0.136,0.071,0.279,0.224-0.111,0.798c-0.45,0.657-0.369,1.508-0.195,1.9
			c0.412,1.304,2.067,2.348,3.22,2.676c1.057,0.3,2.435,0.678,3.691,0.228c0.219,0.578,0.464,1.607,0.474,2.14
			C107.533,42.753,106.823,42.79,106.194,42.621z M105.816,46.366c0,0,0.09-0.11,0.233-0.059c0.099,0.039,0.099,0.235,0.099,0.235
			c0.09,2.944,3.626,2.861,5.064,2.222c-0.177,0.262-1.367,1.186-3.304,0.851c-0.914-0.158-1.59-0.671-2.014-1.435
			C105.639,47.721,105.443,46.841,105.816,46.366z M112.342,50.314c0.002,0.594-0.41,1.25-1.165,1.509
			c0.043-0.279-0.279-0.981-1.066-0.875c-0.438,0.061-2.833,0.959-4.301,0.25c-0.645-0.314-1.128-0.649-1.522-0.888
			c-0.712-0.431-1.574,0.023-1.549,0.958c-0.657-0.449-0.936-1.2-1.044-1.563c-0.161-0.539-0.047-1.037,0.192-1.292
			c0.691-0.733,1.931,0.061,2.498-0.178c-0.489-0.183-1.689-1.017-2.761-0.307c-0.21-0.332-0.146-1.475,0.728-1.439
			c0.545,0.023,1.627,0.49,2.051,0.513c-0.362-0.257-1.072-0.856-1.965-0.948c0.165-0.526,0.542-0.698,0.942-0.734
			c0.598-0.059,1.041,0.53,2.008,1.022c-0.434,0.883-0.006,2.6,1.41,3.313c0.825,0.414,3.1,0.883,4.797-0.676
			C111.793,49.031,112.339,49.633,112.342,50.314z M115.751,42.197c-0.32,0.679-1.036,0.781-1.519,0.777
			c0.378,0.185,1.243,0.282,1.243,0.282s-0.316,0.756-0.545,1.28c-0.372,0.839-1.633,0.886-1.633,0.886s0.505,0.235,1.088,0.279
			c-0.152,0.339-0.598,1.063-0.753,1.249c-0.146,0.178-0.552,0.67-1.624,0.378c0.483,0.4,0.808,0.485,0.808,0.485
			c-0.452,0.309-0.821,0.558-1.664,0.709c-1.104,0.202-1.345-0.342-1.345-0.342s-0.096,0.421,0.239,0.564
			c0,0-2.362,0.263-3.096-0.931c-0.496-0.81-0.444-1.288-0.36-1.601c0.127-0.468,0.571-0.429,0.555-0.228
			c-0.037,0.525,0.012,1.001,0.567,1.568c0.458,0.469,1.683,0.942,3.399-0.145c2.045-1.458,2.786-4.493,1.702-6.938
			c0.459-0.457,0.778-0.834,0.747-1.621c-0.035-0.928-0.527-1.514-0.778-1.554c0,0,0.35,0.673,0.39,1.336
			c0.034,0.578-0.041,1.212-0.924,1.706c1.119,2.165,0.567,5.108-1.239,6.598c-0.645,0.535-1.704,0.886-2.551,0.559
			c-0.904-0.365-0.957-1.335-0.66-1.983c1.205-2.645-0.046-5.238-0.366-6.139c-0.833-2.348-0.502-3.524-0.502-3.524
			c-0.248,0.159-0.399,0.488-0.461,0.772c-0.396-0.311-1.305-1.649-1.305-1.649c3.043-1.065,4.546-1.921,5.488-2.604
			c0.437,0.992,1.249,0.802,2.285,1.71c0.219-0.402,0.381-0.761,0.329-1.455c1.196,0.561,2.215,0.135,3.238,0.08
			c-0.043-0.766,0.053-1.804-0.464-2.412c0.188-0.012,0.558-0.068,0.796-0.113c-0.484-0.93-0.508-1.41-0.942-1.844
			c2.594,0.863,4.786,0.354,6.907-0.392c0.051,1.324-0.064,2.551-0.167,3.917c-0.055,0.766-0.04,1.472,0.033,2.129
			c-2.071,0.857-3.966,3.232-5.472,3.502c0.068-0.257,0.207-0.735,0.318-0.959c-0.272,0.096-0.402,0.175-0.938,0.372
			c1.741-1.062,1.106-4.016,1.106-4.016c-1.577,1.424-3.124,1.563-3.898,1.838c-0.375,0.133-0.707,0.392-0.88,0.766
			c-0.279,0.604-0.043,1.504,0.492,1.708c-0.341-0.516-0.449-1.873,0.778-2.167c1.113-0.265,1.953-0.483,3.115-1.251
			c0.378,2.141-1.401,3.32-1.885,3.504c0.512,0.042,1.02-0.047,1.469-0.2c0,0-0.39,1.458-0.523,2.059
			c-0.446,1.369-1.627,1.477-1.627,1.477s0.961,0.093,1.54,0.031C116.061,41.323,115.909,41.859,115.751,42.197z M116.172,40.25
			c0.326-0.193,0.48-0.601,0.567-0.945c0,0,0.028-0.102,0.065-0.253c0.059,0.36,0.198,0.783,0.309,1.09
			C116.768,40.219,116.467,40.246,116.172,40.25z M118.516,39.64c-0.354,0.165-0.664,0.287-0.938,0.375
			c-0.196-0.383-0.369-0.838-0.437-1.224c0.231-0.042,0.526-0.115,0.86-0.245c0.171,0.313,0.449,0.722,0.696,1.002
			C118.637,39.58,118.577,39.611,118.516,39.64z M123.275,45.116c1.55-0.947,1.733-1.703,1.379-2.229
			c-0.784-1.153-4.43,1.033-5.557-1.741c-0.152-0.455-0.221-0.72-0.289-1.221c1.67-0.908,3.045-2.622,4.506-3.462
			c1.322,3.02,4.24,4.379,6.742,4.799c-0.25,1.292-0.976,3.592-2.813,5.167c-1.203,1.025-3.086,1.058-4.053,0.294
			C122.764,46.386,122.119,45.821,123.275,45.116z M120.8,46.655c0.019-0.34,0.349-0.42,0.427-0.14
			c1.058,2.665,3.653,2.357,4.129,2.293c-0.342,0.532-3.354,0.897-4.342-1.12C120.878,47.384,120.777,46.99,120.8,46.655z
			 M126.551,50.777c-0.127,0.527-0.338,1.002-1.027,1.284c-0.006-0.929-0.891-1.28-1.696-1.108c-0.909,0.196-2.11,0.569-2.931,0.367
			c-1.205-0.294-1.531-0.747-2.11-1.11c-0.593-0.37-1.481-0.116-1.46,0.961c-0.521-0.479-0.787-1.229-0.787-1.867
			c0-0.376,0.195-0.885,0.734-0.99c0.979-0.196,1.764,0.424,2.205,0.243c-0.56-0.387-1.679-1.149-2.76-0.588
			c-0.164-0.507-0.027-1.257,0.734-1.236c0.821,0.023,1.544,0.747,2.169,0.657c-0.605-0.471-1.409-0.953-1.788-1.024
			c0.028-0.245,0.271-0.493,0.583-0.53c0.875-0.105,1.087,0.588,1.971,1.08c0.155,1.145,0.707,1.771,1.567,2.239
			c0.901,0.484,2.856,0.72,3.683,0.041v-0.001C126.334,49.494,126.708,50.122,126.551,50.777z M128.557,47.786
			c-0.299,0.164-0.644,0.349-0.841,0.42c-0.381,0.137-1.005,0.144-1.678-0.365c0.131,0.451,0.276,0.61,0.276,0.61
			c-0.396,0.044-1.408,0.048-1.83,0c-0.789-0.084-0.799-0.652-0.799-0.652s-0.178,0.285,0.094,0.59
			c-1.141-0.27-1.924-1.184-2.146-1.971c-0.079-0.296-0.083-0.494,0.109-0.549c0.12-0.035,0.235,0.077,0.335,0.263
			c0.796,1.521,3.486,2.392,5.738,0.357c1.832-1.653,2.516-4.171,2.722-5.157c0.526,0.065,1.03,0.088,1.485,0.078l0.754-0.063
			c-0.086,0.263-0.213,0.657-0.334,0.969c-0.24,0.631-1.075,0.774-1.616,0.811c0,0,0.307,0.162,1.351,0.164
			c0,0-0.277,0.614-0.585,1.089c-0.401,0.614-1.415,0.643-1.761,0.586c0,0,0.346,0.319,1.05,0.453
			c-0.151,0.192-0.349,0.528-0.528,0.807c-0.045-0.004-0.088-0.006-0.127-0.002c-0.672-0.004-1.088,0.387-1.265,0.765
			c-0.243-0.012-0.476-0.063-0.673-0.132c0.167,0.238,0.398,0.405,0.57,0.508c-0.004,0.086,0.009,0.164,0.039,0.219
			C128.898,47.583,128.738,47.634,128.557,47.786z M139.82,49.324c0.219,1.017-0.65,1.947-1.194,2.134
			c-0.021-0.605-0.226-0.942-0.651-1c-0.877-0.115-1.688,1.149-3.883,1.041c-0.707-0.033-1.377-0.403-1.9-0.544
			c-0.828-0.225-1.541,0.29-1.478,1.354c-1.282-0.578-1.804-1.7-1.366-2.422c0.569-0.94,1.447-0.322,2.51-0.669
			c-0.53-0.151-2.014-0.922-2.976,0.352c-0.53-0.55-0.304-1.232,0.147-1.511c0.701-0.433,1.836,0.165,2.512-0.033
			c-0.477-0.182-1.354-0.626-2.219-0.535c0.012-0.4,0.306-0.763,0.693-0.833c0.666-0.116,1.482,0.499,2.082,0.716
			c0.121,0.947,1.305,1.872,2.377,2.083c2.537,0.655,3.861-0.891,4.078-1.302c0.068-0.045,0.188-0.098,0.34-0.19
			C139.477,48.298,139.732,48.912,139.82,49.324z M141.219,41.986c0,0-0.27,1.006-0.472,1.549c-0.238,0.643-0.96,0.949-1.617,0.927
			c0,0,0.396,0.228,1.269,0.281c0,0-0.355,1.123-0.769,1.545c-0.454,0.468-0.817,0.592-1.591,0.478
			c0.482,0.308,0.941,0.396,1.098,0.439c-0.443,0.443-1.092,0.793-2.058,0.871c-0.927,0.077-1.24-0.467-1.24-0.467
			s0.028,0.44,0.388,0.63c-0.953,0.069-2.162-0.078-2.92-1.261c-0.115-0.176-0.131-0.374-0.018-0.439
			c0.105-0.063,0.257-0.024,0.511,0.121c3.054,1.695,4.845-1.046,5.293-4.197c0.267-1.863,0.646-4.111,0.237-5.326
			c-0.368-1.104-1.523-1.154-1.969-1c-0.135-0.155-0.229-0.66,0.055-1.074c0.542-0.787,1.945-0.292,3.693-2.063
			c0.355,0.448,0.307,2.995-1.217,3.641c0,0,0.979-0.133,1.797-0.461c-0.025,0.414-0.071,1.082-0.076,1.588
			c-0.014,1.051-0.678,1.35-1.414,1.587c0.697,0.111,1.464-0.157,1.464-0.157c-0.208,1.667-0.142,2.471-1.843,2.79
			C139.82,41.986,140.439,42.16,141.219,41.986z"/>
	</g>
</g>
</svg>
