<?xml version="1.0" encoding="utf-8"?>
<!-- Generator: Adobe Illustrator 15.1.0, SVG Export Plug-In . SVG Version: 6.00 Build 0)  -->
<!DOCTYPE svg PUBLIC "-//W3C//DTD SVG 1.1//EN" "http://www.w3.org/Graphics/SVG/1.1/DTD/svg11.dtd">
<svg version="1.1" id="Layer_1" xmlns="http://www.w3.org/2000/svg" xmlns:xlink="http://www.w3.org/1999/xlink" x="0px" y="0px"
	 width="168px" height="186.555px" viewBox="0 0 168 186.555" enable-background="new 0 0 168 186.555" xml:space="preserve">
<g>
	<path fill="#FDE03B" d="M51.472,4.158c0,0,9.88,9.989,15.466,5.646c5.586-4.34,8.313-5.25,8.313-5.25s-0.318,2.91,10.778,2.302
		c11.097-0.607,11.097-0.58,11.097-0.58s0.901,0.355,9.64,0.622c8.735,0.267,8.735,0.492,8.735,0.492l-3.938,24.289h-2.494
		l-45.192,2.843L58.378,23.15L51.464,4.663"/>
	<g>
		<g>
			<path fill="#374041" d="M111.373,34.562H60.682c-1.273,0-2.305-1.03-2.305-2.305V23.04c0-1.272,1.031-2.304,2.305-2.304h50.691
				c1.273,0,2.305,1.031,2.305,2.304v9.217C113.678,33.532,112.646,34.562,111.373,34.562z M62.984,29.954h46.084v-4.609H62.984
				V29.954z"/>
		</g>
		<g>
			<path fill="#374041" d="M113.4,28.741l-4.06-2.181c0.056-0.099,4.226-7.943,5.929-15.918c-2.949,0.878-6.428,0.878-8.506,0.878
				c-4.668,0-7.832-2.326-9.64-5.215c-2.556,2.938-6.636,5.215-11.099,5.215c-4.463,0-8.543-2.278-11.095-5.215
				c-1.812,2.889-4.972,5.215-9.643,5.215c-2.078,0-5.556,0-8.506-0.878c1.703,7.975,5.874,15.819,5.927,15.918l-4.059,2.181
				c-0.294-0.546-7.188-13.494-7.188-24.133h4.608c0,1.485,3.273,2.305,9.217,2.305c5.223,0,6.913-4.658,6.913-6.913h4.608
				c0,2.366,3.892,6.913,9.216,6.913c5.326,0,9.221-4.547,9.221-6.913h4.605c0,2.255,1.691,6.913,6.914,6.913
				c5.944,0,9.215-0.819,9.215-2.305h4.608C120.588,15.247,113.695,28.194,113.4,28.741z"/>
		</g>
	</g>
</g>
</svg>
