<?xml version="1.0" encoding="utf-8"?>
<!-- Generator: Adobe Illustrator 15.1.0, SVG Export Plug-In . SVG Version: 6.00 Build 0)  -->
<!DOCTYPE svg PUBLIC "-//W3C//DTD SVG 1.1//EN" "http://www.w3.org/Graphics/SVG/1.1/DTD/svg11.dtd">
<svg version="1.1" id="Layer_1" xmlns="http://www.w3.org/2000/svg" xmlns:xlink="http://www.w3.org/1999/xlink" x="0px" y="0px"
	 width="233px" height="233px" viewBox="0 0 233 233" enable-background="new 0 0 233 233" xml:space="preserve">
<g>
	<path fill="#FDE03B" d="M92.546,62.935c0,0-4.509,16.233-2.706,25.252c1.803,9.019,1.353,15.783,4.059,17.586
		s12.175,12.175,12.175,12.175l20.742,0.901c0,0,9.02-7.667,12.176-13.527c3.156-5.862,6.313-14.43,6.765-22.547
		c0.45-8.117-3.157-22.096-3.157-22.096L92.546,62.935z"/>
	<path fill="#FDE03B" d="M105.172,163.042c0,0-3.157-1.354-3.607,2.255c-0.451,3.607-0.451,7.215,2.254,7.215s26.154,0,26.154,0
		s2.707,1.805,3.607-2.255c0.902-4.059-1.354-7.215-1.354-7.215H105.172z"/>
	<polygon fill="#507BBE" points="56.471,124.262 56.471,162.141 73.607,163.042 73.607,122.908 	"/>
	<path fill="#FFFFFF" d="M76.463,123.359c0,0,6.613,1.804,6.012,0c-0.601-1.805,9.019-12.024,9.019-12.024l16.835,8.417
		l22.248-0.604c0,0,6.01-1.803,4.81,3.607c-1.201,5.411-1.201,5.411-1.201,5.411s3.604-3.005,4.205,3.606
		c0.604,6.617-3.606,9.021-3.606,9.021s3.009,2.405,1.204,6.015c-1.803,3.606-5.41,5.41-5.41,5.41s4.809,3.607,3.607,6.014
		c-1.205,2.402-4.211,3.006-4.211,3.006l-33.069,1.804l-9.619-2.406l-7.215-3.005l-6.013,1.201l-0.451-35.924L76.463,123.359z"/>
	<g>
		<path fill="#374041" d="M127.754,120.696l-1.729-3.166c0.771-0.425,18.904-10.698,18.904-36.297
			c0-9.438-2.072-15.719-2.992-18.038H93.817c-0.911,2.387-3.001,9.042-3.001,19.841c0,23.905,18.712,34.389,18.9,34.491
			l-1.726,3.168c-0.849-0.465-20.782-11.635-20.782-37.659c0-14.687,3.643-22.142,3.798-22.452c0.306-0.611,0.93-0.997,1.613-0.997
			h50.506c0.684,0,1.307,0.386,1.613,0.997c0.154,0.31,3.798,7.743,3.798,20.648C148.536,109.04,128.604,120.23,127.754,120.696z"/>
	</g>
	<g>
		<path fill="#374041" d="M130.499,175.025h-25.254c-2.984,0-5.411-2.426-5.411-5.41v-3.607c0-2.982,2.427-5.41,5.411-5.41h25.254
			c2.983,0,5.411,2.428,5.411,5.41v3.607C135.91,172.6,133.482,175.025,130.499,175.025z M105.245,164.204
			c-0.995,0-1.804,0.812-1.804,1.804v3.607c0,0.996,0.809,1.804,1.804,1.804h25.254c0.993,0,1.804-0.808,1.804-1.804v-3.607
			c0-0.992-0.811-1.804-1.804-1.804H105.245z"/>
	</g>
	<g>
		<g>
			<rect x="126.891" y="128.13" fill="#374041" width="7.217" height="3.607"/>
		</g>
		<g>
			<path fill="#374041" d="M81.797,124.521h-7.215v-3.606h6.468l8.49-8.49l2.551,2.55l-9.019,9.019
				C82.734,124.332,82.276,124.521,81.797,124.521z"/>
		</g>
		<g>
			<g>
				<path fill="#374041" d="M74.582,164.204H56.544c-0.997,0-1.804-0.808-1.804-1.804v-39.683c0-0.997,0.807-1.804,1.804-1.804
					h18.038c0.997,0,1.804,0.807,1.804,1.804V162.4C76.386,163.396,75.579,164.204,74.582,164.204z M58.348,160.598h14.43v-36.074
					h-14.43V160.598z"/>
			</g>
			<g>
				<rect x="47.526" y="120.915" fill="#374041" width="9.019" height="3.606"/>
			</g>
			<g>
				<rect x="47.526" y="160.598" fill="#374041" width="9.019" height="3.606"/>
			</g>
			<g>
				<rect x="65.563" y="153.382" fill="#374041" width="3.607" height="3.607"/>
			</g>
		</g>
		<g>
			<g>
				<path fill="#374041" d="M134.105,142.561v-3.607c1.986,0,3.607-1.617,3.607-3.607c0-1.986-1.621-3.606-3.607-3.606v-3.607
					c3.978,0,7.215,3.237,7.215,7.216C141.32,139.325,138.083,142.561,134.105,142.561z"/>
			</g>
			<g>
				<rect x="126.891" y="138.952" fill="#374041" width="7.217" height="3.606"/>
			</g>
			<g>
				<path fill="#374041" d="M130.499,131.737v-3.607c1.985,0,3.606-1.616,3.606-3.606c0-1.987-1.621-3.607-3.606-3.607h-27.058
					v-3.607h27.058c3.978,0,7.215,3.237,7.215,7.215C137.714,128.503,134.477,131.737,130.499,131.737z"/>
			</g>
			<g>
				<path fill="#374041" d="M128.693,164.204H92.619c-0.28,0-0.557-0.063-0.807-0.19l-6.834-3.417h-4.985v-3.606h5.411
					c0.28,0,0.557,0.066,0.807,0.189l6.834,3.418h35.648c1.988,0,3.609-1.617,3.609-3.607c0-1.987-1.621-3.607-3.609-3.607v-3.607
					c3.979,0,7.217,3.238,7.217,7.216C135.91,160.971,132.672,164.204,128.693,164.204z"/>
			</g>
			<g>
				<path fill="#374041" d="M130.499,153.382h-3.608v-3.606h3.608c1.985,0,3.606-1.617,3.606-3.607c0-1.986-1.621-3.607-3.606-3.607
					v-3.606c3.978,0,7.215,3.237,7.215,7.215S134.477,153.382,130.499,153.382z"/>
			</g>
		</g>
	</g>
	<g>
		<path fill="#374041" d="M132.045,118.237l-3.093-1.857c2.077-3.463,6.306-5.764,11.198-8.427
			c9.006-4.897,19.207-10.449,19.207-24.916V79.43h-3.606v3.607h-3.606v-5.411c0-0.997,0.807-1.804,1.803-1.804h7.216
			c0.997,0,1.804,0.807,1.804,1.804v5.411c0,16.61-11.691,22.973-21.088,28.084C137.445,113.533,133.616,115.615,132.045,118.237z"
			/>
	</g>
	<g>
		<path fill="#374041" d="M103.699,118.237c-1.573-2.622-5.4-4.704-9.833-7.116c-9.396-5.112-21.088-11.474-21.088-28.084v-5.411
			c0-0.997,0.807-1.804,1.804-1.804h7.215c0.997,0,1.804,0.807,1.804,1.804v5.411h-3.607V79.43h-3.607v3.607
			c0,14.467,10.202,20.019,19.205,24.916c4.895,2.663,9.123,4.963,11.201,8.427L103.699,118.237z"/>
	</g>
	<g>
		<path fill="#8B5E3C" d="M110.034,72.942v2.887h-4.618l-0.072,0.145l3.849,7.024c0.578,1.034,1.178,2.309,1.178,3.223
			c0,1.78-0.745,2.958-1.611,3.561h-6.374v-2.79h4.979l0.072-0.146l-4.33-7.77c-0.553-0.986-0.938-1.948-0.938-2.742
			c0-1.155,0.433-2.694,2.093-3.392H110.034z"/>
		<path fill="#8B5E3C" d="M112.053,72.942h6.855c1.322,0.482,3.007,1.877,3.007,4.138c0,1.997-0.722,3.151-1.781,3.8v0.097
			c1.132,0.625,2.216,1.78,2.216,3.849c0,2.622-1.853,4.185-3.058,4.955h-7.239V72.942z M117.705,79.895
			c0.578-0.361,1.059-1.035,1.059-2.069c0-1.083-0.529-1.636-0.986-1.997h-2.453v4.065L117.705,79.895L117.705,79.895z
			 M117.803,86.991c0.504-0.361,1.129-1.348,1.129-2.381c0-0.842-0.433-1.636-1.01-1.997h-2.598v4.378H117.803z"/>
		<path fill="#8B5E3C" d="M124.102,72.942h8.78v2.887h-5.483v4.209h4.764v2.791h-4.764v6.952h-3.297V72.942z"/>
	</g>
</g>
</svg>
