<?xml version="1.0" encoding="utf-8"?>
<!-- Generator: Adobe Illustrator 15.1.0, SVG Export Plug-In . SVG Version: 6.00 Build 0)  -->
<!DOCTYPE svg PUBLIC "-//W3C//DTD SVG 1.1//EN" "http://www.w3.org/Graphics/SVG/1.1/DTD/svg11.dtd">
<svg version="1.1" id="Layer_1" xmlns="http://www.w3.org/2000/svg" xmlns:xlink="http://www.w3.org/1999/xlink" x="0px" y="0px"
	 width="152px" height="152px" viewBox="0 0 152 152" enable-background="new 0 0 152 152" xml:space="preserve">
<g>
	<g>
		<rect x="2.375" y="135.375" fill="#FEC46C" width="47.5" height="16.625"/>
	</g>
	<g>
		<rect x="49.875" y="121.125" fill="#FEC46C" width="47.5" height="30.875"/>
	</g>
	<g>
		<rect x="97.375" y="106.875" fill="#F49E1E" width="52.25" height="45.125"/>
	</g>
	<g>
		<polygon fill="#606566" points="52.25,152 47.5,152 47.5,137.75 4.75,137.75 4.75,152 0,152 0,133 52.25,133 		"/>
	</g>
	<g>
		<polygon fill="#606566" points="99.75,152 95,152 95,123.5 52.25,123.5 52.25,152 47.5,152 47.5,118.75 99.75,118.75 		"/>
	</g>
	<g>
		<polygon fill="#606566" points="152,152 147.25,152 147.25,109.25 99.75,109.25 99.75,152 95,152 95,104.5 152,104.5 		"/>
	</g>
</g>
</svg>
