<?xml version="1.0" encoding="utf-8"?>
<!-- Generator: Adobe Illustrator 15.1.0, SVG Export Plug-In . SVG Version: 6.00 Build 0)  -->
<!DOCTYPE svg PUBLIC "-//W3C//DTD SVG 1.1//EN" "http://www.w3.org/Graphics/SVG/1.1/DTD/svg11.dtd">
<svg version="1.1" id="Layer_1" xmlns="http://www.w3.org/2000/svg" xmlns:xlink="http://www.w3.org/1999/xlink" x="0px" y="0px"
	 width="152.134px" height="73.925px" viewBox="0 0 152.134 73.925" enable-background="new 0 0 152.134 73.925"
	 xml:space="preserve">
<g>
	<path fill="#FBD702" d="M93.864,16.951c-0.695,0.157-1.189,0.563-1.699,0.86l1.1-0.311C93.407,17.351,93.62,17.171,93.864,16.951z"
		/>
	<path fill="#FBD702" d="M71.138,52.922c0.463-0.087,0.904-0.097,1.455-0.123c0.119-0.072,0.461-0.123,0.268-0.315
		c-0.094-0.005-0.176-0.067-0.287-0.068l-1.627,0.479C71.019,52.884,71.028,52.938,71.138,52.922z"/>
	<path fill="#FBD702" d="M97.306,15.153c-0.432,0.081-0.742,0.22-0.846,0.512c-0.094,0.235-0.359,0.569-0.037,0.503
		c0.309-0.027,0.879-0.166,1.221-0.604c0.336-0.346,0.787-0.781,1.225-0.439c0.102,0.059,0.289-0.043,0.486-0.09
		c0.541-0.32,1.145-0.482,1.525-0.907c0.264-0.334,0.635-0.685,1.256-0.609c0.15,0.032,0.453-0.049,0.602-0.292
		c0.242-0.35,0.254-0.407,0.787-0.411c0.707-0.086,1.535-0.355,2.156-0.632c0.123-0.055,0.078-0.103,0.107-0.145l-6.031,1.738
		c-0.029,0.041-0.084,0.049-0.098,0.088C99.075,14.652,98.259,14.993,97.306,15.153z"/>
	<path fill="#FBD702" d="M120.013,38.963c-0.16,0.043-0.412,0.207-0.375,0.331c0.029,0.07,0.248,0.057,0.365-0.018
		c0.572-0.25,1.176-0.411,1.701-0.711c0.289-0.172,0.43-0.34,0.482-0.494l-1.537,0.467
		C120.563,38.697,120.437,38.845,120.013,38.963z"/>
	<path fill="#FBD702" d="M62.974,55.342c0.406,0.255,0.248,0.426,0.303,0.675c-0.145,0.021-0.32-0.045-0.418,0.044
		c-0.297,0.357-0.619,0.183-1.033,0.115c0.068,0.47,0.74,0.277,1.25,0.222c0.186,0.01,0.262-0.095,0.383-0.148
		c0.047,0.065,0.072,0.118,0.174,0.176c0.08-0.085,0.084-0.178,0.127-0.258c0.016-0.021,0.02-0.002,0.037-0.005
		c-0.002-0.019-0.023-0.033-0.023-0.033c0.096-0.218,0.076-0.473-0.301-0.786c-0.109-0.112-0.262-0.146-0.414-0.179L62.937,55.2
		C62.942,55.256,62.909,55.278,62.974,55.342z"/>
	<path fill="#FBD702" d="M102.007,45.51c-0.107,0.034-0.25,0.073-0.715,0.161c0.301,0.047,0.313,0.119,0.412,0.178l1.682-0.487
		C103.151,45.285,102.79,45.338,102.007,45.51z"/>
	<path fill="#FBD702" d="M51.597,60.082c0.006-0.204-0.059-0.397-0.414-0.178c-0.312,0.137-0.792,0.374-0.876,0.682
		c-0.01,0.058-0.043,0.079-0.053,0.137l1.451-0.417C51.708,60.213,51.729,60.117,51.597,60.082z"/>
	<path fill="#FBD702" d="M106.343,44.169c-0.24,0.11-0.449,0.324-0.66,0.521l1.098-0.309c0.025-0.078,0.033-0.152,0.061-0.212
		C107.187,43.51,106.599,44.021,106.343,44.169z"/>
	<path fill="#FBD702" d="M144.538,33.226c-0.006-0.166-0.313,0.008-0.508,0.057c-0.215,0.049-0.604,0.161-0.486,0.329
		c0.049,0.084,0.244,0.037,0.41,0.031l0.266-0.076C144.386,33.45,144.573,33.349,144.538,33.226z"/>
	<path fill="#FBD702" d="M29.238,35.888c0,0,0,0-0.002-0.018c-0.707-0.172-1.405-0.401-2.225,0.162
		c-0.055,0.008-0.221,0.014-0.297-0.012c-0.974-0.225-1.462,0.216-2.346,0.476c1.115,0.057,2.146,0.052,3.129-0.037
		c-0.049,0.044-0.101,0.07-0.152,0.096l2.247-0.645C29.478,35.891,29.352,35.908,29.238,35.888z"/>
	<path fill="#FBD702" d="M108.081,42.824c0.494-0.146,0.947-0.581,1.301-1.058l-0.619,0.183
		C108.53,42.242,108.313,42.532,108.081,42.824z"/>
	<path fill="#FBD702" d="M12.05,40.857c0.092-0.253,0.606-0.385,0.893-0.316c0.264,0.036,0.518-0.002,0.787-0.042l1.483-0.44
		c0.032-0.04-0.077-0.154-0.192-0.191c-0.224-0.134-0.626,0.017-0.95,0.064c-1.58,0.29-2.996,0.94-4.55,1.281
		C9.1,41.237,8.853,41.44,8.835,41.571c0.025,0.292,0.482,0.021,0.687,0.028c0.479,0.002,0.94-0.378,1.503-0.314l0.812-0.249
		C11.918,40.969,12.009,40.955,12.05,40.857z"/>
	<path fill="#FBD702" d="M61.517,24.839c0,0,0,0-0.004-0.019l-0.422,0.137C61.233,24.918,61.415,24.909,61.517,24.839z"/>
	<path fill="#FBD702" d="M50.494,28.493c-0.99,0.146-1.898,0.741-2.93,0.636c-0.059-0.028-0.148-0.016-0.324,0.047
		c0.266,0.184-0.057,0.617,0.527,0.567c0.699-0.121,1.537-0.319,2.174-0.632c0.455-0.29,0.496-0.259,0.895-0.06
		c0.255,0.108,0.558,0.027,0.669-0.099c0.475-0.402,0.988-0.294,1.377-0.148c0.424,0.122,0.924,0.011,1.414-0.042l0.92-0.266
		c0.182-0.267,0.492-0.294,0.85-0.235l1.502-0.443c-0.041-0.03-0.082-0.061-0.123-0.092c-0.248-0.167-0.59-0.116-0.988,0.053
		c-0.906,0.355-1.77,0.501-2.674,0.137c-0.486-0.187-1.363-0.131-1.975-0.281l-1.009,0.297
		C50.812,28.134,51.009,28.362,50.494,28.493z"/>
	<path fill="#FBD702" d="M103.843,44.096c-0.213,0.05-0.539,0.098-0.463,0.234c0.041,0.142,0.209,0.171,0.57,0.118
		c0.23-0.07,0.451-0.194,0.486-0.33C104.429,43.936,104.036,44.03,103.843,44.096z"/>
	<path fill="#FBD702" d="M140.089,4.324c-0.313,0.119-0.725,0.198-0.855,0.439c0.191,0.046,0.342,0.078,0.518,0.145
		c0.586-0.16,1.154-0.3,1.615-0.681c0.08-0.085,0.236-0.145,0.375-0.202c-0.064-0.065-0.164-0.105-0.225-0.151
		C141.038,4,140.558,4.125,140.089,4.324z"/>
	<path fill="#FBD702" d="M129.517,6.898c-0.707-0.173-1.426-0.418-2.229,0.144c-0.055,0.008-0.234,0.035-0.293,0.006
		c-0.975-0.225-1.465,0.198-2.35,0.457c1.115,0.058,2.146,0.053,3.133-0.019c-0.051,0.026-0.1,0.069-0.172,0.081l2.246-0.645
		C129.741,6.92,129.632,6.936,129.517,6.898z"/>
	<path fill="#FBD702" d="M127.589,37.568c-0.602,0.182-0.771,0.021-0.984-0.168c-0.215-0.207-0.76-0.146-1.084-0.099
		c-0.402,0.022-0.359,0.182-0.26,0.37c-0.266,0.316,0.145,0.477,0.695,0.469c0.604-0.034,1.205-0.214,1.797-0.32
		c0.17,0.013,0.357-0.089,0.346-0.161C128.062,37.536,127.767,37.524,127.589,37.568z"/>
	<path fill="#FBD702" d="M120.149,40.27c0.438,0.084,0.838-0.067,1.217-0.381c0.152-0.097,0.164-0.265,0.041-0.228
		C121.009,39.719,120.593,40.021,120.149,40.27z"/>
	<path fill="#FBD702" d="M70.567,24.075c-0.75-0.092-1.498-0.166-2.281-0.217c-0.684-0.01-1.287-0.104-1.895-0.218
		c-0.207-0.024-0.322-0.063-0.473-0.077l-1.344,0.383c1.529,0.123,3.627,0.22,5.443,0.284L70.567,24.075z"/>
	<path fill="#FBD702" d="M81.716,20.846c0.854-0.477,2.961-1.931,4.832-3.258l-1.01,0.296c-0.115,0.092-0.213,0.18-0.346,0.273
		C83.997,19.053,82.839,19.942,81.716,20.846z"/>
	<path fill="#FBD702" d="M80.065,21.145c0.188-0.102,0.484-0.219,0.459-0.383c0.006-0.073-0.176-0.194-0.301-0.157
		c-0.299,0.099-0.576,0.214-0.938,0.507c-0.244,0.221-0.473,0.421-0.736,0.643l1.203-0.343
		C79.851,21.323,79.948,21.234,80.065,21.145z"/>
	<path fill="#FBD702" d="M112.329,11.886c0.092-0.254,0.605-0.403,0.875-0.314c0.283,0.032,0.535-0.005,0.805-0.063l1.504-0.424
		c-0.008-0.054-0.115-0.149-0.215-0.208c-0.223-0.133-0.643,0.021-0.965,0.087c-1.563,0.285-2.977,0.938-4.535,1.26
		c-0.436,0.045-0.664,0.245-0.682,0.377c0.004,0.276,0.482,0.021,0.684,0.01c0.48,0.002,0.941-0.379,1.502-0.314l0.814-0.23
		C112.181,12,112.29,11.983,112.329,11.886z"/>
	<path fill="#FBD702" d="M73.378,55.977c-0.084-0.014-0.166-0.027-0.246-0.04C73.19,55.973,73.278,55.983,73.378,55.977z"/>
	<path fill="#FBD702" d="M143.284,36.097l-0.037,0.01C143.271,36.104,143.276,36.102,143.284,36.097z"/>
	<path fill="#FBD702" d="M145.083,5.8c-0.074-0.007-0.16,0.042-0.227-0.04c-0.104-0.078,0.02-0.113,0.174-0.192l-0.629-2.138
		c-0.336,0.105-0.717,0.143-1.029,0.392c-0.266,0.204-0.688,0.471-1.111,0.219c-0.105-0.095-0.307-0.083-0.52-0.015
		c0.508,0.44,0.936,0.967,1.125,1.622l6.381,22.125c0.639,2.211-1.084,4.659-3.861,5.455l-1.166,0.339
		c-0.051,0.025-0.029,0.06-0.098,0.09c-0.07,0.027-0.096-0.024-0.168-0.014L106.78,44.382c-0.088,0.399-0.061,0.839-0.838,1.192
		c-0.434,0.193-0.824,0.416-1.299,0.69c-0.057-0.012-0.109,0.015-0.164,0.023c-0.326,0.159-0.68,0.267-1.098,0.31
		c-0.475,0.144-0.727,0.07-0.729-0.188c-0.006-0.295-0.395-0.181-0.9,0.005c0.107-0.256,0.121-0.423-0.049-0.565l-50,14.457
		c0.002,0.146-0.135,0.352-0.438,0.543c-0.527,0.3-1.146,0.483-1.701,0.713c-0.121,0.054-0.355,0.09-0.363,0.035
		c-0.041-0.142,0.193-0.307,0.371-0.351c0.496-0.146,0.598-0.327,0.68-0.523L15.376,70.79c-2.777,0.797-5.561-0.323-6.184-2.554
		L2.794,46.114c-0.637-2.193,1.106-4.627,3.881-5.441l34.504-9.958c-0.372-0.147-0.743-0.295-1.344-0.243
		c-0.322,0.066-0.848,0.254-0.75-0.074c0.078-0.104,0.526-0.188,0.863-0.274c1.621-0.387,3.273-0.814,4.714-1.544
		c0.407,0.014-0.194,0.435,0.511,0.22c0.426-0.118,0.895-0.316,0.994-0.018c0.154,0.29-0.615,0.201-0.865,0.386
		c-0.322,0.195-0.874,0.571-1.207,0.437c-0.67-0.16-0.859,0.182-1.324,0.398c0.454-0.049,0.827-0.142,1.168-0.081l-2.76,0.794
		c0.174,0.049,0.311,0.104,0.537,0.143c0.359,0.059,0.616,0.297,1.267-0.167c-0.012-0.203-0.331,0.012-0.501-0.02
		c-0.219,0.014-0.418,0.043-0.333-0.135c0.038-0.116,0.286-0.189,0.433-0.192c0.599,0.06,0.949-0.309,1.43-0.434
		c-0.008-0.006-0.021-0.004-0.031-0.001l6.818-1.978c0.014-0.039-0.01-0.071,0.004-0.11c0.066-0.177,0.423-0.377,0.681-0.247
		c0.08,0.042,0.229,0.039,0.324,0.061l9.283-2.678c-0.285,0.06-0.57,0.122-0.871,0.222c-0.752,0.146-1.496-0.021-2.178,0.099
		c-0.768,0.17-1.422,0.118-2.129,0.186c-0.455,0.048-0.83,0.011-0.645-0.236c-0.023-0.402,0.623-0.646,1.627-0.591
		c0.893,0.053,1.68,0.14,2.631-0.167c0.457-0.142,1.221,0.022,1.818,0.082c0.215,0.079,0.244,0.148,0.168,0.27l3.063-0.874
		c-0.375-0.038-0.82-0.064-1.102-0.096c1.168-0.45,1.396-0.521,2.445-0.287l19.619-5.68c0.422-0.282,0.816-0.599,1.174-0.929
		c1.127-1.106,1.162-1.111,2.564-1.356c-0.578,0.454-1.627,1.218-2.729,1.989l13.209-3.811c0.412-0.467,1.34-0.917,1.65-1.442
		c0.152-0.226,0.572-0.249,0.713-0.16c0.209,0.153,0.02,0.624,0.615,0.407c0.918-0.394,2.01-0.37,2.799-1.021
		c0.027-0.06,0.152-0.097,0.311-0.138c-0.111,0.237,0.08,0.411-0.057,0.616l30.896-8.928c1.838-0.528,3.611-0.146,4.832,0.763
		c0.938-0.268,1.863-0.496,2.775-0.816l-0.158-0.566c-0.143-0.458-0.389-0.883-0.699-1.242c-0.176,0.063-0.348,0.144-0.555,0.119
		c-0.164,0.005-0.412,0.08-0.453,0.177c-0.082,0.197,0.117,0.168,0.336,0.154c0.168,0.011,0.488-0.184,0.482,0.021
		c-0.635,0.444-0.889,0.223-1.25,0.147c-0.713-0.079-1.029-0.476-1.879-0.368c-0.322,0.066-0.85,0.255-0.768-0.072
		c0.092-0.124,0.525-0.188,0.859-0.291c0.766-0.188,1.514-0.372,2.238-0.589c-0.984-0.536-2.246-0.72-3.557-0.36l-0.883,0.259
		c-0.195,0.065-0.373,0.11-0.58,0.196c-0.205,0.123-0.402,0.152-0.516,0.132l-1.646,0.464c-0.309,0.156-0.746,0.312-1.033,0.503
		c-0.426,0.229-1.061,0.305-1.107,0.108L97.687,12.109c0.104,0.077,0.248,0.186,0.326,0.211c0.23,0.187,0.268,0.311-0.021,0.354
		c-0.32-0.045-0.668-0.03-1.02-0.035c-0.098,0.089-0.234,0.163-0.439,0.268c-0.637,0.315-1.168,0.707-1.902,0.981
		c-0.645,0.262-1.172,0.8-1.906,1.074c-0.424,0.136-0.895,0.446-1.266,0.427c-0.158-0.069-0.152-0.162-0.01-0.329
		c0.494-0.389,1.043-0.93,1.5-1.071c0.91-0.208,1.521-0.685,2.172-1.15L50.742,25.673c0.221,0.115,0.425,0.25,0.843,0.208
		c0.252-0.038,0.08,0.172-0.135,0.222c-0.363,0.164-0.802,0.304-1.275,0.354c-0.975,0.125-1.969,0.143-2.941,0.433
		c-1.26,0.335-2.51,0.61-3.776,0.891l-5.732,1.639c-0.19,0.084-0.371,0.11-0.577,0.213c-0.185,0.121-0.384,0.149-0.519,0.113
		l-1.644,0.483c-0.309,0.155-0.748,0.295-1.032,0.502c-0.427,0.229-1.062,0.304-1.108,0.108L3.242,39.391
		c-1.538,0.449-2.631,1.55-3.073,2.797c0.401-0.281,0.784-0.559,0.961-0.862c0.167-0.245,0.569-0.268,0.714-0.16
		c0.207,0.153,0.037,0.622,0.613,0.407c0.935-0.415,1.99-0.385,2.799-1.021c0.045-0.08,0.135-0.093,0.313-0.139
		c-0.141,0.297,0.387,0.498-0.146,0.761c-0.641,0.278-1.471,0.528-2.156,0.631c-0.555-0.01-0.564,0.046-0.787,0.411
		c-0.168,0.245-0.469,0.327-0.621,0.294c-0.621-0.092-0.973,0.272-1.259,0.592c-0.156,0.188-0.362,0.293-0.587,0.401
		c0.016,0.218-0.047,0.429,0.021,0.641l0.182,0.6c0.387-0.13,0.77-0.278,1.145-0.481C1.262,44.478,0.828,44.781,0.3,45.08
		L7.91,71.412c0.564,1.945,2.91,2.982,5.244,2.306l18.266-5.294c0.098-0.217,0.089-0.4-0.566-0.47
		c0.448-0.084,0.59-0.123,0.695-0.158c1.234-0.255,1.436-0.267,1.696,0.119l15.403-4.447c0.033-0.023,0.047-0.063,0.086-0.05
		c0.035-0.006,0.037,0.013,0.037,0.013l7.603-2.21c0.016-0.02-0.061-0.028-0.023-0.033c0.051-0.025,0.164-0.005,0.219-0.015
		l16.498-4.775c-0.404-0.123-0.771-0.236-0.725-0.408c0.068-0.152,0.402-0.117,0.789-0.053c-0.018-0.012-0.033-0.024-0.045-0.039
		c-0.1-0.169,0.271-0.279,0.484-0.329c0.213-0.068,0.504-0.222,0.527-0.061c0.039,0.143-0.107,0.274-0.42,0.412
		c-0.102,0.031-0.207,0.052-0.301,0.057c0.088,0.015,0.176,0.03,0.26,0.043c0.17,0.011,0.32,0.044,0.492,0.074l39.992-11.562
		c-0.383-0.09-0.604-0.352-0.422-0.988c0.076-0.231,0.176-0.432,0.369-0.496c0.15-0.114,0.105,0.095,0.068,0.211
		c-0.307,0.672,0.35,0.502,0.021,1.27l4.969-1.434c0.631-0.222,1.197-0.509,1.859-0.772c-0.156,0.189-0.35,0.255-0.535,0.374
		l3.803-1.096c0.531-0.281,1.063-0.544,1.549-0.874c0.191-0.083,0.338-0.087,0.367-0.018c0.039,0.143-0.051,0.284-0.252,0.425
		l1.662-0.484c-0.48-0.004-0.615-0.167-0.873-0.296c-0.264-0.164-0.07-0.229,0.23-0.311c0.16-0.041,0.34-0.197,0.332-0.252
		c-0.037-0.252,0.305-0.191,0.535-0.245c0.393-0.094,0.381,0.093,0.465,0.153c0.199,0.099,0.186,0.378,0.645,0.236
		c0.48-0.108,0.283-0.318,0.305-0.432c-0.199-0.228-0.086-0.448,0.234-0.532c0.484-0.219,1.023-0.06,1.471-0.033
		c0.533-0.005,0.141,0.201,0.094,0.392c-0.049,0.045-0.006,0.204,0.076,0.267c0.021,0.015-0.016,0.021,0.006,0.035l10.451-3.017
		c-0.002-0.019-0.035,0.005-0.039-0.03c0.02-0.354,0.592-0.235,0.922-0.358c0.145-0.151,0.33-0.27,0.506-0.333
		c0.174-0.063,0.334-0.104,0.453-0.048c0.156,0.051,0,0.129-0.094,0.235c-0.008,0.009-0.012,0.012-0.016,0.016l5.537-1.587
		c2.332-0.676,3.752-2.802,3.189-4.747L145.083,5.8z M107.392,10.032c0.707-0.215-0.02-0.255,0.301-0.468
		c1.615-0.166,3.273-0.686,4.834-1.229c0.334-0.105,0.752-0.277,0.889-0.224c0.254,0.222-0.318,0.342-0.598,0.457
		c-0.77,0.408-0.846,0.881-1.389,1.33c-0.275,0.262-0.375,0.589-1.152,0.558c-0.119-0.187,0.268-0.188,0.4-0.281
		c0.186-0.12,0.375-0.203,0.195-0.305c-0.086-0.081-0.334-0.007-0.449,0.084c-0.484,0.349-0.961,0.234-1.439,0.361
		c0.236-0.275,0.65-0.338,1.096-0.568c-0.523,0.077-0.867-0.131-1.328,0.381c-0.217,0.271-0.902,0.262-1.27,0.26
		c-0.297-0.011-0.891,0.463-0.939,0.139C106.462,10.226,106.981,10.13,107.392,10.032z M7.13,39.002
		c0.705-0.215-0.021-0.256,0.299-0.468c1.6-0.162,3.24-0.663,4.816-1.228c0.337-0.086,0.754-0.258,0.891-0.205
		c0.236,0.224-0.303,0.321-0.596,0.457c-0.771,0.39-0.848,0.882-1.391,1.331c-0.276,0.242-0.376,0.57-1.155,0.538
		c-0.101-0.188,0.268-0.187,0.419-0.282c0.17-0.101,0.36-0.183,0.195-0.306c-0.102-0.06-0.349,0.014-0.467,0.087
		c-0.482,0.348-0.961,0.233-1.455,0.38c0.271-0.279,0.666-0.355,1.111-0.588c-0.521,0.096-0.865-0.112-1.327,0.381
		c-0.216,0.289-0.884,0.26-1.249,0.276c-0.318-0.027-0.909,0.466-0.96,0.123C6.181,39.198,6.705,39.12,7.13,39.002z M33.494,66.734
		c-0.343,0.051-0.534,0.005-0.572-0.136c-0.076-0.136,0.27-0.17,0.463-0.235c0.214-0.049,0.584-0.159,0.596,0.042
		C33.965,66.555,33.742,66.662,33.494,66.734z M50.906,62.156c-0.377,0.313-0.758,0.48-1.193,0.397
		c0.422-0.266,0.842-0.53,1.256-0.609C51.087,61.89,51.079,62.076,50.906,62.156z M57.317,60.123
		c-0.592,0.105-1.213,0.271-1.795,0.319c-0.574-0.007-0.984-0.168-0.721-0.502c-0.1-0.169-0.141-0.329,0.279-0.354
		c0.326-0.048,0.871-0.093,1.084,0.099c0.213,0.189,0.365,0.352,0.984,0.168c0.176-0.045,0.457-0.031,0.496,0.111
		C57.671,60.016,57.462,60.103,57.317,60.123z M75.798,55.535c-0.779-0.162-1.73,0.255-2.346-0.539
		c0.574-0.104,1.311,0.139,1.984,0.204c0.297,0.012,0.514,0.109,0.551,0.232C76.056,55.533,75.974,55.6,75.798,55.535z
		 M107.188,45.907c-0.055,0.119-0.025,0.205-0.063,0.321c-0.096,0.347-0.467,0.457-1.238,0.479c0.641-0.408,0.93-0.691,0.037-0.633
		c-0.117-0.039-0.301-0.029-0.189-0.156c0.055-0.119,0.234-0.165,0.393-0.207c0.199-0.029,0.42-0.023,0.613,0.021
		c0.34-0.068,0.76-0.462,0.988-0.163C107.933,45.687,107.3,45.78,107.188,45.907z M122.245,40.847
		c-0.148,0.242-0.115,0.478-0.627,0.755c-0.836,0.327-1.66,0.615-2.486,1.013c-0.535,0.245-1.055,0.358-0.986-0.057
		c0.02-0.113-0.023-0.292-0.096-0.282c-0.131-0.127-0.568-0.101-0.113-0.388c0.369-0.257,0.727-0.696,1.254-0.757
		c0.316-0.103,0.523,0.052,0.488,0.315c0.09,0.116,0.016,0.366,0.473,0.206c0.479-0.126,0.318-0.341,0.42-0.522
		c0.039-0.117-0.072-0.248,0.311-0.396c0.229-0.071,0.471-0.309,0.598-0.069c0.008,0.055,0.254,0.092,0.396,0.052
		C122.192,40.613,122.388,40.566,122.245,40.847z M126.942,39.065c-0.184,0.009-0.258-0.128-0.154-0.161
		c0.385-0.149,0.904-0.134,1.398-0.151C127.845,39.061,127.45,39.138,126.942,39.065z M147.034,34.147
		c-0.543,0.08-0.945,0.213-0.779,0.465c0.143,0.218-0.051,0.413-0.527,0.557c-0.482,0.237-1.043,0.432-1.461,0.345
		c-0.23-0.059-0.318-0.284,0.221-0.382c0.443-0.121,0.504-0.204,0.475-0.402c-0.047-0.694,0.023-0.704,1.367-1.234
		c0.123-0.037,0.25-0.056,0.67-0.21C146.323,33.827,146.702,33.901,147.034,34.147z"/>
	<path fill="#FBD702" d="M103.802,45.816c0.104,0.188,0.193,0.191,0.619,0.075c0.037-0.006,0.021,0.015,0.059,0.009
		c0.424-0.376,0.799-0.818,1.203-1.21l-2.297,0.671C103.558,45.41,103.669,45.541,103.802,45.816z"/>
	<path fill="#FBD702" d="M81.929,30.963c-0.314,0.338-0.543,0.723-0.682,1.153c-0.139,0.432-0.201,0.889-0.186,1.371
		c0.016,0.483,0.086,0.948,0.211,1.397c0.15,0.53,0.359,1,0.625,1.413s0.576,0.746,0.93,1.002c0.355,0.255,0.746,0.427,1.172,0.511
		c0.428,0.086,0.871,0.063,1.334-0.067c0.535-0.151,0.961-0.393,1.273-0.726c0.313-0.335,0.539-0.713,0.68-1.139
		c0.143-0.423,0.205-0.872,0.193-1.346c-0.012-0.472-0.076-0.92-0.195-1.341c-0.154-0.55-0.367-1.034-0.635-1.453
		c-0.27-0.419-0.582-0.761-0.938-1.023c-0.355-0.262-0.746-0.439-1.172-0.532s-0.869-0.085-1.328,0.022
		C82.671,30.372,82.245,30.625,81.929,30.963z"/>
	<path fill="#FBD702" d="M77.224,23.573c0.332,0.062,0.67,0.104,0.986,0.131c0.205-0.122,0.393-0.225,0.533-0.393
		c0.094-0.123,0.225-0.106,0.223,0.005c0.033,0.104-0.125,0.276-0.324,0.435c0.039,0.013,0.076,0.007,0.094,0.005
		c0.486,0.168,1.299,0.306,1.209,0.577c-0.078,0.215-0.711,0.05-1.279-0.051c-0.168-0.013-0.338-0.043-0.508-0.072
		c-0.262,0.223-0.527,0.429-0.807,0.599c0.563,0.008,1.115,0.002,1.504,0.515c-0.576,0.087-1.318-0.137-1.994-0.203
		c-0.277-0.015-0.516-0.126-0.551-0.251c-0.051-0.085,0.047-0.172,0.188-0.101c0.209,0.042,0.43,0.047,0.635,0.053
		c0.086-0.289,0.236-0.514,0.463-0.676c-0.295-0.049-0.578-0.1-0.861-0.149c-0.033,0.022-0.049,0.044-0.063,0.082
		c-0.426,0.358-0.889,0.851-1.078,0.693c-0.168-0.141,0.182-0.524,0.5-0.866c-0.623-0.092-1.244-0.186-1.848-0.281
		c-0.215,0.052-0.541,0.081-0.602-0.075c-0.064-0.064,0.055-0.249,0.16-0.282c0.303-0.082,0.609-0.128,1.08-0.067
		c0.543,0.067,1.098,0.206,1.645,0.292c0.719-0.512,1.354-1.141,2.021-1.737l-7.982,2.321c0.707,0.043,1.418,0.104,2.109,0.168
		c-0.514,0.022-1.529,0.005-2.658-0.013l-12.451,3.588c0.201,0.118,0.422,0.234,0.178,0.324c-0.293,0.136-0.816,0.343-1.359,0.163
		c-0.098-0.04-0.207-0.023-0.32-0.044l-0.85,0.235c-0.012,0.04-0.088,0.032-0.098,0.088c-0.041,0.099-0.26,0.113-0.453,0.178
		c-0.131,0.002-0.244-0.019-0.369,0L29.592,35.91c0.263,0.034,0.514,0.107,0.803,0.065c-0.585,0.16-1.183,0.23-1.782,0.3
		c-0.471,0.309-0.91,0.577-1.35,0.845c0.369,0.001,0.863-0.018,0.919,0.104c0.089,0.227-0.428,0.229-0.83,0.251
		c-0.201,0.013-0.42,0.026-0.614-0.038c-0.426,0.229-0.865,0.386-1.281,0.559c0.637-0.058,1.256-0.111,1.873-0.166
		c0.234-0.163,0.531-0.28,0.573-0.121c0.021,0.016-0.046,0.062-0.04,0.098c0.197-0.029,0.414-0.061,0.634-0.073
		c0.201-0.013,0.269,0.07,0.339,0.17c0.206-0.104,0.393-0.206,0.584-0.289c-0.107,0.145-0.301,0.21-0.444,0.36l-0.019,0.003
		c-0.697,0.638-1.653,1.037-2.441,1.577c-0.202,0.122-0.35,0.126-0.363,0.035c-0.057-0.139,0.027-0.316,0.268-0.444
		c0.629-0.352,1.265-0.667,1.918-0.984c-0.312,0.009-0.623,0.018-0.933,0.045c-0.052,0.026-0.101,0.07-0.17,0.1
		c-0.339,0.197-0.776,0.483-0.812,0.248c-0.014-0.09,0.137-0.204,0.318-0.341c-0.475,0.032-0.96-0.007-1.406-0.162
		c-0.484,0.219-0.945,0.471-1.439,0.618c1.079-0.436,1.369-1.844,2.876-1.752c0.052-0.026,0.206-0.104,0.252-0.166
		c0.095-0.105,0.219-0.144,0.321-0.195l-12.132,3.504c-0.005,0.093-0.241,0.11-0.419,0.154c-0.371,0.111-0.724,0.218-1.064,0.286
		l-1.894,0.537c-0.247,0.203-0.569,0.27-0.812,0.249l-3.856,1.104c-1.771,0.501-2.903,1.941-2.532,3.213l6.396,22.105
		c0.371,1.272,2.086,1.887,3.854,1.386l27.592-7.977c-0.178,0.06-0.35,0.176-0.492,0.31c-0.077,0.104-0.142,0.168-0.022,0.225
		c0.22,0.115,0.468,0.042,0.765-0.187c0.361-0.184,0.776-0.373,0.844-0.659l-0.16,0.043c-0.195,0.176-0.375,0.33-0.685,0.229
		c-0.056-0.005-0.112,0.004-0.169,0.017l0.854-0.246c0.062-0.085,0.162-0.154,0.242-0.239c0.031,0.087-0.057,0.119-0.082,0.196
		L62.937,55.2c-0.023-0.032-0.109-0.095-0.033-0.087c0.055-0.008,0.1,0.041,0.154,0.051l7.889-2.27
		c-0.756,0-0.949-0.433-1.318-0.691c-0.664-0.381,0.125-0.275,0.404-0.262c0.83-0.122,1.693,0.359,2.541,0.474l36.189-10.466
		c0.268-0.315,0.568-0.654,0.775-1c0.082-0.195,0.23-0.31,0.355-0.327c0.16-0.043,0.063,0.175,0.004,0.257
		c-0.033,0.281-0.283,0.595-0.516,0.888l11.268-3.229c0.023-0.096,0.07-0.159,0.096-0.236c0.104-0.292,0.582-0.547,0.877-0.682
		c0.357-0.201,0.42-0.026,0.432,0.175c0.174,0.066,0.17,0.16,0.133,0.276l22.707-6.56c1.752-0.497,2.883-1.955,2.512-3.228
		l-6.379-22.106c-0.178-0.583-0.664-1.009-1.275-1.27c-0.053,0.008-0.09,0.013-0.123,0.036c-0.195,0.049-0.398,0.17-0.465,0.105
		c-0.043-0.048,0.01-0.185,0.07-0.286c-0.627-0.129-1.336-0.171-2.059,0.046l-7.322,2.113c0.266,0.052,0.535,0.123,0.803,0.065
		c-0.564,0.175-1.184,0.229-1.779,0.317c-0.455,0.288-0.893,0.574-1.334,0.824c0.369,0.019,0.848,0.004,0.92,0.121
		c0.09,0.228-0.43,0.211-0.832,0.233c-0.197,0.03-0.438,0.028-0.611-0.02c-0.426,0.229-0.865,0.385-1.301,0.561
		c0.639-0.057,1.258-0.111,1.875-0.166c0.25-0.184,0.549-0.283,0.588-0.142c0.006,0.036-0.045,0.062-0.041,0.098
		c0.217-0.031,0.418-0.043,0.639-0.057c0.197-0.029,0.268,0.07,0.338,0.172c0.188-0.102,0.375-0.203,0.566-0.287
		c-0.109,0.145-0.301,0.209-0.43,0.34l-0.018,0.003c-0.715,0.658-1.654,1.036-2.439,1.595c-0.225,0.107-0.352,0.108-0.381,0.038
		c-0.041-0.16,0.043-0.338,0.281-0.465c0.615-0.331,1.268-0.649,1.902-0.982c-0.295,0.007-0.604,0.034-0.916,0.043
		c-0.049,0.045-0.115,0.091-0.15,0.113c-0.357,0.202-0.793,0.486-0.83,0.234c-0.012-0.09,0.135-0.205,0.32-0.324
		c-0.475,0.033-0.959-0.006-1.406-0.16c-0.484,0.218-0.965,0.456-1.459,0.601c1.098-0.42,1.389-1.826,2.893-1.754
		c0.051-0.025,0.207-0.104,0.252-0.166c0.096-0.105,0.199-0.141,0.305-0.191l-12.094,3.517c-0.041,0.098-0.281,0.097-0.455,0.159
		c-0.355,0.09-0.709,0.197-1.049,0.265l-1.893,0.557c-0.248,0.184-0.57,0.25-0.814,0.23l-18.037,5.206
		c-0.066,0.064-0.146,0.132-0.16,0.171c-0.217,0.658-0.619,0.81-1.279,0.833c-0.205-0.023-0.645,0.243-0.596-0.04
		c0.01-0.187,0.391-0.354,0.65-0.465c0.086-0.05,0.186-0.12,0.285-0.188l-10.449,3.034l-1.963,0.565
		C78.917,22.125,78.05,22.861,77.224,23.573z M5.974,46.788c-0.106,0.033-0.248,0.073-0.684,0.247
		c0.691-0.563,0.312-0.636-0.017-0.863c0.539-0.097,0.946-0.213,0.776-0.483c-0.143-0.218,0.053-0.396,0.512-0.536
		c0.496-0.258,1.056-0.469,1.479-0.347c0.227,0.039,0.316,0.267-0.223,0.364c-0.422,0.136-0.505,0.203-0.476,0.401
		C7.392,46.283,7.337,46.292,5.974,46.788z M8.293,47.018c-0.212,0.067-0.502,0.221-0.526,0.06
		c-0.042-0.161,0.107-0.274,0.418-0.413c0.23-0.071,0.5-0.11,0.595,0.023C8.875,46.839,8.504,46.948,8.293,47.018z M10.794,43.717
		c-0.022,0.354-0.594,0.235-0.926,0.357c-0.141,0.168-0.329,0.27-0.504,0.333c-0.176,0.063-0.332,0.123-0.434,0.063
		c-0.176-0.066-0.023-0.162,0.059-0.229c0.783-0.447,0.403-0.521-0.371-0.518c0.68-0.396,1.051-0.505,1.307-0.267
		c0.104,0.077,0.135,0.165,0.236,0.225C10.32,43.749,10.906,43.479,10.794,43.717z M57.194,29.791
		c-1.293,0.485-3.799,0.745-4.33,0.38C54.286,30.073,55.673,29.352,57.194,29.791z M47.486,34.211
		c0.301-0.321,0.875-0.442,1.439-0.489c0.477-0.145,0.725-0.088,0.725,0.17c-0.008,0.315,0.398,0.199,0.904-0.005
		c-0.148,0.373-0.443,0.618,0.459,0.743c-0.467,0.087-0.59,0.125-0.715,0.161c-1.414,0.282-1.465,0.308-1.797-0.307
		c-0.082-0.19-0.197-0.211-0.619-0.093C47.375,34.596,47.322,34.363,47.486,34.211z M48.373,35.85
		c0.326-0.029,0.512-0.02,0.572,0.136c0.059,0.142-0.271,0.152-0.484,0.221c-0.191,0.064-0.566,0.156-0.574-0.025
		C47.886,36.052,48.125,35.923,48.373,35.85z M38.955,33.755c0.13-0.242,0.539-0.338,0.857-0.44c1.496-0.607,3.014-0.813,4.5-1.364
		c0.396-0.188,0.713-0.161,0.785-0.061c0.129,0.257-0.385,0.277-0.572,0.379c-0.401,0.28-0.984,0.201-1.435,0.525
		c-0.262,0.224-0.687,0.47-1.093,0.217c-0.207-0.154-0.72-0.005-0.909,0.207c-0.494,0.406-1.12,0.534-1.759,0.703
		c-0.158,0.06-0.361,0.182-0.445,0.103C38.841,33.992,38.896,33.854,38.955,33.755z M33.722,37.034
		c-0.838,0.197-1.57,0.601-2.426,0.93C32.083,37.165,33.233,36.719,33.722,37.034z M23.74,39.354
		c-0.898,0.17-1.721,0.217-2.529,0.484C21.449,39.324,22.646,39.073,23.74,39.354z M21.285,40.97
		c0.053-0.025,0.008-0.203-0.076-0.266c-0.27-0.328,0.221-0.51,0.799-0.596c0.906-0.097,1.762-0.297,2.642-0.464
		c0.582-0.049,0.671,0.178,0.948,0.303c0.264,0.164,0.07,0.229-0.25,0.313c-0.141,0.04-0.318,0.215-0.295,0.247
		c0.02,0.256-0.322,0.194-0.533,0.263c-0.414,0.063-0.402-0.106-0.484-0.167c-0.182-0.103-0.186-0.379-0.642-0.22
		c-0.485,0.09-0.288,0.3-0.286,0.43c0.178,0.214,0.063,0.434-0.256,0.518c-0.484,0.22-1.024,0.059-1.469,0.05
		C20.847,41.367,21.24,41.161,21.285,40.97z M25.515,41.396c-0.4,0.152-0.881,0.149-1.398,0.152
		c0.325-0.307,0.758-0.371,1.246-0.313C25.546,41.227,25.639,41.36,25.515,41.396z M18.073,46.441
		c0.118-0.202,0.365-0.275,0.72-0.253c0.507-0.057,1.162-0.246,1.248,0.221c-0.414-0.068-0.732-0.224-1.033,0.115
		c-0.198,0.158-0.531,0.151-0.818,0.084C18.076,46.589,17.999,46.563,18.073,46.441z M31.506,56.632l-1.325-2.596l-3.707,1.044
		l0.184,2.917l-4.705,1.324l-0.065-15.46l3.704-1.043c-0.166-0.147-0.367-0.242-0.877-0.104c-0.176,0.063-0.473,0.051-0.512-0.092
		c-0.008-0.054,0.201-0.14,0.348-0.143c0.59-0.125,1.193-0.287,1.797-0.321c0.407-0.007,0.717,0.066,0.769,0.23l1.107-0.312
		l8.192,13.172L31.506,56.632z M32.275,41.341c-0.602,0.181-0.644,0.39-0.73,0.679c-0.068,0.287-0.568,0.526-0.861,0.663
		c-0.357,0.198-0.418,0.042-0.413-0.181c-0.405-0.124-0.144-0.476,0.329-0.767c0.527-0.299,1.131-0.462,1.705-0.694
		c0.117-0.071,0.334-0.104,0.36-0.053C32.705,41.13,32.453,41.297,32.275,41.341z M30.941,40.431
		c0.394-0.334,0.78-0.464,1.214-0.399c-0.421,0.265-0.841,0.548-1.253,0.627C30.778,40.695,30.787,40.509,30.941,40.431z
		 M33.116,39.17c-0.319,0.083-0.522-0.033-0.472-0.317c-0.105-0.096-0.035-0.364-0.49-0.204c-0.478,0.143-0.316,0.36-0.418,0.541
		c-0.041,0.098,0.07,0.229-0.313,0.378c-0.23,0.07-0.49,0.312-0.599,0.07c-0.024-0.034-0.251-0.074-0.41-0.032
		c-0.283,0.079-0.495,0.146-0.353-0.132c0.146-0.262,0.129-0.499,0.645-0.76c0.816-0.342,1.641-0.628,2.484-1.03
		c0.518-0.243,1.035-0.355,0.986,0.059c-0.035,0.133,0.004,0.274,0.082,0.301c0.129,0.128,0.583,0.08,0.13,0.386
		C34.019,38.668,33.639,39.093,33.116,39.17z M47.033,44.028c-0.178,0.673-0.506,1.294-0.982,1.864
		c-0.477,0.571-1.082,1.074-1.813,1.511c-0.729,0.437-1.548,0.781-2.45,1.035l-0.876,0.247l1.382,4.91l-4.503,1.268l-4.037-14.342
		l5.176-1.457c1.072-0.302,2.057-0.465,2.951-0.489c0.895-0.025,1.684,0.086,2.369,0.333s1.26,0.621,1.725,1.125
		c0.463,0.503,0.801,1.132,1.014,1.886C47.195,42.652,47.208,43.355,47.033,44.028z M46.591,34.398
		c-0.08,0.085-0.256,0.147-0.434,0.191c-0.18,0.027-0.381,0.04-0.572-0.006c-0.361,0.053-0.801,0.449-0.99,0.164
		c-0.223-0.134,0.428-0.23,0.52-0.354c0.057-0.119,0.025-0.207,0.066-0.305c0.113-0.349,0.484-0.459,1.254-0.499
		c-0.676,0.414-0.949,0.693-0.055,0.636C46.498,34.264,46.681,34.255,46.591,34.398z M60.579,40.216
		c-0.176,0.672-0.506,1.293-0.982,1.863c-0.475,0.571-1.08,1.074-1.811,1.511s-1.549,0.781-2.451,1.035l-0.877,0.247l1.383,4.91
		l-4.502,1.268l-4.037-14.342l5.173-1.457c1.074-0.302,2.057-0.465,2.951-0.489s1.686,0.086,2.371,0.333s1.258,0.621,1.723,1.125
		c0.465,0.503,0.801,1.132,1.014,1.886C60.741,38.84,60.757,39.542,60.579,40.216z M68.007,30.334
		c0.309-0.653-0.4-0.456-0.021-1.268c0.416,0.067,0.656,0.327,0.441,0.985c-0.059,0.23-0.16,0.411-0.35,0.512
		C67.907,30.663,67.972,30.47,68.007,30.334z M62.56,27.285c0.27-0.058,0.701-0.122,0.801,0.047c0.193,0.193-0.32,0.214-0.484,0.35
		c-0.559,0.34-1.01,0.407-1.518-0.036c-0.123-0.072-0.588-0.114-1.043-0.194C61.122,27.165,61.866,27.332,62.56,27.285z
		 M65.292,51.056c-0.117-0.039-0.301-0.159-0.143-0.22c0.1-0.069,0.309-0.027,0.492,0.093c0.643,0.349,1.48,0.538,2.223,0.815
		C67.044,51.94,65.759,51.595,65.292,51.056z M77.657,43.597c-0.82,0.496-1.428,0.798-1.822,0.909
		c-2.518,0.709-4.424,0.007-5.715-2.106l-1.223-2.161l-0.979,0.275l1.529,5.438l-4.563,1.284l-4.037-14.342l6.377-1.795
		c0.828-0.233,1.633-0.359,2.412-0.376c0.777-0.018,1.488,0.075,2.129,0.28c0.422,0.135,0.799,0.323,1.141,0.56
		c0.34-0.357,0.758-0.663,1.139-0.791c-0.256,0.342-0.555,0.68-0.834,1.022c0.068,0.056,0.135,0.108,0.199,0.169
		c0.455,0.436,0.779,0.994,0.971,1.673c0.141,0.502,0.205,0.97,0.191,1.402s-0.096,0.841-0.244,1.223
		c-0.148,0.383-0.361,0.745-0.635,1.086s-0.602,0.667-0.982,0.98l0.232,0.473c0.053,0.11,0.102,0.202,0.145,0.278
		s0.078,0.139,0.107,0.188l0.236,0.407c0.152,0.235,0.309,0.428,0.465,0.579c0.156,0.149,0.33,0.258,0.525,0.324
		s0.42,0.091,0.674,0.074c0.256-0.017,0.559-0.075,0.904-0.173c0.055-0.016,0.139-0.045,0.254-0.092
		c0.113-0.048,0.264-0.112,0.445-0.192L77.657,43.597z M134.249,33.856c-0.135,0.204-0.383,0.279-0.736,0.256
		c-0.508,0.058-1.162,0.246-1.248-0.221c0.434,0.065,0.736,0.242,1.033-0.115c0.215-0.161,0.533-0.134,0.816-0.084
		C134.231,33.731,134.31,33.757,134.249,33.856z M139.415,12.131c0.283-0.209,0.531-0.281,0.75-0.167
		c0.119,0.057,0.074,0.119-0.006,0.205c-0.211,0.196-0.496,0.386-0.742,0.349c-0.443-0.137-0.619,0.184-0.926,0.469
		C138.296,12.535,138.95,12.347,139.415,12.131z M133.985,8.064c-0.82,0.194-1.553,0.598-2.408,0.926
		C132.36,8.175,133.513,7.728,133.985,8.064z M130.341,10.481c0.146-0.26,0.131-0.479,0.627-0.736
		c0.836-0.345,1.658-0.651,2.482-1.05c0.537-0.244,1.057-0.34,0.99,0.076c-0.021,0.112,0.021,0.272,0.096,0.28
		c0.133,0.146,0.586,0.099,0.113,0.39c-0.352,0.236-0.732,0.661-1.254,0.756c-0.318,0.084-0.523-0.052-0.49-0.333
		c-0.09-0.098,0-0.368-0.49-0.186c-0.461,0.122-0.316,0.342-0.42,0.521c-0.041,0.101,0.074,0.248-0.311,0.397
		c-0.213,0.05-0.471,0.309-0.58,0.066c-0.025-0.051-0.254-0.091-0.412-0.049C130.411,10.712,130.198,10.762,130.341,10.481z
		 M132.437,11.059c-0.443,0.25-0.846,0.529-1.275,0.612c-0.105,0.034-0.096-0.152,0.059-0.23
		C131.597,11.126,131.999,10.976,132.437,11.059z M130.878,12.744c0.512-0.278,1.129-0.461,1.705-0.693
		c0.117-0.072,0.336-0.087,0.363-0.036c0.035,0.125-0.217,0.29-0.395,0.336c-0.6,0.181-0.658,0.41-0.729,0.679
		c-0.088,0.289-0.568,0.526-0.879,0.664c-0.34,0.198-0.4,0.041-0.395-0.163C130.142,13.388,130.407,13.053,130.878,12.744z
		 M127.321,13.638c0.102,0.188,0.146,0.365-0.273,0.392c-0.311,0.026-0.854,0.089-1.084-0.099c-0.193-0.193-0.35-0.372-0.969-0.189
		c-0.178,0.046-0.473,0.051-0.512-0.09c-0.01-0.072,0.18-0.156,0.328-0.159c0.592-0.106,1.209-0.289,1.816-0.305
		C127.198,13.178,127.589,13.321,127.321,13.638z M124.399,12.575c0.322-0.305,0.734-0.384,1.244-0.313
		c0.18-0.025,0.258,0.128,0.152,0.162C125.409,12.557,124.913,12.556,124.399,12.575z M124.021,10.382
		c-0.9,0.151-1.723,0.199-2.547,0.485C121.71,10.337,122.929,10.1,124.021,10.382z M121.548,12.001
		c0.068-0.047,0.025-0.207-0.078-0.284c-0.25-0.313,0.238-0.515,0.814-0.599c0.908-0.098,1.764-0.298,2.645-0.446
		c0.584-0.049,0.67,0.159,0.949,0.304c0.264,0.162,0.049,0.213-0.234,0.291c-0.156,0.061-0.338,0.216-0.33,0.253
		c0.039,0.271-0.303,0.21-0.531,0.28c-0.398,0.059-0.385-0.108-0.467-0.17c-0.203-0.118-0.186-0.38-0.645-0.237
		c-0.482,0.108-0.287,0.3-0.287,0.431c0.18,0.212,0.064,0.433-0.252,0.533c-0.484,0.22-1.027,0.042-1.471,0.033
		C121.126,12.396,121.538,12.187,121.548,12.001z M118.126,16.772l6.234-1.754c1.16-0.327,2.262-0.449,3.305-0.365
		c1.043,0.085,1.986,0.345,2.83,0.781c0.846,0.437,1.572,1.036,2.184,1.798c0.609,0.763,1.061,1.661,1.352,2.693
		c0.305,1.086,0.402,2.126,0.291,3.121c-0.113,0.996-0.416,1.907-0.908,2.735s-1.16,1.549-2.006,2.165
		c-0.846,0.615-1.85,1.086-3.01,1.413l-6.234,1.754l-3.805-13.517c-0.043-0.024-0.059-0.062-0.033-0.119L118.126,16.772z
		 M75.306,29.442c0.189-0.47-0.018-0.993,0.896-1.423c0.416-0.171,0.805-0.413,1.301-0.69c0.111,0.021,0.451-0.12,0.389,0.146
		c-0.785,0.541-1.26,1.588-2.09,1.95C75.548,29.573,74.94,30.087,75.306,29.442z M113.187,39.194
		c-0.299,0.211-0.568,0.269-0.766,0.17c-0.119-0.058-0.074-0.118,0.006-0.204c0.209-0.197,0.479-0.384,0.758-0.369
		c0.424,0.139,0.6-0.182,0.908-0.467C114.286,38.774,113.614,38.967,113.187,39.194z M110.206,14.484
		c0.086,0.08,0.115,0.15,0.236,0.225c0.139,0.07,0.742-0.22,0.629,0.018c-0.021,0.353-0.592,0.235-0.939,0.378
		c-0.123,0.166-0.314,0.249-0.484,0.33c-0.158,0.06-0.355,0.107-0.453,0.066c-0.158-0.068-0.006-0.165,0.074-0.251
		c0.783-0.429,0.404-0.502-0.367-0.499C109.56,14.358,109.933,14.249,110.206,14.484z M109.058,17.697
		c0.082,0.173-0.289,0.282-0.484,0.348c-0.23,0.053-0.504,0.203-0.525,0.059c-0.045-0.178,0.104-0.292,0.416-0.43
		C108.692,17.604,108.968,17.581,109.058,17.697z M105.552,17.182c0.539-0.098,0.947-0.214,0.781-0.466
		c-0.145-0.219,0.049-0.412,0.51-0.536c0.512-0.278,1.055-0.47,1.479-0.347c0.227,0.039,0.316,0.267-0.223,0.364
		c-0.424,0.118-0.508,0.185-0.477,0.384c0.049,0.712-0.021,0.74-1.367,1.234c-0.105,0.034-0.252,0.056-0.684,0.248
		C106.259,17.482,105.882,17.409,105.552,17.182z M105.72,20.265l10.063-2.832l0.889,3.157l-5.01,1.41l0.732,2.608l4.584-1.291
		l0.74,2.629l-4.584,1.29l0.791,2.811l5.012-1.41l0.883,3.138l-10.064,2.833L105.72,20.265z M101.638,15.27
		c-0.264,0.592-2.529,1.72-3.873,1.991C98.808,16.093,100.374,15.954,101.638,15.27z M95.073,23.261l4.74,8.318l-0.297-9.568
		l4.908-1.382l-0.445,15.604l-5.316,1.497l-8.295-13.144L95.073,23.261z M88.675,23.893c0.752,0.48,0.027,0.68,0.658,1.085
		c0.105,0.093,0.254,0.22,0.07,0.228c-0.219,0.014-0.418-0.085-0.59-0.244C88.304,24.502,88.364,24.16,88.675,23.893z
		 M85.509,26.223c1.051,0.111,2.002,0.406,2.854,0.884c0.854,0.479,1.59,1.127,2.209,1.946c0.617,0.817,1.078,1.768,1.383,2.848
		c0.184,0.651,0.289,1.311,0.316,1.979c0.025,0.666-0.031,1.317-0.172,1.954c-0.139,0.637-0.359,1.249-0.664,1.836
		c-0.303,0.589-0.691,1.13-1.162,1.625c-0.475,0.495-1.031,0.936-1.676,1.317c-0.643,0.383-1.377,0.69-2.197,0.921
		c-0.842,0.237-1.643,0.359-2.398,0.367c-0.756,0.009-1.467-0.077-2.133-0.256c-0.666-0.18-1.281-0.442-1.844-0.79
		c-0.563-0.347-1.066-0.756-1.512-1.229c-0.445-0.472-0.826-0.997-1.146-1.574c-0.32-0.576-0.57-1.188-0.752-1.833
		c-0.582-2.071-0.416-4.002,0.504-5.791c0.547-1.069,1.314-1.941,2.307-2.625c-0.129-0.181,0.174-0.231,0.27-0.297
		c0.076-0.005,0.146-0.008,0.219-0.011c0.67-0.392,1.424-0.708,2.268-0.946C83.349,26.22,84.458,26.111,85.509,26.223z"/>
	<path fill="#FBD702" d="M69.331,34.129c-0.225-0.043-0.475-0.046-0.75-0.009s-0.566,0.1-0.871,0.185l-1.426,0.402l0.809,2.872
		l0.795-0.224l0.662-0.22c0.26-0.096,0.51-0.204,0.75-0.327c0.24-0.122,0.445-0.269,0.619-0.438
		c0.172-0.169,0.293-0.364,0.363-0.586c0.068-0.221,0.063-0.478-0.02-0.769c-0.074-0.266-0.191-0.469-0.354-0.611
		C69.749,34.265,69.556,34.172,69.331,34.129z"/>
	<path fill="#FBD702" d="M55.302,38.166c-0.248-0.088-0.521-0.13-0.82-0.126c-0.301,0.003-0.611,0.052-0.938,0.144l-0.896,0.252
		l0.986,3.503c0.098-0.012,0.223-0.037,0.375-0.072c0.15-0.035,0.328-0.081,0.531-0.138c0.721-0.203,1.242-0.512,1.566-0.925
		c0.322-0.414,0.4-0.919,0.232-1.518c-0.082-0.291-0.213-0.529-0.395-0.714C55.765,38.39,55.55,38.253,55.302,38.166z"/>
	<path fill="#FBD702" d="M128.597,24.895c0.314-0.329,0.543-0.702,0.691-1.117c0.146-0.415,0.219-0.85,0.215-1.303
		c-0.002-0.453-0.059-0.878-0.17-1.271c-0.133-0.476-0.33-0.894-0.588-1.253c-0.26-0.359-0.563-0.648-0.91-0.866
		c-0.348-0.217-0.727-0.355-1.141-0.416c-0.41-0.06-0.838-0.027-1.279,0.097l-1.631,0.459l1.928,6.846l1.629-0.459
		C127.864,25.464,128.282,25.226,128.597,24.895z"/>
	<path fill="#FBD702" d="M41.755,41.979c-0.248-0.088-0.521-0.131-0.821-0.126c-0.3,0.003-0.612,0.052-0.938,0.143l-0.896,0.253
		l0.986,3.503c0.1-0.012,0.225-0.037,0.375-0.073c0.152-0.034,0.33-0.08,0.533-0.138c0.72-0.202,1.241-0.512,1.564-0.924
		c0.324-0.414,0.4-0.919,0.232-1.518c-0.082-0.291-0.213-0.529-0.393-0.714C42.218,42.203,42.003,42.066,41.755,41.979z"/>
	<polygon fill="#FBD702" points="26.201,52.387 28.97,51.607 25.839,45.718 	"/>
	<path fill="#FBD702" d="M143.103,1.004c-0.018,0.002-0.035,0.005-0.053,0.008c0.02,0.015,0.039,0.012,0.055,0.009
		C143.103,1.004,143.103,1.004,143.103,1.004z"/>
	<path fill="#FBD702" d="M26.785,42.999c0.402-0.022,0.36-0.183,0.259-0.37c0.075-0.096,0.093-0.174,0.072-0.239l-1.524,0.429
		c0.031,0.027,0.061,0.056,0.092,0.084C25.916,43.108,26.459,43.046,26.785,42.999z"/>
	<path fill="#FBD702" d="M39.878,41.141c0.079-0.086,0.145-0.149,0.025-0.206c-0.218-0.098-0.483-0.021-0.769,0.169
		c-0.466,0.216-1.12,0.403-0.94,0.875c0.324-0.305,0.5-0.607,0.945-0.471C39.382,41.528,39.667,41.338,39.878,41.141z"/>
	<path fill="#FBD702" d="M72.228,32.7c-0.057,0.118-0.139,0.314,0.021,0.272c0.111,0.002,0.275-0.132,0.357-0.328
		c0.164-0.29,0.379-0.57,0.605-0.85c-0.098-0.082-0.199-0.16-0.305-0.231C72.558,31.931,72.288,32.354,72.228,32.7z"/>
	<path fill="#FBD702" d="M82.257,28.382c0.291-0.025,1.1,0.077,0.439-0.27c-0.414-0.308-0.531-0.861-1.527-0.733
		c-0.389,0.074-0.789,0.092-1.256,0.115c-0.168,0.098-0.332,0.201-0.488,0.308c0.008,0.013,0.01,0.021,0.021,0.034
		C80.411,27.86,81.353,28.496,82.257,28.382z"/>
	<path fill="#FBD702" d="M87.155,29.465c0.16-0.042-0.025-0.162-0.143-0.219c-0.465-0.521-1.75-0.866-2.57-0.671
		c0.742,0.277,1.563,0.469,2.219,0.796C86.847,29.492,87.056,29.534,87.155,29.465z"/>
	<path fill="#FBD702" d="M118.472,17.636c0.264,0.053,0.615,0.057,0.814-0.102c0.299-0.339,0.604-0.163,1.035-0.098
		c-0.09-0.484-0.744-0.295-1.252-0.239c-0.354-0.021-0.602,0.052-0.736,0.257c-0.006,0.01-0.006,0.016-0.008,0.024l0.033,0.119
		C118.39,17.615,118.427,17.628,118.472,17.636z"/>
</g>
</svg>
