<?xml version="1.0" encoding="utf-8"?>
<!-- Generator: Adobe Illustrator 15.1.0, SVG Export Plug-In . SVG Version: 6.00 Build 0)  -->
<!DOCTYPE svg PUBLIC "-//W3C//DTD SVG 1.1//EN" "http://www.w3.org/Graphics/SVG/1.1/DTD/svg11.dtd">
<svg version="1.1" id="Layer_1" xmlns="http://www.w3.org/2000/svg" xmlns:xlink="http://www.w3.org/1999/xlink" x="0px" y="0px"
	 width="16.514px" height="30px" viewBox="0 0 16.514 30" enable-background="new 0 0 16.514 30" xml:space="preserve">
<g>
	<g>
		<path fill="#374041" d="M8.257,30L0.702,11.833L0,8.257C0,3.704,3.705,0,8.257,0s8.257,3.704,8.257,8.257L16.5,8.392l-0.727,3.57
			L8.257,30z M2.038,11.496l6.22,14.927l6.22-14.927l0.661-3.306c-0.036-3.764-3.108-6.814-6.881-6.814S1.413,4.427,1.377,8.19
			L2.038,11.496z"/>
	</g>
	<g>
		<circle fill="#FFFFFF" cx="8.257" cy="8.257" r="3.44"/>
	</g>
	<g>
		<path fill="#374041" d="M8.257,12.386c-2.276,0-4.128-1.852-4.128-4.128c0-2.277,1.852-4.129,4.128-4.129
			c2.277,0,4.129,1.852,4.129,4.129C12.386,10.534,10.535,12.386,8.257,12.386z M8.257,5.505c-1.518,0-2.752,1.234-2.752,2.752
			c0,1.518,1.235,2.752,2.752,2.752s2.752-1.234,2.752-2.752C11.009,6.739,9.775,5.505,8.257,5.505z"/>
	</g>
</g>
</svg>
