<?xml version="1.0" encoding="utf-8"?>
<!-- Generator: Adobe Illustrator 15.1.0, SVG Export Plug-In . SVG Version: 6.00 Build 0)  -->
<!DOCTYPE svg PUBLIC "-//W3C//DTD SVG 1.1//EN" "http://www.w3.org/Graphics/SVG/1.1/DTD/svg11.dtd">
<svg version="1.1" id="Layer_1" xmlns="http://www.w3.org/2000/svg" xmlns:xlink="http://www.w3.org/1999/xlink" x="0px" y="0px"
	 width="28px" height="30px" viewBox="0 0 28 30" enable-background="new 0 0 28 30" xml:space="preserve">
<g>
	<polygon fill="#FFFFFF" points="0.333,2.5 19.333,2.5 27.854,11.354 19.293,18.5 0.333,18.5 	"/>
	<g>
		<path fill="#374041" d="M19.5,19.5h-19v-1h18.793l7.5-7.5l-7.5-7.5H0.5v-1h19c0.133,0,0.26,0.053,0.354,0.146l8,8
			c0.195,0.195,0.195,0.512,0,0.707l-8,8C19.76,19.447,19.633,19.5,19.5,19.5z"/>
	</g>
	<g>
		<path fill="#374041" d="M2.5,30h-2C0.224,30,0,29.776,0,29.5v-28C0,0.673,0.673,0,1.5,0S3,0.673,3,1.5V3H2V1.5
			C2,1.224,1.775,1,1.5,1S1,1.224,1,1.5V29h1V19h1v10.5C3,29.776,2.776,30,2.5,30z"/>
	</g>
	<g>
		<rect x="2" y="4.5" fill="#374041" width="1" height="13"/>
	</g>
</g>
</svg>
