<?xml version="1.0" encoding="utf-8"?>
<!-- Generator: Adobe Illustrator 15.1.0, SVG Export Plug-In . SVG Version: 6.00 Build 0)  -->
<!DOCTYPE svg PUBLIC "-//W3C//DTD SVG 1.1//EN" "http://www.w3.org/Graphics/SVG/1.1/DTD/svg11.dtd">
<svg version="1.1" id="Layer_1" xmlns="http://www.w3.org/2000/svg" xmlns:xlink="http://www.w3.org/1999/xlink" x="0px" y="0px"
	 width="21.563px" height="30px" viewBox="0 0 21.563 30" enable-background="new 0 0 21.563 30" xml:space="preserve">
<g>
	<path fill="#FFFFFF" d="M0.469,27.188c0,0-0.586,1.523,0.352,1.992s2.93,0.469,2.93,0.469L19.688,30c0,0,0.586-0.234,1.055-1.055
		s0-2.227,0-2.227L0.469,27.188z"/>
	<g>
		<path fill="#374041" d="M19.688,30H1.875C0.841,30,0,29.159,0,28.125V15c0-1.034,0.841-1.875,1.875-1.875h17.813
			c1.033,0,1.875,0.841,1.875,1.875v13.125C21.563,29.159,20.721,30,19.688,30z M1.875,14.063c-0.517,0-0.938,0.421-0.938,0.938
			v13.125c0,0.517,0.42,0.938,0.938,0.938h17.813c0.518,0,0.938-0.421,0.938-0.938V15c0-0.517-0.42-0.938-0.938-0.938H1.875z"/>
	</g>
	<g>
		<g>
			<rect x="10.313" y="15.938" fill="#374041" width="0.938" height="0.938"/>
		</g>
		<g>
			<rect x="12.188" y="15.938" fill="#374041" width="0.938" height="0.938"/>
		</g>
		<g>
			<rect x="8.438" y="15.938" fill="#374041" width="0.938" height="0.938"/>
		</g>
	</g>
	<g>
		<path fill="#374041" d="M18.75,13.594h-0.938V7.969c0-3.877-3.154-7.031-7.031-7.031S3.75,4.091,3.75,7.969v5.625H2.813V7.969
			C2.813,3.575,6.387,0,10.781,0s7.969,3.575,7.969,7.969V13.594z"/>
	</g>
	<g>
		<path fill="#374041" d="M15.938,12.188H15V7.969c0-2.326-1.893-4.219-4.219-4.219S6.563,5.643,6.563,7.969v4.219H5.625V7.969
			c0-2.843,2.313-5.156,5.156-5.156s5.156,2.313,5.156,5.156V12.188z"/>
	</g>
	<g>
		<rect x="0.469" y="26.25" fill="#374041" width="20.625" height="0.938"/>
	</g>
</g>
</svg>
