<?xml version="1.0" encoding="utf-8"?>
<!-- Generator: Adobe Illustrator 15.1.0, SVG Export Plug-In . SVG Version: 6.00 Build 0)  -->
<!DOCTYPE svg PUBLIC "-//W3C//DTD SVG 1.1//EN" "http://www.w3.org/Graphics/SVG/1.1/DTD/svg11.dtd">
<svg version="1.1" id="Layer_1" xmlns="http://www.w3.org/2000/svg" xmlns:xlink="http://www.w3.org/1999/xlink" x="0px" y="0px"
	 width="15px" height="24px" viewBox="0 0 15 24" enable-background="new 0 0 15 24" xml:space="preserve">
<g>
	<path fill="#414042" d="M12.75,11.074c0,0.396-0.314,0.718-0.7,0.718s-0.699-0.322-0.699-0.718V6.231
		c0-2.325-1.005-3.799-2.291-4.43C8.568,1.56,8.034,1.438,7.499,1.438c-0.535,0-1.07,0.122-1.561,0.363
		c-1.284,0.631-2.289,2.104-2.289,4.43v4.843c0,0.396-0.313,0.718-0.7,0.718c-0.386,0-0.699-0.322-0.699-0.718V6.231
		c0-2.965,1.354-4.877,3.087-5.727C6.02,0.168,6.759,0,7.499,0C8.238,0,8.978,0.168,9.66,0.504c1.734,0.85,3.09,2.764,3.09,5.727
		V11.074z"/>
	<path fill="#414042" d="M0.7,10.501h13.601c0.387,0,0.699,0.322,0.699,0.718v11.122c0,0.453-0.182,0.869-0.475,1.171l0.002,0.001
		C14.234,23.814,13.83,24,13.387,24H1.614c-0.443,0-0.845-0.186-1.138-0.486l-0.001-0.001l-0.001,0.001
		C0.182,23.215,0,22.799,0,22.342V11.22C0,10.824,0.313,10.501,0.7,10.501 M13.602,11.94H1.399v10.402
		c0,0.061,0.024,0.115,0.063,0.155l-0.001,0.001c0.039,0.041,0.093,0.063,0.153,0.063h11.773c0.058,0,0.111-0.024,0.15-0.064
		l0.002,0.001l0.002-0.001c0.037-0.038,0.061-0.094,0.061-0.155V11.94z"/>
	<rect y="0.25" fill="none" width="15" height="23.75"/>
	<rect fill="none" width="15" height="24"/>
</g>
</svg>
