<?xml version="1.0" encoding="utf-8"?>
<!-- Generator: Adobe Illustrator 15.1.0, SVG Export Plug-In . SVG Version: 6.00 Build 0)  -->
<!DOCTYPE svg PUBLIC "-//W3C//DTD SVG 1.1//EN" "http://www.w3.org/Graphics/SVG/1.1/DTD/svg11.dtd">
<svg version="1.1" id="Layer_1" xmlns="http://www.w3.org/2000/svg" xmlns:xlink="http://www.w3.org/1999/xlink" x="0px" y="0px"
	 width="20.587px" height="32.032px" viewBox="0 0 20.587 32.032" enable-background="new 0 0 20.587 32.032" xml:space="preserve">
<g>
	<path fill="#FFD503" d="M17.498,14.779c0,0.529-0.43,0.959-0.96,0.959s-0.96-0.43-0.96-0.959V8.316c0-3.104-1.379-5.07-3.145-5.912
		C11.76,2.082,11.026,1.92,10.292,1.92S8.824,2.082,8.15,2.404C6.387,3.246,5.008,5.211,5.008,8.316v6.463
		c0,0.529-0.43,0.959-0.96,0.959s-0.96-0.43-0.96-0.959V8.316c0-3.957,1.858-6.51,4.237-7.645C8.262,0.225,9.277,0,10.292,0
		s2.03,0.225,2.967,0.672c2.38,1.135,4.239,3.689,4.239,7.645V14.779L17.498,14.779z"/>
	<path fill="#FFD503" d="M0.96,14.016h18.667c0.53,0,0.96,0.43,0.96,0.959v14.844c0,0.605-0.25,1.16-0.651,1.563l0.002,0.002
		c-0.401,0.4-0.955,0.648-1.565,0.648H2.215c-0.607,0-1.16-0.248-1.562-0.648l-0.002-0.002l-0.002,0.002
		C0.249,30.983,0,30.428,0,29.819V14.975C0,14.445,0.43,14.016,0.96,14.016L0.96,14.016z M18.667,15.936H1.92v13.883
		c0,0.08,0.033,0.154,0.087,0.207l-0.002,0.002c0.054,0.053,0.128,0.084,0.21,0.084h16.157c0.08,0,0.154-0.033,0.208-0.086
		l0.002,0.002l0.002-0.002c0.051-0.051,0.083-0.125,0.083-0.207V15.936L18.667,15.936z"/>
</g>
</svg>
