<?xml version="1.0" encoding="utf-8"?>
<!-- Generator: Adobe Illustrator 15.1.0, SVG Export Plug-In . SVG Version: 6.00 Build 0)  -->
<!DOCTYPE svg PUBLIC "-//W3C//DTD SVG 1.1//EN" "http://www.w3.org/Graphics/SVG/1.1/DTD/svg11.dtd">
<svg version="1.1" id="Layer_1" xmlns="http://www.w3.org/2000/svg" xmlns:xlink="http://www.w3.org/1999/xlink" x="0px" y="0px"
	 width="33.738px" height="33.893px" viewBox="0 0 33.738 33.893" enable-background="new 0 0 33.738 33.893" xml:space="preserve">
<path fill="none" stroke="#FFFFFF" stroke-width="1.9842" stroke-linecap="round" stroke-linejoin="round" stroke-miterlimit="22.9256" d="
	M-110.604,15.875l16.287-13.65c0.207-0.174,0.482-0.246,0.744-0.223c0.262-0.023,0.533,0.05,0.744,0.223l16.287,13.65
	c0.395,0.33,0.438,0.902,0.08,1.271l-1.738,1.798c-0.355,0.368-0.98,0.403-1.383,0.074l-13.99-11.772l-13.99,11.772
	c-0.396,0.333-1.025,0.296-1.383-0.074l-1.738-1.798C-111.044,16.776-111.007,16.204-110.604,15.875L-110.604,15.875z
	 M-82.44,16.962l-0.131,13.948h-5.777v-8.426c0-2.874-2.352-5.225-5.225-5.225l0,0c-2.873,0-5.225,2.352-5.225,5.225v8.426h-6.021
	l0.061-13.948"/>
<g>
	<path fill="#FFFFFF" d="M-48.605,17.537c0,0,0.026-0.045,0.081-0.139c0.416-0.701,2.395-3.945,4.979-6.971
		c1.29-1.51,2.733-2.965,4.172-4.01c1.44-1.055,2.858-1.664,4.047-1.656c0.41,0.002,0.799,0.066,1.185,0.209
		c1.246,0.461,2.009,1.016,2.452,1.572c0.441,0.559,0.617,1.131,0.622,1.828c0.003,0.801-0.272,1.758-0.759,2.764
		c-0.725,1.51-1.904,3.107-3.068,4.506c-1.166,1.404-2.305,2.602-2.998,3.432c-0.654,0.787-1.244,1.617-1.682,2.494
		s-0.729,1.811-0.729,2.789c-0.006,0.984,0.317,1.998,1,2.885c0.682,0.891,1.689,1.668,3.063,2.355
		c0.973,0.486,1.979,0.715,2.961,0.713c2.098-0.006,4.017-0.99,5.712-2.344c2.545-2.041,4.677-4.982,6.212-7.424
		c1.529-2.443,2.445-4.387,2.456-4.41c0.233-0.496,0.021-1.088-0.476-1.32c-0.495-0.234-1.086-0.021-1.319,0.475
		c-0.001,0-0.021,0.045-0.067,0.141c-0.348,0.713-2.022,4.033-4.387,7.121c-1.18,1.543-2.532,3.023-3.938,4.086
		c-1.409,1.07-2.841,1.695-4.192,1.691c-0.684,0-1.361-0.15-2.074-0.504c-1.186-0.592-1.936-1.209-2.371-1.783
		c-0.436-0.578-0.59-1.102-0.595-1.682c-0.001-0.572,0.177-1.215,0.521-1.902c0.341-0.686,0.842-1.404,1.432-2.111
		c0.407-0.488,1.069-1.209,1.819-2.061c1.128-1.279,2.462-2.861,3.538-4.555c1.068-1.697,1.915-3.502,1.927-5.355
		c0.005-1.066-0.319-2.156-1.058-3.07c-0.736-0.916-1.835-1.645-3.312-2.191c-0.612-0.227-1.246-0.332-1.874-0.332
		c-1.965,0.012-3.818,0.971-5.539,2.277c-2.578,1.975-4.91,4.83-6.633,7.205c-1.719,2.373-2.813,4.264-2.824,4.285
		c-0.274,0.473-0.112,1.08,0.362,1.355C-49.486,18.174-48.88,18.012-48.605,17.537z"/>
	<circle fill="#FFFFFF" cx="-49.464" cy="16.707" r="4"/>
	<circle fill="#FFFFFF" cx="-19.798" cy="16.707" r="4"/>
</g>
<g>
	<path fill="none" stroke="#FFFFFF" stroke-width="1.9842" stroke-miterlimit="22.9256" d="M2.696,9.151h28.347
		c0.936,0,1.76,0.768,1.7,1.701l-0.284,4.423c-0.059,0.934-0.766,1.701-1.7,1.701H2.979c-0.936,0-1.642-0.768-1.701-1.701
		l-0.283-4.423C0.936,9.918,1.761,9.151,2.696,9.151L2.696,9.151z M30.191,17.42l-0.566,13.779 M29.625,31.199
		c-0.06,0.928-0.771,1.701-1.701,1.701 M27.924,32.9H6.097c-0.924,0-1.643-0.768-1.7-1.701L3.546,17.42"/>
	
		<line fill="none" stroke="#FFFFFF" stroke-width="1.9842" stroke-linecap="round" stroke-linejoin="round" stroke-miterlimit="22.9256" x1="16.869" y1="9.151" x2="16.869" y2="32.9"/>
	
		<path fill="none" stroke="#FFFFFF" stroke-width="1.9842" stroke-linecap="round" stroke-linejoin="round" stroke-miterlimit="22.9256" d="
		M17.209,8.299C9.866-8.709-4.703,9.463,17.209,8.299L17.209,8.299c17.09-0.45,6.308-12.501,0.609-1.976
		C17.643,6.648,17.338,7.924,17.209,8.299L17.209,8.299z"/>
</g>
<g>
	
		<path fill="none" stroke="#FFFFFF" stroke-width="1.9842" stroke-linecap="round" stroke-linejoin="round" stroke-miterlimit="22.9256" d="
		M74.924,11.594c-0.9,3.125-3.351,5.398-5.68,5.514c-2.336-0.115-4.794-2.404-5.688-5.543l-0.44,0.068
		c-0.498,0.078-0.968-0.266-1.046-0.764l-0.432-2.777c-0.078-0.498,0.267-0.969,0.764-1.045l0.313-0.049
		C62.576,6.563,62.5,6.1,62.5,5.619V4.596c0-2.5,2.047-4.547,4.548-4.547h0.542c-0.006-0.086,0.005-0.168,0.033-0.244
		c0.279-0.736,2.145-0.715,4.166,0.051c0.43,0.164,0.832,0.348,1.195,0.541c1.645,0.688,2.807,2.314,2.807,4.199v1.023
		c0,0.48-0.075,0.943-0.215,1.379l0.313,0.049c0.498,0.076,0.842,0.547,0.765,1.045l-0.431,2.777
		c-0.078,0.498-0.549,0.842-1.047,0.764L74.924,11.594L74.924,11.594z"/>
	
		<path fill="none" stroke="#FFFFFF" stroke-width="1.9842" stroke-linecap="round" stroke-linejoin="round" stroke-miterlimit="22.9256" d="
		M53.194,33.07l-0.816-7.424v-0.779c0-1.734,1.756-2.736,3.221-3.033c1.337-0.27,6.345-1.355,7.964-2.479l0.1-0.014l2.931,13.752
		l1.759-9.072l-1.49-3.844h4.813l-1.49,3.844l1.709,9.072l2.98-13.752l0.1,0.014c1.619,1.123,6.625,2.209,7.963,2.479
		c1.465,0.297,3.221,1.301,3.221,3.033v0.779L85.34,33.07"/>
</g>
<g>
	
		<path fill="none" stroke="#354E5F" stroke-width="1.9842" stroke-linecap="round" stroke-linejoin="round" stroke-miterlimit="22.9256" d="
		M86.304,62.728c-0.9,3.125-3.351,5.398-5.68,5.514c-2.336-0.115-4.794-2.404-5.688-5.543l-0.44,0.068
		c-0.498,0.078-0.968-0.266-1.046-0.764l-0.432-2.777c-0.078-0.498,0.267-0.969,0.764-1.045l0.313-0.049
		c-0.14-0.436-0.216-0.898-0.216-1.379v-1.023c0-2.5,2.047-4.547,4.548-4.547h0.542c-0.006-0.086,0.005-0.168,0.033-0.244
		c0.279-0.736,2.145-0.715,4.166,0.051c0.43,0.164,0.832,0.348,1.195,0.541c1.645,0.688,2.807,2.314,2.807,4.199v1.023
		c0,0.48-0.075,0.943-0.215,1.379l0.313,0.049c0.498,0.076,0.842,0.547,0.765,1.045l-0.431,2.777
		c-0.078,0.498-0.549,0.842-1.047,0.764L86.304,62.728L86.304,62.728z"/>
	
		<path fill="none" stroke="#354E5F" stroke-width="1.9842" stroke-linecap="round" stroke-linejoin="round" stroke-miterlimit="22.9256" d="
		M64.574,84.204l-0.816-7.424v-0.779c0-1.734,1.756-2.736,3.221-3.033c1.337-0.27,6.345-1.355,7.964-2.479l0.1-0.014l2.931,13.752
		l1.759-9.072l-1.49-3.844h4.813l-1.49,3.844l1.709,9.072l2.98-13.752l0.1,0.014c1.619,1.123,6.625,2.209,7.963,2.479
		c1.465,0.297,3.221,1.301,3.221,3.033v0.779l-0.816,7.424"/>
</g>
<g>
	
		<path fill="none" stroke="#354E5F" stroke-width="1.9842" stroke-linecap="round" stroke-linejoin="round" stroke-miterlimit="22.9256" d="
		M-50.502,69.842c0,0,8.953-15.486,15.667-13c9,3.332-0.833,12.666-3.333,15.666s-3.762,6.453,1.333,9c8,4,16-13,16-13"/>
	<circle fill="#354E5F" cx="-50.502" cy="69.508" r="4"/>
	<circle fill="#354E5F" cx="-20.835" cy="69.508" r="4"/>
</g>
<path fill="none" stroke="#354E5F" stroke-width="1.9842" stroke-linecap="round" stroke-linejoin="round" stroke-miterlimit="22.9256" d="
	M-115.329,68.6l16.287-13.65c0.207-0.173,0.482-0.245,0.744-0.222c0.262-0.023,0.533,0.049,0.744,0.222l16.287,13.65
	c0.395,0.331,0.438,0.903,0.08,1.272l-1.738,1.797c-0.355,0.369-0.98,0.404-1.383,0.074l-13.99-11.771l-13.99,11.771
	c-0.396,0.334-1.025,0.297-1.383-0.074l-1.738-1.797C-115.769,69.501-115.731,68.929-115.329,68.6L-115.329,68.6z M-87.165,69.687
	l-0.131,13.949h-5.777v-8.427c0-2.874-2.352-5.225-5.225-5.225l0,0c-2.873,0-5.225,2.353-5.225,5.225v8.427h-6.021l0.061-13.949"/>
<g>
	<path fill="none" stroke="#364E5F" stroke-width="1.9842" stroke-miterlimit="22.9256" d="M8.952,59.917h28.347
		c0.936,0,1.76,0.768,1.7,1.701l-0.284,4.424c-0.059,0.934-0.766,1.701-1.7,1.701H9.235c-0.936,0-1.642-0.768-1.701-1.701
		l-0.283-4.424C7.191,60.685,8.017,59.917,8.952,59.917L8.952,59.917z M36.447,68.187l-0.566,13.779 M35.881,81.966
		c-0.06,0.928-0.771,1.701-1.701,1.701 M34.18,83.667H12.353c-0.924,0-1.643-0.768-1.7-1.701L9.802,68.187"/>
	
		<line fill="none" stroke="#364E5F" stroke-width="1.9842" stroke-linecap="round" stroke-linejoin="round" stroke-miterlimit="22.9256" x1="23.125" y1="59.917" x2="23.125" y2="83.667"/>
	
		<path fill="none" stroke="#364E5F" stroke-width="1.9842" stroke-linecap="round" stroke-linejoin="round" stroke-miterlimit="22.9256" d="
		M23.465,59.065C16.122,42.057,1.553,60.229,23.465,59.065L23.465,59.065c17.09-0.45,6.308-12.501,0.609-1.976
		C23.898,57.414,23.594,58.69,23.465,59.065L23.465,59.065z"/>
</g>
</svg>
