<?xml version="1.0" encoding="utf-8"?>
<!-- Generator: Adobe Illustrator 15.1.0, SVG Export Plug-In . SVG Version: 6.00 Build 0)  -->
<!DOCTYPE svg PUBLIC "-//W3C//DTD SVG 1.1//EN" "http://www.w3.org/Graphics/SVG/1.1/DTD/svg11.dtd">
<svg version="1.1" id="Layer_1" xmlns="http://www.w3.org/2000/svg" xmlns:xlink="http://www.w3.org/1999/xlink" x="0px" y="0px"
	 width="6.5px" height="14.272px" viewBox="0 0 6.5 14.272" enable-background="new 0 0 6.5 14.272" xml:space="preserve">
<path fill="#545960" d="M6.063,4.128c-0.245,0-0.447,0.191-0.447,0.438v6.466c0,0.662-0.238,1.202-0.699,1.664
	c-0.459,0.461-1.011,0.7-1.679,0.7c-0.652,0-1.209-0.231-1.671-0.692c-0.459-0.459-0.691-1.018-0.691-1.671V8.592V7.288V4.073V2.53
	V2.514V2.497c0-0.437,0.161-0.817,0.47-1.129C1.658,1.052,2.038,0.884,2.49,0.884c0.453,0,0.833,0.168,1.146,0.485
	C3.944,1.68,4.107,2.06,4.107,2.497v0.016v0.031v7.217c0,0.454-0.352,0.804-0.805,0.804c-0.437,0-0.796-0.364-0.796-0.804V5.982
	c0-0.247-0.19-0.438-0.437-0.438c-0.246,0-0.438,0.191-0.438,0.438v3.778c0,0.469,0.16,0.867,0.485,1.194s0.716,0.486,1.186,0.486
	c0.469,0,0.863-0.165,1.192-0.486c0.323-0.313,0.485-0.707,0.485-1.194V2.514V2.497c0-0.684-0.247-1.27-0.731-1.758
	C3.762,0.248,3.175,0,2.49,0C1.805,0,1.22,0.248,0.732,0.739C0.249,1.227,0,1.813,0,2.497v0.016v1.56v3.215v1.304v2.441
	c0,0.899,0.319,1.664,0.947,2.294c0.628,0.628,1.392,0.945,2.292,0.945c0.898,0,1.679-0.303,2.315-0.94
	C6.189,12.697,6.5,11.918,6.5,11.033V4.567C6.5,4.32,6.309,4.128,6.063,4.128z"/>
</svg>
