<?xml version="1.0" encoding="utf-8"?>
<!-- Generator: Adobe Illustrator 15.1.0, SVG Export Plug-In . SVG Version: 6.00 Build 0)  -->
<!DOCTYPE svg PUBLIC "-//W3C//DTD SVG 1.1//EN" "http://www.w3.org/Graphics/SVG/1.1/DTD/svg11.dtd">
<svg version="1.1" id="Layer_1" xmlns="http://www.w3.org/2000/svg" xmlns:xlink="http://www.w3.org/1999/xlink" x="0px" y="0px"
	 width="11.734px" height="11.497px" viewBox="0 0 11.734 11.497" enable-background="new 0 0 11.734 11.497" xml:space="preserve">
<path fill="#545960" d="M11.716,5.44c0.004-0.013,0.012-0.023,0.014-0.035c0.001-0.007,0-0.014,0.001-0.021
	c0.004-0.022,0.004-0.043,0.003-0.067c-0.001-0.02-0.001-0.041-0.006-0.062v-0.02c-0.003-0.013-0.013-0.025-0.017-0.037
	c-0.008-0.021-0.015-0.041-0.025-0.06c-0.012-0.018-0.024-0.035-0.038-0.051c-0.013-0.015-0.025-0.031-0.04-0.044
	c-0.018-0.015-0.037-0.025-0.056-0.037c-0.013-0.008-0.022-0.018-0.036-0.024L0.533,0.033C0.384-0.033,0.212,0.002,0.101,0.12
	c-0.109,0.118-0.133,0.293-0.057,0.436l2.567,4.783l-2.577,5.624c-0.067,0.146-0.034,0.32,0.084,0.432
	c0.071,0.067,0.165,0.103,0.259,0.103c0.06,0,0.121-0.015,0.176-0.043L11.537,5.66c0.013-0.007,0.02-0.016,0.03-0.023
	c0.018-0.012,0.033-0.023,0.05-0.038c0.016-0.014,0.029-0.03,0.041-0.048c0.013-0.015,0.023-0.032,0.033-0.049
	C11.703,5.482,11.71,5.461,11.716,5.44 M9.606,4.949H3.259L1.234,1.177L9.606,4.949z M1.182,10.27l2.094-4.566h6.563L1.182,10.27z"
	/>
</svg>
