<?xml version="1.0" encoding="utf-8"?>
<!-- Generator: Adobe Illustrator 15.1.0, SVG Export Plug-In . SVG Version: 6.00 Build 0)  -->
<!DOCTYPE svg PUBLIC "-//W3C//DTD SVG 1.1//EN" "http://www.w3.org/Graphics/SVG/1.1/DTD/svg11.dtd">
<svg version="1.1" id="Layer_1" xmlns="http://www.w3.org/2000/svg" xmlns:xlink="http://www.w3.org/1999/xlink" x="0px" y="0px"
	 width="14px" height="14px" viewBox="0 0 14 14" enable-background="new 0 0 14 14" xml:space="preserve">
<path fill="#4E4E4E" d="M7.001,14C3.141,14,0,10.862,0,7c0-3.859,3.141-7,7.001-7c3.86,0,7,3.142,7,7C14,10.862,10.861,14,7.001,14
	 M7.001,1.634C4.042,1.634,1.635,4.042,1.635,7c0,2.959,2.407,5.365,5.366,5.365c2.958,0,5.365-2.406,5.365-5.365
	C12.366,4.042,9.959,1.634,7.001,1.634 M7.001,7.818c0.148,0,0.294-0.039,0.425-0.119L10,6.132c0.383-0.236,0.507-0.739,0.271-1.124
	C10.038,4.623,9.535,4.5,9.149,4.736L7.818,5.546v-1.68c0-0.451-0.366-0.817-0.817-0.817c-0.452,0-0.817,0.366-0.817,0.817V7
	c0,0.295,0.158,0.568,0.417,0.713C6.725,7.784,6.862,7.818,7.001,7.818"/>
</svg>
