<?xml version="1.0" encoding="utf-8"?>
<!-- Generator: Adobe Illustrator 15.1.0, SVG Export Plug-In . SVG Version: 6.00 Build 0)  -->
<!DOCTYPE svg PUBLIC "-//W3C//DTD SVG 1.1//EN" "http://www.w3.org/Graphics/SVG/1.1/DTD/svg11.dtd">
<svg version="1.1" id="Layer_1" xmlns="http://www.w3.org/2000/svg" xmlns:xlink="http://www.w3.org/1999/xlink" x="0px" y="0px"
	 width="310.707px" height="410.006px" viewBox="0 0 310.707 410.006" enable-background="new 0 0 310.707 410.006"
	 xml:space="preserve">
<line fill="none" stroke="#FED501" stroke-width="11.339" stroke-linecap="round" stroke-miterlimit="10" x1="143.27" y1="403.003" x2="69.937" y2="311.003"/>
<path fill="none" stroke="#FED501" stroke-width="11.339" stroke-linecap="round" stroke-miterlimit="10" d="M59.27,294.336
	c0,0-58-93.333-53.333-154"/>
<path fill="none" stroke="#FED501" stroke-width="11.339" stroke-linecap="round" stroke-miterlimit="10" d="M9.937,114.336
	c0,0,28-97.333,130.667-108.667"/>
<path fill="none" stroke="#FED501" stroke-width="11.339" stroke-linecap="round" stroke-miterlimit="10" d="M171.937,6.336
	c0,0,92.666,2.667,127.333,104.667"/>
<path fill="none" stroke="#FED501" stroke-width="11.339" stroke-linecap="round" stroke-miterlimit="10" d="M303.937,133.003
	c0,0,5.477,31.981-8,71.333c-16.667,48.667-50,94.667-50,94.667"/>
<path fill="none" stroke="#FED501" stroke-width="11.339" stroke-linecap="round" stroke-miterlimit="10" d="M234.604,317.003
	c0,0-42.001,56-68.667,87.333"/>
<path fill="none" stroke="#FED501" stroke-width="11.339" stroke-linecap="round" stroke-miterlimit="10" d="M101.937,52.17
	c0,0,51.5-29,110,1.5"/>
<path fill="none" stroke="#FED501" stroke-width="11.339" stroke-linecap="round" stroke-miterlimit="10" d="M229.937,65.67
	c0,0,47.5,31,46,100"/>
<path fill="none" stroke="#FED501" stroke-width="11.339" stroke-linecap="round" stroke-miterlimit="10" d="M270.937,187.67
	c0,0-10.5,49-73,130"/>
<polyline fill="none" stroke="#FED501" stroke-width="11.339" stroke-linecap="round" stroke-miterlimit="10" points="
	182.937,335.17 154.937,368.17 113.437,321.17 "/>
<path fill="none" stroke="#FED501" stroke-width="11.339" stroke-linecap="round" stroke-miterlimit="10" d="M98.437,297.67
	c0,0-34.5-41.5-54-95"/>
<path fill="none" stroke="#FED501" stroke-width="11.339" stroke-linecap="round" stroke-miterlimit="10" d="M38.937,181.67
	c0,0-18.5-68.5,43-117.5"/>
<path fill="none" stroke="#FED501" stroke-width="8.504" stroke-linecap="round" stroke-miterlimit="10" d="M73.437,126.17
	c0,0,14-41,66.5-52"/>
<path fill="none" stroke="#FED501" stroke-width="8.504" stroke-linecap="round" stroke-miterlimit="10" d="M165.937,73.17
	c0,0,45.5,0.5,73.5,53"/>
<path fill="none" stroke="#FED501" stroke-width="8.504" stroke-linecap="round" stroke-miterlimit="10" d="M244.437,140.67
	c0,0,7,22.5-3.5,53s-22,44.5-22,44.5"/>
<path fill="none" stroke="#FED501" stroke-width="8.504" stroke-linecap="round" stroke-miterlimit="10" d="M208.437,253.67
	c0,0-21,32-46.5,60.5"/>
<path fill="none" stroke="#FED501" stroke-width="8.504" stroke-linecap="round" stroke-miterlimit="10" d="M146.937,312.67
	c0,0-42.5-50-55.5-73.5"/>
<path fill="none" stroke="#FED501" stroke-width="8.504" stroke-linecap="round" stroke-miterlimit="10" d="M83.437,223.67
	c0,0-23.5-43-18-79"/>
<path fill="none" stroke="#FED501" stroke-width="5.669" stroke-linecap="round" stroke-miterlimit="10" d="M123.937,116.336
	c0,0,32.333-21,66,1.667"/>
<path fill="none" stroke="#FED501" stroke-width="5.669" stroke-linecap="round" stroke-miterlimit="10" d="M199.937,128.003
	c0,0,20.667,15.667,12.667,53.333"/>
<path fill="none" stroke="#FED501" stroke-width="5.669" stroke-linecap="round" stroke-miterlimit="10" d="M206.604,195.67
	c0,0-15.667,31.333-30.667,49"/>
<polyline fill="none" stroke="#FED501" stroke-width="5.669" stroke-linecap="round" stroke-miterlimit="10" points="166.27,255.67 
	154.937,269.67 132.937,242.337 "/>
<path fill="none" stroke="#FED501" stroke-width="5.669" stroke-linecap="round" stroke-miterlimit="10" d="M123.604,229.337
	c0,0-17.334-24.333-23.667-47.667"/>
<path fill="none" stroke="#FED501" stroke-width="5.669" stroke-linecap="round" stroke-miterlimit="10" d="M96.604,164.003
	c0,0,2.333-27.667,17.333-38"/>
</svg>
