<?xml version="1.0" encoding="utf-8"?>
<!-- Generator: Adobe Illustrator 15.1.0, SVG Export Plug-In . SVG Version: 6.00 Build 0)  -->
<!DOCTYPE svg PUBLIC "-//W3C//DTD SVG 1.1//EN" "http://www.w3.org/Graphics/SVG/1.1/DTD/svg11.dtd">
<svg version="1.1" id="Layer_1" xmlns="http://www.w3.org/2000/svg" xmlns:xlink="http://www.w3.org/1999/xlink" x="0px" y="0px"
	 width="378.25px" height="243.645px" viewBox="0 0 378.25 243.645" enable-background="new 0 0 378.25 243.645"
	 xml:space="preserve">
<path fill="#ffd503" d="M378.25,219.699V23.945C378.25,10.742,367.507,0,354.305,0H23.949C10.742,0,0,10.742,0,23.945v195.754
	c0,13.203,10.742,23.945,23.949,23.945h330.355C367.507,243.645,378.25,232.902,378.25,219.699L378.25,219.699z M318.063,12v219.645
	H67.91V12H318.063z M366.25,23.945v195.754c0,6.586-5.359,11.945-11.945,11.945h-28.242V12h28.242
	C360.891,12,366.25,17.359,366.25,23.945L366.25,23.945z M12,219.699V23.945C12,17.359,17.359,12,23.949,12h35.965v219.645H23.949
	C17.359,231.645,12,226.285,12,219.699L12,219.699z M12,219.699"/>
<path fill="#ffd503" d="M54.609,121.824c0-10.836-8.816-19.652-19.652-19.652s-19.652,8.816-19.652,19.652
	c0,10.832,8.816,19.648,19.652,19.648S54.609,132.66,54.609,121.824L54.609,121.824z M23.305,121.824
	c0-6.426,5.227-11.652,11.652-11.652c6.424,0,11.652,5.226,11.652,11.652c0,6.422-5.229,11.648-11.652,11.648
	C28.531,133.473,23.305,128.246,23.305,121.824L23.305,121.824z M23.305,121.824"/>
<path fill="#ffd503" d="M340.132,94.621v54.402c0,2.207,1.793,4,4,4c2.211,0,4-1.793,4-4V94.621c0-2.207-1.789-4-4-4
	C341.925,90.621,340.132,92.414,340.132,94.621L340.132,94.621z"/>
<path fill="#ffd503" d="M340.132,94.621"/>
<path fill="#ffd503" d="M340.132,80.227c0,1.046,0.427,2.078,1.168,2.82c0.755,0.746,1.778,1.18,2.832,1.18
	c1.06,0,2.082-0.434,2.832-1.18c0.747-0.742,1.168-1.774,1.168-2.82c0-1.059-0.421-2.082-1.168-2.832
	c-0.741-0.747-1.772-1.168-2.832-1.168c-1.054,0-2.077,0.421-2.832,1.168C340.559,78.137,340.132,79.168,340.132,80.227
	L340.132,80.227z M340.132,80.227"/>
<g>
	<path fill="#ffd503" d="M139.307,121.577c0-17.979,9.134-33.836,22.988-43.195V64.917
		c-20.528,10.606-34.584,32.01-34.584,56.661c0,33.254,25.45,60.542,57.905,63.45v11.847l23.191-17.392l-23.191-17.357v11.257
		C159.581,170.523,139.307,148.409,139.307,121.577L139.307,121.577z M139.307,121.577"/>
	<path fill="#ffd503" d="M255.117,121.577c0-31.21-22.475-57.194-52.107-62.623V46.316l-23.156,17.356
		l23.156,17.392V70.773c23.211,5.255,40.512,26.015,40.512,50.804c0,15.692-6.899,29.747-17.864,39.304l0.594,2.238v11.818
		C243.636,163.567,255.117,143.914,255.117,121.577L255.117,121.577z M255.117,121.577"/>
</g>
</svg>
