<?xml version="1.0" encoding="utf-8"?>
<!-- Generator: Adobe Illustrator 15.1.0, SVG Export Plug-In . SVG Version: 6.00 Build 0)  -->
<!DOCTYPE svg PUBLIC "-//W3C//DTD SVG 1.1//EN" "http://www.w3.org/Graphics/SVG/1.1/DTD/svg11.dtd">
<svg version="1.1" id="Layer_1" xmlns="http://www.w3.org/2000/svg" xmlns:xlink="http://www.w3.org/1999/xlink" x="0px" y="0px"
	 width="37px" height="27.001px" viewBox="0 0 37 27.001" enable-background="new 0 0 37 27.001" xml:space="preserve">
<g>
	
		<path fill="none" stroke="#ffffff" stroke-width="1.9473" stroke-linecap="round" stroke-linejoin="round" stroke-miterlimit="22.926" d="
		M3.929,13.988c0,0,8.794-15.188,15.39-12.75c8.84,3.268-0.819,12.422-3.275,15.364c-2.456,2.942-3.694,6.329,1.31,8.827
		c7.859,3.922,15.716-12.75,15.716-12.75"/>
	<path fill="#ffffff" d="M7.858,13.661c0,2.166-1.759,3.924-3.929,3.924S0,15.827,0,13.661s1.759-3.923,3.929-3.923
		S7.858,11.495,7.858,13.661"/>
	<path fill="#ffffff" d="M37,13.661c0,2.166-1.76,3.924-3.93,3.924c-2.169,0-3.93-1.758-3.93-3.924s1.761-3.923,3.93-3.923
		C35.24,9.738,37,11.495,37,13.661"/>
	<rect y="0" fill="none" width="37" height="27"/>
</g>
</svg>
