<?xml version="1.0" encoding="utf-8"?>
<!-- Generator: Adobe Illustrator 15.1.0, SVG Export Plug-In . SVG Version: 6.00 Build 0)  -->
<!DOCTYPE svg PUBLIC "-//W3C//DTD SVG 1.1//EN" "http://www.w3.org/Graphics/SVG/1.1/DTD/svg11.dtd">
<svg version="1.1" id="Layer_1" xmlns="http://www.w3.org/2000/svg" xmlns:xlink="http://www.w3.org/1999/xlink" x="0px" y="0px"
	 width="307.873px" height="141.434px" viewBox="0 0 307.873 141.434" enable-background="new 0 0 307.873 141.434"
	 xml:space="preserve">
<path fill="none" stroke="#ffd503" stroke-width="6" d="M41.565,136.846c-9.403,2.885-18.883,2.264-28.53-5.432
	c-13.792-11.003-12.891-31.296-0.223-41.527"/>
<path fill="none" stroke="#ffd503" stroke-width="6" d="M175.917,126.139c-10.752,4.908-23.28,4.404-33.661-1.499
	c-9.262-5.267-15.978-14.624-26.206-18.292c-25.405-9.109-49.68,22.89-74.484,30.498"/>
<path fill="none" stroke="#ffd503" stroke-width="6" d="M265.495,66.58l-86.894,58.201c-0.881,0.491-1.776,0.944-2.685,1.358"/>
<path fill="none" stroke="#ffd503" stroke-width="6" d="M294.224,6.853c1.854,1.234,3.545,2.75,5.007,4.526
	c9.816,11.928,6.423,29.834-7.076,37.344l-26.66,17.857"/>
<path fill="none" stroke="#ffd503" stroke-width="6" d="M234.795,32.411l40.23-28.483c6.625-1.941,13.638-0.777,19.198,2.924"/>
<path fill="none" stroke="#ffd503" stroke-width="6" d="M191.084,65.146c0.959-0.989,1.778-2.156,2.405-3.491l41.306-29.244"/>
<path fill="none" stroke="#ffd503" stroke-width="6" d="M166.578,20.778c7.664,7.351,9.772,18.833,5.137,28.46
	c-3.941,5.23-3.083,12.634,1.95,16.823c5.324,4.432,12.917,3.73,17.42-0.915"/>
<path fill="none" stroke="#ffd503" stroke-width="6" d="M133.239,20.73l9.807-5.629c7.997-2.405,16.67-0.477,22.896,5.089
	c0.216,0.193,0.428,0.389,0.636,0.588"/>
<path fill="none" stroke="#ffd503" stroke-width="6" d="M77.806,52.551l55.433-31.821"/>
<path fill="none" stroke="#ffd503" stroke-width="6" d="M12.813,89.887c2.066-1.668,4.444-3.068,7.123-4.117l57.87-33.219"/>
</svg>
