<?xml version="1.0" encoding="utf-8"?>
<!-- Generator: Adobe Illustrator 15.1.0, SVG Export Plug-In . SVG Version: 6.00 Build 0)  -->
<!DOCTYPE svg PUBLIC "-//W3C//DTD SVG 1.1//EN" "http://www.w3.org/Graphics/SVG/1.1/DTD/svg11.dtd">
<svg version="1.1" id="Layer_1" xmlns="http://www.w3.org/2000/svg" xmlns:xlink="http://www.w3.org/1999/xlink" x="0px" y="0px"
	 width="309.874px" height="143.435px" viewBox="0 0 309.874 143.435" enable-background="new 0 0 309.874 143.435"
	 xml:space="preserve">
<g>
	<defs>
		<rect id="SVGID_1_" y="0" width="309.874" height="143.435"/>
	</defs>
	<clipPath id="SVGID_2_">
		<use xlink:href="#SVGID_1_"  overflow="visible"/>
	</clipPath>
	<path clip-path="url(#SVGID_2_)" fill="none" stroke="#FFD503" stroke-width="6" d="M14.036,132.415
		c-16.041-12.797-12.206-38.16,6.9-45.645l123.11-70.669c7.997-2.405,16.67-0.477,22.896,5.089
		c8.181,7.315,10.534,19.161,5.772,29.048c-3.941,5.23-3.083,12.634,1.95,16.823c6.458,5.375,16.253,3.198,19.825-4.406
		l81.536-57.727c8.833-2.588,18.356,0.344,24.205,7.45c9.816,11.928,6.423,29.834-7.076,37.344l-113.554,76.058
		c-11.306,6.313-25.088,6.261-36.346-0.141c-9.262-5.267-15.978-14.624-26.206-18.292C82.014,94.785,49.127,160.409,14.036,132.415z
		"/>
</g>
</svg>
