<?xml version="1.0" encoding="utf-8"?>
<!-- Generator: Adobe Illustrator 15.1.0, SVG Export Plug-In . SVG Version: 6.00 Build 0)  -->
<!DOCTYPE svg PUBLIC "-//W3C//DTD SVG 1.1//EN" "http://www.w3.org/Graphics/SVG/1.1/DTD/svg11.dtd">
<svg version="1.1" id="Layer_1" xmlns="http://www.w3.org/2000/svg" xmlns:xlink="http://www.w3.org/1999/xlink" x="0px" y="0px"
	 width="103.999px" height="75.999px" viewBox="0 0 103.999 75.999" enable-background="new 0 0 103.999 75.999"
	 xml:space="preserve">
<path fill="#FFFFFF" d="M13.416,40.745c0,0,0.071-0.124,0.226-0.384c1.146-1.935,6.61-10.89,13.744-19.241
	c3.563-4.168,7.546-8.185,11.521-11.069c3.975-2.913,7.891-4.594,11.171-4.571c1.134,0.005,2.208,0.182,3.271,0.577
	c3.441,1.272,5.545,2.802,6.773,4.339c1.218,1.541,1.701,3.123,1.715,5.046c0.008,2.211-0.751,4.853-2.096,7.63
	c-2.001,4.166-5.254,8.577-8.471,12.439c-3.223,3.875-6.361,7.18-8.277,9.471c-1.81,2.173-3.436,4.464-4.645,6.885
	c-1.207,2.421-2.01,4.999-2.013,7.699c-0.014,2.719,0.878,5.516,2.764,7.964c1.88,2.46,4.663,4.604,8.454,6.504
	c2.685,1.342,5.461,1.971,8.176,1.965c5.793-0.014,11.092-2.732,15.771-6.467c7.026-5.635,12.913-13.756,17.151-20.494
	c4.222-6.744,6.751-12.111,6.78-12.174c0.645-1.369,0.059-3.003-1.313-3.646c-1.367-0.646-2.996-0.058-3.643,1.311
	c-0.003,0-0.058,0.125-0.185,0.39c-0.958,1.968-5.585,11.133-12.11,19.657c-3.258,4.26-6.993,8.346-10.875,11.279
	c-3.894,2.954-7.847,4.68-11.577,4.668c-1.886,0-3.761-0.414-5.727-1.391c-3.273-1.635-5.342-3.338-6.549-4.922
	c-1.198-1.596-1.626-3.043-1.641-4.644c-0.002-1.579,0.489-3.352,1.437-5.251c0.94-1.893,2.327-3.875,3.953-5.827
	c1.127-1.35,2.955-3.337,5.026-5.689c3.11-3.53,6.797-7.897,9.768-12.574c2.949-4.684,5.287-9.664,5.318-14.782
	c0.016-2.943-0.882-5.952-2.922-8.475c-2.029-2.529-5.063-4.541-9.142-6.051C53.561,0.293,51.811,0,50.077,0
	c-5.426,0.033-10.542,2.681-15.291,6.289c-7.121,5.449-13.56,13.333-18.317,19.889c-4.746,6.551-7.764,11.769-7.797,11.829
	c-0.756,1.303-0.309,2.981,1.002,3.74C10.983,42.504,12.659,42.057,13.416,40.745"/>
<path fill="#FFFFFF" d="M22.088,38.454c0,6.098-4.945,11.042-11.044,11.042S0,44.552,0,38.454c0-6.098,4.945-11.042,11.044-11.042
	S22.088,32.356,22.088,38.454"/>
<path fill="#FFFFFF" d="M103.999,38.454c0,6.098-4.945,11.042-11.045,11.042c-6.096,0-11.044-4.943-11.044-11.042
	c0-6.098,4.948-11.042,11.044-11.042C99.054,27.412,103.999,32.356,103.999,38.454"/>
</svg>
