<?xml version="1.0" encoding="utf-8"?>
<!-- Generator: Adobe Illustrator 15.1.0, SVG Export Plug-In . SVG Version: 6.00 Build 0)  -->
<!DOCTYPE svg PUBLIC "-//W3C//DTD SVG 1.1//EN" "http://www.w3.org/Graphics/SVG/1.1/DTD/svg11.dtd">
<svg version="1.1" id="Layer_1" xmlns="http://www.w3.org/2000/svg" xmlns:xlink="http://www.w3.org/1999/xlink" x="0px" y="0px"
	 width="35.007px" height="35.204px" viewBox="0 0 35.007 35.204" enable-background="new 0 0 35.007 35.204" xml:space="preserve">
<path fill="none" stroke="#FFFFFF" stroke-width="2.0079" stroke-linecap="round" stroke-linejoin="round" stroke-miterlimit="22.926" d="
	M17.503,1.004c-9.111,0-16.499,6.588-16.499,14.713c0,8.128,7.388,14.715,16.499,14.715c1.821,0,3.569-0.263,5.206-0.749
	c1.854,1.746,4.25,3.298,7.254,4.518l-0.992-7.9c3.104-2.676,5.033-6.428,5.033-10.583C34.003,7.592,26.617,1.004,17.503,1.004z"/>
<path fill="none" stroke="#FFFFFF" stroke-width="2.0079" stroke-linecap="round" stroke-linejoin="round" stroke-miterlimit="22.926" d="
	M20.041,15.408c0,0.743-0.207,1.591-0.621,3.134c-0.414,1.544-0.623,2.548-0.623,3.015c0,0.468,0.092,0.702,0.275,0.702
	c0.184,0,0.512-0.084,0.995-0.252l0.224-0.099l0.449,1.251c-0.564,0.434-1.265,0.818-2.104,1.152
	c-0.836,0.331-1.596,0.498-2.276,0.498c-0.679,0-1.213-0.19-1.606-0.574c-0.388-0.385-0.583-0.939-0.583-1.666
	c0-0.725,0.204-1.834,0.61-3.328c0.405-1.492,0.609-2.144,0.609-2.544c0-0.618-0.215-1.201-0.646-1.751l-0.201-0.275l0.077-0.425
	c0.862-0.268,2.536-0.4,5.025-0.4C19.909,14.145,20.041,14.666,20.041,15.408z"/>
<path fill="none" stroke="#FFFFFF" stroke-width="2.0079" stroke-linecap="round" stroke-linejoin="round" stroke-miterlimit="22.926" d="
	M18.188,11.302c-0.756,0-1.344-0.201-1.767-0.601c-0.423-0.401-0.635-0.913-0.635-1.54c0-0.625,0.262-1.15,0.784-1.576
	c0.523-0.425,1.157-0.638,1.901-0.638c0.749,0,1.331,0.176,1.744,0.524c0.415,0.353,0.622,0.842,0.622,1.477
	c0,0.636-0.253,1.185-0.76,1.653C19.572,11.068,18.942,11.302,18.188,11.302z"/>
</svg>
