<?xml version="1.0" encoding="utf-8"?>
<!-- Generator: Adobe Illustrator 15.1.0, SVG Export Plug-In . SVG Version: 6.00 Build 0)  -->
<!DOCTYPE svg PUBLIC "-//W3C//DTD SVG 1.1//EN" "http://www.w3.org/Graphics/SVG/1.1/DTD/svg11.dtd">
<svg version="1.1" id="Layer_1" xmlns="http://www.w3.org/2000/svg" xmlns:xlink="http://www.w3.org/1999/xlink" x="0px" y="0px"
	 width="23px" height="32.703px" viewBox="0 0 23 32.703" enable-background="new 0 0 23 32.703" xml:space="preserve">
<g>
	<defs>
		<rect id="SVGID_1_" y="0" width="23" height="32.703"/>
	</defs>
	<clipPath id="SVGID_2_">
		<use xlink:href="#SVGID_1_"  overflow="visible"/>
	</clipPath>
	
		<path clip-path="url(#SVGID_2_)" fill="none" stroke="#FFFFFF" stroke-width="2.0138" stroke-linecap="round" stroke-linejoin="round" stroke-miterlimit="22.926" d="
		M22.022,8.395v22.531c0,0.641-0.527,1.18-1.158,1.18H1.712c-0.629,0-1.159-0.529-1.159-1.18V1.89c0-0.648,0.521-1.178,1.159-1.178
		h12.762"/>
	
		<path clip-path="url(#SVGID_2_)" fill="none" stroke="#FFFFFF" stroke-width="2.0138" stroke-linecap="round" stroke-linejoin="round" stroke-miterlimit="22.926" d="
		M22.022,8.395h-6.391c-0.637,0-1.158-0.531-1.158-1.18V0.712L22.022,8.395z"/>
	
		<line clip-path="url(#SVGID_2_)" fill="none" stroke="#FFFFFF" stroke-width="2.0138" stroke-linecap="round" stroke-linejoin="round" stroke-miterlimit="22.926" x1="5.184" y1="7.027" x2="11.289" y2="7.027"/>
	
		<line clip-path="url(#SVGID_2_)" fill="none" stroke="#FFFFFF" stroke-width="2.0138" stroke-linecap="round" stroke-linejoin="round" stroke-miterlimit="22.926" x1="5.184" y1="12.903" x2="17.393" y2="12.903"/>
	
		<line clip-path="url(#SVGID_2_)" fill="none" stroke="#FFFFFF" stroke-width="2.0138" stroke-linecap="round" stroke-linejoin="round" stroke-miterlimit="22.926" x1="5.184" y1="16.335" x2="17.393" y2="16.335"/>
	
		<line clip-path="url(#SVGID_2_)" fill="none" stroke="#FFFFFF" stroke-width="2.0138" stroke-linecap="round" stroke-linejoin="round" stroke-miterlimit="22.926" x1="5.184" y1="19.766" x2="17.393" y2="19.766"/>
	
		<line clip-path="url(#SVGID_2_)" fill="none" stroke="#FFFFFF" stroke-width="2.0138" stroke-linecap="round" stroke-linejoin="round" stroke-miterlimit="22.926" x1="5.184" y1="23.197" x2="11.289" y2="23.197"/>
</g>
</svg>
