<?xml version="1.0" encoding="utf-8"?>
<!-- Generator: Adobe Illustrator 15.1.0, SVG Export Plug-In . SVG Version: 6.00 Build 0)  -->
<!DOCTYPE svg PUBLIC "-//W3C//DTD SVG 1.1//EN" "http://www.w3.org/Graphics/SVG/1.1/DTD/svg11.dtd">
<svg version="1.1" id="Layer_1" xmlns="http://www.w3.org/2000/svg" xmlns:xlink="http://www.w3.org/1999/xlink" x="0px" y="0px"
	 width="31px" height="35.111px" viewBox="0 0 31 35.111" enable-background="new 0 0 31 35.111" xml:space="preserve">
<g>
	<path fill="#FFFFFF" d="M7.441,8.589h4.104c1.297,0,2.28,0.102,2.948,0.305s1.206,0.615,1.618,1.232
		c0.41,0.62,0.615,1.618,0.615,2.994c0,0.93-0.145,1.578-0.436,1.945c-0.289,0.367-0.861,0.648-1.715,0.846
		c0.951,0.216,1.598,0.576,1.936,1.078c0.338,0.5,0.508,1.27,0.508,2.307v1.475c0,1.078-0.121,1.874-0.366,2.393
		c-0.245,0.518-0.634,0.872-1.169,1.063c-0.533,0.189-1.629,0.285-3.284,0.285h-4.76V8.589z M11.556,11.313v3.54
		c0.176-0.007,0.313-0.009,0.412-0.009c0.402,0,0.659-0.102,0.771-0.301c0.11-0.201,0.167-0.772,0.167-1.717
		c0-0.498-0.046-0.847-0.137-1.047c-0.091-0.201-0.21-0.326-0.357-0.378C12.267,11.35,11.979,11.319,11.556,11.313z M11.556,17.331
		v4.456c0.581-0.021,0.95-0.112,1.109-0.276c0.16-0.165,0.24-0.566,0.24-1.208v-1.485c0-0.683-0.072-1.094-0.215-1.239
		C12.546,17.433,12.169,17.351,11.556,17.331z"/>
	<path fill="#FFFFFF" d="M18.497,8.589h6.971v3.187h-2.854v3.02h2.541v3.029h-2.541v6.687h-4.116V8.589z"/>
</g>
<g>
	<defs>
		<rect id="SVGID_1_" width="31" height="35.111"/>
	</defs>
	<clipPath id="SVGID_2_">
		<use xlink:href="#SVGID_1_"  overflow="visible"/>
	</clipPath>
	
		<path clip-path="url(#SVGID_2_)" fill="none" stroke="#FFFFFF" stroke-width="1.9777" stroke-linecap="round" stroke-linejoin="round" stroke-miterlimit="22.926" d="
		M15.483,34.21C6.809,30.378,0.95,23.11,0.95,14.771C0.95,10.5,1,6.218,1,1.94c1.3,1.563,3.919,2.63,6.938,2.63
		c3.613,0,6.65-1.528,7.547-3.601c0.894,2.072,3.934,3.601,7.544,3.601c3.019,0,5.639-1.066,6.938-2.63
		c0,4.277,0.05,8.56,0.05,12.831C30.017,23.11,24.159,30.378,15.483,34.21z"/>
</g>
</svg>
