<?xml version="1.0" encoding="utf-8"?>
<!-- Generator: Adobe Illustrator 15.1.0, SVG Export Plug-In . SVG Version: 6.00 Build 0)  -->
<!DOCTYPE svg PUBLIC "-//W3C//DTD SVG 1.1//EN" "http://www.w3.org/Graphics/SVG/1.1/DTD/svg11.dtd">
<svg version="1.1" id="Layer_1" xmlns="http://www.w3.org/2000/svg" xmlns:xlink="http://www.w3.org/1999/xlink" x="0px" y="0px"
	 width="34.995px" height="35.19px" viewBox="0 0 34.995 35.19" enable-background="new 0 0 34.995 35.19" xml:space="preserve">
<path fill="none" stroke="#FFFFFF" stroke-width="1.9947" stroke-linecap="round" stroke-linejoin="round" stroke-miterlimit="22.926" d="
	M17.498,0.998c-9.112,0-16.5,6.587-16.5,14.712c0,8.127,7.388,14.714,16.5,14.714c1.819,0,3.569-0.263,5.205-0.748
	c1.854,1.746,4.249,3.298,7.254,4.516l-0.994-7.902c3.104-2.675,5.034-6.427,5.034-10.581C33.998,7.585,26.611,0.998,17.498,0.998z"
	/>
<path fill="none" stroke="#FFFFFF" stroke-width="1.9947" stroke-linecap="round" stroke-linejoin="round" stroke-miterlimit="22.926" d="
	M13.342,12.274c0-4.154,7.542-4.203,7.616-0.148c0.056,3.134-3.585,2.485-3.585,6.263"/>
<path fill="none" stroke="#FFFFFF" stroke-width="1.9947" stroke-linecap="round" stroke-linejoin="round" stroke-miterlimit="22.926" d="
	M17.391,23.011c0.069,0.001,0.14,0.001,0.211,0.001"/>
</svg>
