<?xml version="1.0" encoding="utf-8"?>
<!-- Generator: Adobe Illustrator 15.1.0, SVG Export Plug-In . SVG Version: 6.00 Build 0)  -->
<!DOCTYPE svg PUBLIC "-//W3C//DTD SVG 1.1//EN" "http://www.w3.org/Graphics/SVG/1.1/DTD/svg11.dtd">
<svg version="1.1" id="Layer_1" xmlns="http://www.w3.org/2000/svg" xmlns:xlink="http://www.w3.org/1999/xlink" x="0px" y="0px"
	 width="29.955px" height="32.033px" viewBox="0 0 29.955 32.033" enable-background="new 0 0 29.955 32.033" xml:space="preserve">
<path fill="#FFD503" d="M29.955,14.779c0,0.529-0.431,0.959-0.961,0.959c-0.529,0-0.96-0.43-0.96-0.959V8.315
	c0-3.104-1.38-5.071-3.145-5.913c-0.68-0.325-1.414-0.487-2.143-0.487V1.92c-0.734,0-1.469,0.16-2.143,0.483
	c-1.764,0.842-3.143,2.807-3.143,5.913v6.463c0,0.529-0.43,0.959-0.96,0.959s-0.96-0.43-0.96-0.959V8.315
	c0-3.958,1.858-6.511,4.238-7.646C20.715,0.223,21.731,0,22.747,0v0.004c1.02,0,2.036,0.223,2.968,0.666
	c2.38,1.135,4.24,3.69,4.24,7.646V14.779L29.955,14.779z"/>
<path fill="#FFD503" d="M0.96,14.015h18.669c0.529,0,0.959,0.43,0.959,0.959v14.845c0,0.609-0.248,1.162-0.648,1.565
	c-0.402,0.4-0.957,0.648-1.566,0.648H2.215c-0.607,0-1.161-0.248-1.562-0.648l-0.002-0.002l-0.002,0.002
	C0.249,30.983,0,30.428,0,29.819V14.974C0,14.445,0.43,14.015,0.96,14.015L0.96,14.015z M18.668,15.935H1.92v13.884
	c0,0.08,0.033,0.154,0.087,0.207l-0.002,0.002c0.054,0.053,0.128,0.084,0.21,0.084h16.158c0.08,0,0.154-0.033,0.208-0.086
	c0.054-0.055,0.087-0.127,0.087-0.207V15.935L18.668,15.935z"/>
</svg>
