<?xml version="1.0" encoding="utf-8"?>
<!-- Generator: Adobe Illustrator 15.1.0, SVG Export Plug-In . SVG Version: 6.00 Build 0)  -->
<!DOCTYPE svg PUBLIC "-//W3C//DTD SVG 1.1//EN" "http://www.w3.org/Graphics/SVG/1.1/DTD/svg11.dtd">
<svg version="1.1" id="Layer_1" xmlns="http://www.w3.org/2000/svg" xmlns:xlink="http://www.w3.org/1999/xlink" x="0px" y="0px"
	 width="52px" height="52px" viewBox="0 0 52 52" enable-background="new 0 0 52 52" xml:space="preserve">
<g>
	<circle fill="#FED502" cx="26" cy="26" r="26"/>
	<g>
		<path fill="#424142" d="M40.977,24.763c0,0.529-0.432,0.959-0.961,0.959s-0.961-0.43-0.961-0.959V18.3
			c0-3.104-1.379-5.07-3.145-5.912c-0.68-0.324-1.414-0.486-2.143-0.486v0.004c-0.734,0-1.467,0.16-2.141,0.482
			c-1.764,0.842-3.143,2.807-3.143,5.912v6.463c0,0.529-0.43,0.959-0.961,0.959c-0.53,0-0.959-0.43-0.959-0.959V18.3
			c0-3.957,1.858-6.51,4.237-7.645c0.938-0.447,1.953-0.67,2.967-0.67v0.004c1.02,0,2.037,0.223,2.969,0.666
			c2.379,1.135,4.24,3.689,4.24,7.645V24.763L40.977,24.763z"/>
		<path fill="#424142" d="M11.984,23.999H30.65c0.531,0,0.961,0.43,0.961,0.959v14.844c0,0.609-0.25,1.162-0.65,1.564
			c-0.4,0.4-0.955,0.648-1.564,0.648H13.239c-0.607,0-1.16-0.248-1.562-0.648l-0.002-0.002l-0.002,0.002
			c-0.4-0.4-0.649-0.955-0.649-1.564V24.958C11.024,24.429,11.454,23.999,11.984,23.999L11.984,23.999z M29.691,25.919H12.944
			v13.883c0,0.08,0.033,0.154,0.087,0.207l-0.002,0.002c0.054,0.053,0.128,0.084,0.21,0.084h16.158c0.08,0,0.154-0.033,0.207-0.086
			c0.053-0.055,0.088-0.127,0.088-0.207V25.919L29.691,25.919z"/>
	</g>
</g>
</svg>
